<svg width="18" height="18" viewBox="0 0 18 18" fill="none" xmlns="http://www.w3.org/2000/svg">
<path d="M15.008 0.5L17.998 3.49496L16.9364 4.55473L13.9465 1.55977L15.008 0.5Z" fill="#364141"/>
<path d="M4.04928 1.56071L1.05936 4.55567L-0.00219727 3.49591L2.98773 0.500944L4.04928 1.56071Z" fill="#364141"/>
<path d="M8.24734 6.02151V10.3251L10.9582 13.0405L12.0197 11.9807L9.74734 9.70451V6.02151H8.24734Z" fill="#364141"/>
<path fill-rule="evenodd" clip-rule="evenodd" d="M17.2174 9.76519C17.2174 14.3139 13.5373 18.0013 8.99759 18.0013C4.45789 18.0013 0.77774 14.3139 0.77774 9.76519C0.77774 5.21649 4.45789 1.52904 8.99759 1.52904C13.5373 1.52904 17.2174 5.21649 17.2174 9.76519ZM15.7174 9.76519C15.7174 13.4883 12.7061 16.5013 8.99759 16.5013C5.28912 16.5013 2.27774 13.4883 2.27774 9.76519C2.27774 6.04212 5.28912 3.02904 8.99759 3.02904C12.7061 3.02904 15.7174 6.04212 15.7174 9.76519Z" fill="#364141"/>
</svg>
