<svg width="18" height="18" viewBox="0 0 18 18" fill="none" xmlns="http://www.w3.org/2000/svg">
<path fill-rule="evenodd" clip-rule="evenodd" d="M2.43409 11.5H4.04561L4.30938 10.463H5.88477L6.14854 11.5H7.76007L6.05821 6.28604H4.13595L2.43409 11.5ZM5.06095 7.529H5.13321L5.60655 9.38262H4.58761L5.06095 7.529Z" fill="#364141"/>
<path d="M8.02803 11.5H11.6847V10.2859H9.56006V6.28604H8.02803V11.5Z" fill="#364141"/>
<path d="M14.0592 11.5H12.5271V7.5001H11.0782V6.28604H15.5081V7.5001H14.0592V11.5Z" fill="#364141"/>
<path fill-rule="evenodd" clip-rule="evenodd" d="M0 3.5C0 2.67157 0.671573 2 1.5 2H16.5C17.3284 2 18 2.67157 18 3.5V14.5C18 15.3284 17.3284 16 16.5 16H1.5C0.671573 16 0 15.3284 0 14.5V3.5ZM1.5 3.5H16.5V14.5H1.5L1.5 3.5Z" fill="#364141"/>
</svg>
