<svg width="18" height="18" viewBox="0 0 18 18" fill="none" xmlns="http://www.w3.org/2000/svg">
<path d="M5.13321 7.529H5.06095L4.58761 9.38262H5.60655L5.13321 7.529Z" fill="#364141"/>
<path fill-rule="evenodd" clip-rule="evenodd" d="M1.5 2C0.671573 2 0 2.67157 0 3.5V14.5C0 15.3284 0.671573 16 1.5 16H16.5C17.3284 16 18 15.3284 18 14.5V3.5C18 2.67157 17.3284 2 16.5 2H1.5ZM4.04561 11.5H2.43409L4.13595 6.28604H6.05821L7.76007 11.5H6.14854L5.88477 10.463H4.30938L4.04561 11.5ZM11.6847 11.5H8.02803V6.28604H9.56006V10.2859H11.6847V11.5ZM14.0592 11.5H12.5271V7.5001H11.0782V6.28604H15.5081V7.5001H14.0592V11.5Z" fill="#364141"/>
</svg>
