<svg width="18" height="18" viewBox="0 0 18 18" fill="none" xmlns="http://www.w3.org/2000/svg">
<path d="M9 1.75C6.47546 1.75 4.25069 3.0406 2.95208 5H5.45001V7H-0.25V1H1.75V3.25518C3.44387 1.12025 6.06123 -0.25 9 -0.25C14.1086 -0.25 18.25 3.89137 18.25 9H16.25C16.25 4.99594 13.0041 1.75 9 1.75Z" fill="#364141"/>
<path d="M9 16.25C11.5245 16.25 13.7493 14.9594 15.0479 13L12.55 13L12.55 11L18.25 11V17H16.25V14.7448C14.5561 16.8798 11.9388 18.25 9 18.25C3.89137 18.25 -0.25 14.1086 -0.25 9H1.75C1.75 13.0041 4.99594 16.25 9 16.25Z" fill="#364141"/>
</svg>
