<svg width="18" height="18" viewBox="0 0 18 18" fill="none" xmlns="http://www.w3.org/2000/svg">
<path fill-rule="evenodd" clip-rule="evenodd" d="M9.53032 17.5303L8.99999 18.0606L8.46966 17.5303L5.46966 14.5303L6.53032 13.4697L8.24999 15.1893V9.74999H2.81065L4.53032 11.4697L3.46966 12.5303L0.469661 9.53032L-0.0606689 8.99999L0.469661 8.46966L3.46966 5.46966L4.53032 6.53032L2.81065 8.24999H8.24999V2.81065L6.53032 4.53032L5.46966 3.46966L8.46966 0.46966L8.99999 -0.0606689L9.53032 0.46966L12.5303 3.46966L11.4697 4.53032L9.74999 2.81065V8.24999H15.1893L13.4697 6.53032L14.5303 5.46966L17.5303 8.46966L18.0606 8.99999L17.5303 9.53032L14.5303 12.5303L13.4697 11.4697L15.1893 9.74999H9.74999V15.1893L11.4697 13.4697L12.5303 14.5303L9.53032 17.5303Z" fill="#364141"/>
</svg>
