<svg width="18" height="18" viewBox="0 0 18 18" fill="none" xmlns="http://www.w3.org/2000/svg">
<path d="M9.00003 18.4142L5.29292 14.7071L6.70714 13.2929L8.00003 14.5858V9.99997H3.41424L4.70714 11.2929L3.29292 12.7071L-0.414185 8.99997L3.29292 5.29286L4.70714 6.70707L3.41424 7.99997H8.00003V3.41418L6.70714 4.70707L5.29292 3.29286L9.00003 -0.414246L12.7071 3.29286L11.2929 4.70707L10 3.41418V7.99997H14.5858L13.2929 6.70708L14.7071 5.29286L18.4142 8.99997L14.7071 12.7071L13.2929 11.2929L14.5858 9.99997H10V14.5858L11.2929 13.2929L12.7071 14.7071L9.00003 18.4142Z" fill="#364141"/>
</svg>
