<svg width="24" height="24" viewBox="0 0 24 24" fill="none" xmlns="http://www.w3.org/2000/svg">
<path d="M13 12.0001C13 12.5524 12.5523 13.0001 12 13.0001C11.4477 13.0001 11 12.5524 11 12.0001C11 11.4478 11.4477 11.0001 12 11.0001C12.5523 11.0001 13 11.4478 13 12.0001Z" fill="#364141"/>
<path fill-rule="evenodd" clip-rule="evenodd" d="M6.19511 12.0001C4.23582 14.9563 3.63704 17.7793 4.92892 19.0712C6.22081 20.363 9.04373 19.7643 12 17.805C14.9562 19.7643 17.7791 20.363 19.071 19.0712C20.3629 17.7793 19.7641 14.9563 17.8048 12.0001C19.7641 9.04385 20.3629 6.22091 19.0711 4.92902C17.7792 3.63713 14.9562 4.23593 12 6.19523C9.04373 4.23593 6.22079 3.63713 4.9289 4.92902C3.63701 6.22091 4.2358 9.04385 6.19511 12.0001ZM13.3039 16.8576C13.9957 17.2811 14.6634 17.613 15.2819 17.8476C17.0411 18.5149 17.809 18.2118 18.0104 18.0105C18.2117 17.8092 18.5147 17.0412 17.8475 15.2821C17.6129 14.6635 17.281 13.9958 16.8575 13.304C16.3559 13.9378 15.7956 14.5684 15.182 15.1821C14.5683 15.7957 13.9377 16.356 13.3039 16.8576ZM12 15.969C12.7069 15.4382 13.4222 14.8205 14.1213 14.1214C14.8204 13.4223 15.4381 12.707 15.9689 12.0001C15.4381 11.2932 14.8204 10.5779 14.1213 9.87877C13.4222 9.17968 12.7069 8.56198 12 8.03118C11.2931 8.56198 10.5778 9.17968 9.87867 9.87877C9.17957 10.5779 8.56186 11.2932 8.03106 12.0001C8.56186 12.707 9.17956 13.4223 9.87864 14.1214C10.5777 14.8205 11.2931 15.4382 12 15.969ZM7.14249 13.304C7.6441 13.9378 8.20433 14.5684 8.81798 15.1821C9.43165 15.7957 10.0622 16.356 10.6961 16.8576C10.0043 17.2811 9.33653 17.613 8.71801 17.8476C6.95884 18.5149 6.1909 18.2118 5.98958 18.0105C5.78826 17.8092 5.48521 17.0412 6.15248 15.2821C6.38709 14.6635 6.71898 13.9958 7.14249 13.304ZM7.14249 10.6962C7.64411 10.0624 8.20434 9.43178 8.81801 8.81811C9.43167 8.20445 10.0622 7.64422 10.6961 7.14261C10.0043 6.71909 9.33651 6.3872 8.71798 6.15258C6.95882 5.48531 6.19088 5.78836 5.98956 5.98968C5.78823 6.191 5.48519 6.95894 6.15246 8.71811C6.38708 9.33663 6.71896 10.0044 7.14249 10.6962ZM13.3039 7.14261C13.9957 6.71909 14.6634 6.3872 15.282 6.15258C17.0411 5.48531 17.8091 5.78836 18.0104 5.98968C18.2117 6.191 18.5148 6.95894 17.8475 8.71811C17.6129 9.33663 17.281 10.0044 16.8575 10.6962C16.3558 10.0624 15.7956 9.43178 15.1819 8.81811C14.5683 8.20445 13.9377 7.64422 13.3039 7.14261Z" fill="#364141"/>
</svg>
