<svg width="18" height="18" viewBox="0 0 18 18" fill="none" xmlns="http://www.w3.org/2000/svg">
<path d="M10 9.00012C10 9.55241 9.55229 10.0001 9 10.0001C8.44772 10.0001 8 9.55241 8 9.00012C8 8.44784 8.44772 8.00012 9 8.00012C9.55229 8.00012 10 8.44784 10 9.00012Z" fill="#364141"/>
<path fill-rule="evenodd" clip-rule="evenodd" d="M3.19511 9.0001C1.23582 11.9563 0.637035 14.7793 1.92892 16.0712C3.22081 17.363 6.04373 16.7643 8.99998 14.805C11.9562 16.7643 14.7791 17.363 16.071 16.0712C17.3629 14.7793 16.7641 11.9563 14.8048 9.0001C16.7641 6.04385 17.3629 3.22091 16.0711 1.92902C14.7792 0.637129 11.9562 1.23593 8.99998 3.19523C6.04373 1.23593 3.22079 0.637129 1.9289 1.92902C0.637007 3.22091 1.2358 6.04385 3.19511 9.0001ZM10.3039 13.8576C10.9957 14.2811 11.6634 14.613 12.2819 14.8476C14.0411 15.5149 14.809 15.2118 15.0104 15.0105C15.2117 14.8092 15.5147 14.0412 14.8475 12.2821C14.6129 11.6635 14.281 10.9958 13.8575 10.304C13.3559 10.9378 12.7956 11.5684 12.182 12.1821C11.5683 12.7957 10.9377 13.356 10.3039 13.8576ZM8.99998 12.969C9.70689 12.4382 10.4222 11.8205 11.1213 11.1214C11.8204 10.4223 12.4381 9.70701 12.9689 9.0001C12.4381 8.29318 11.8204 7.57786 11.1213 6.87877C10.4222 6.17968 9.70689 5.56198 8.99998 5.03118C8.29307 5.56198 7.57775 6.17968 6.87867 6.87877C6.17957 7.57786 5.56186 8.29318 5.03106 9.0001C5.56186 9.70701 6.17956 10.4223 6.87864 11.1214C7.57774 11.8205 8.29306 12.4382 8.99998 12.969ZM4.14249 10.304C4.6441 10.9378 5.20433 11.5684 5.81798 12.1821C6.43165 12.7957 7.06224 13.356 7.69609 13.8576C7.00428 14.2811 6.33653 14.613 5.71801 14.8476C3.95884 15.5149 3.1909 15.2118 2.98958 15.0105C2.78826 14.8092 2.48521 14.0412 3.15248 12.2821C3.38709 11.6635 3.71898 10.9958 4.14249 10.304ZM4.14249 7.69622C4.64411 7.06236 5.20434 6.43178 5.81801 5.81811C6.43167 5.20445 7.06225 4.64422 7.6961 4.14261C7.00427 3.71909 6.33651 3.3872 5.71798 3.15258C3.95882 2.48531 3.19088 2.78836 2.98956 2.98968C2.78823 3.191 2.48519 3.95894 3.15246 5.71811C3.38708 6.33663 3.71896 7.00439 4.14249 7.69622ZM10.3039 4.14261C10.9957 3.71909 11.6634 3.3872 12.282 3.15258C14.0411 2.48531 14.8091 2.78836 15.0104 2.98968C15.2117 3.191 15.5148 3.95894 14.8475 5.71811C14.6129 6.33663 14.281 7.00439 13.8575 7.69622C13.3558 7.06236 12.7956 6.43178 12.1819 5.81811C11.5683 5.20445 10.9377 4.64422 10.3039 4.14261Z" fill="#364141"/>
</svg>
