<svg width="18" height="18" viewBox="0 0 18 18" fill="none" xmlns="http://www.w3.org/2000/svg">
<path d="M5 5.5H3V12.5H5V5.5Z" fill="#364141"/>
<path d="M15 5.5H13V12.5H15V5.5Z" fill="#364141"/>
<path d="M10 5.5H12V12.5H10V5.5Z" fill="#364141"/>
<path d="M7 5.5H6V12.5H7V5.5Z" fill="#364141"/>
<path d="M8 5.5H9V12.5H8V5.5Z" fill="#364141"/>
<path fill-rule="evenodd" clip-rule="evenodd" d="M0 3.5C0 2.67157 0.671573 2 1.5 2H16.5C17.3284 2 18 2.67157 18 3.5V14.5C18 15.3284 17.3284 16 16.5 16H1.5C0.671573 16 0 15.3284 0 14.5V3.5ZM1.5 3.5H16.5V14.5H1.5L1.5 3.5Z" fill="#364141"/>
</svg>
