<svg width="18" height="18" viewBox="0 0 18 18" fill="none" xmlns="http://www.w3.org/2000/svg">
<path fill-rule="evenodd" clip-rule="evenodd" d="M1.5 1C0.671573 1 0 1.67157 0 2.5V3.75C0 4.57843 0.671573 5.25 1.5 5.25H16.5C17.3284 5.25 18 4.57843 18 3.75V2.5C18 1.67157 17.3284 1 16.5 1H1.5ZM16.5 2.5H1.5L1.5 3.75H16.5V2.5Z" fill="#364141"/>
<path fill-rule="evenodd" clip-rule="evenodd" d="M1.5 6.88C0.671573 6.88 0 7.55158 0 8.38V9.63C0 10.4584 0.671573 11.13 1.5 11.13H16.5C17.3284 11.13 18 10.4584 18 9.63V8.38C18 7.55158 17.3284 6.88 16.5 6.88H1.5ZM16.5 8.38H1.5L1.5 9.63H16.5V8.38Z" fill="#364141"/>
<path fill-rule="evenodd" clip-rule="evenodd" d="M0 14.25C0 13.4216 0.671573 12.75 1.5 12.75H16.5C17.3284 12.75 18 13.4216 18 14.25V15.5C18 16.3284 17.3284 17 16.5 17H1.5C0.671573 17 0 16.3284 0 15.5V14.25ZM1.5 14.25H16.5V15.5H1.5L1.5 14.25Z" fill="#364141"/>
</svg>
