<svg width="18" height="18" viewBox="0 0 18 18" fill="none" xmlns="http://www.w3.org/2000/svg">
<path d="M0 2.5C0 1.67157 0.671573 1 1.5 1H16.5C17.3284 1 18 1.67157 18 2.5V3.75C18 4.57843 17.3284 5.25 16.5 5.25H1.5C0.671573 5.25 0 4.57843 0 3.75V2.5Z" fill="#364141"/>
<path d="M0 8.38C0 7.55158 0.671573 6.88 1.5 6.88H16.5C17.3284 6.88 18 7.55158 18 8.38V9.63C18 10.4584 17.3284 11.13 16.5 11.13H1.5C0.671573 11.13 0 10.4584 0 9.63V8.38Z" fill="#364141"/>
<path d="M1.5 12.75C0.671573 12.75 0 13.4216 0 14.25V15.5C0 16.3284 0.671573 17 1.5 17H16.5C17.3284 17 18 16.3284 18 15.5V14.25C18 13.4216 17.3284 12.75 16.5 12.75H1.5Z" fill="#364141"/>
</svg>
