<svg width="18" height="18" viewBox="0 0 18 18" fill="none" xmlns="http://www.w3.org/2000/svg">
<path fill-rule="evenodd" clip-rule="evenodd" d="M0 2.5C0 1.67157 0.671573 1 1.5 1H16.5C17.3284 1 18 1.67157 18 2.5V6.5C18 7.32843 17.3284 8 16.5 8H1.5C0.671573 8 0 7.32843 0 6.5V2.5ZM1.5 2.5H16.5V6.5H1.5L1.5 2.5Z" fill="#364141"/>
<path fill-rule="evenodd" clip-rule="evenodd" d="M0 11.5C0 10.6716 0.671573 10 1.5 10H16.5C17.3284 10 18 10.6716 18 11.5V15.5C18 16.3284 17.3284 17 16.5 17H1.5C0.671573 17 0 16.3284 0 15.5V11.5ZM1.5 11.5H16.5V15.5H1.5L1.5 11.5Z" fill="#364141"/>
</svg>
