<svg width="18" height="18" viewBox="0 0 18 18" fill="none" xmlns="http://www.w3.org/2000/svg">
<path fill-rule="evenodd" clip-rule="evenodd" d="M8 2.5C8 1.67157 8.67157 1 9.5 1H15.5C16.3284 1 17 1.67157 17 2.5V15.5C17 16.3284 16.3284 17 15.5 17H9.5C8.67157 17 8 16.3284 8 15.5V2.5ZM9.5 2.5H15.5V15.5H9.5V2.5Z" fill="#364141"/>
<path d="M1 2.75H6.5V1.25H1V2.75Z" fill="#364141"/>
<path d="M6.5 16.75H1V15.25H6.5V16.75Z" fill="#364141"/>
<path d="M1 9.75H6.5V8.25H1V9.75Z" fill="#364141"/>
<path d="M6.5 6.25H1V4.75H6.5V6.25Z" fill="#364141"/>
<path d="M1 13.25H6.5V11.75H1V13.25Z" fill="#364141"/>
</svg>
