<svg width="18" height="18" viewBox="0 0 18 18" fill="none" xmlns="http://www.w3.org/2000/svg">
<path fill-rule="evenodd" clip-rule="evenodd" d="M13.5 16.7943C11.7063 17.8299 9.70424 18.1779 7.79913 17.92C7.2937 17.8516 6.79508 17.7406 6.309 17.5884C4.23036 16.9377 2.38073 15.5351 1.20581 13.5C-1.27947 9.1954 0.195404 3.69109 4.50004 1.20581C8.80467 -1.27947 14.309 0.195404 16.7943 4.50004C17.9692 6.53505 18.259 8.83818 17.7833 10.9637C17.672 11.4607 17.5189 11.9481 17.3255 12.42C16.5962 14.1988 15.2938 15.7586 13.5 16.7943ZM12.082 15.8382L8.72552 10.0246L7.61631 10.665C8.49636 12.5281 8.68161 14.5666 8.25698 16.4637C9.53245 16.5918 10.8508 16.3949 12.082 15.8382ZM6.86631 9.36592L7.97552 8.72552L4.61903 2.91192C3.52131 3.69985 2.69162 4.74309 2.16478 5.91172C4.02001 6.4925 5.69282 7.67221 6.86631 9.36592ZM5.56188 10.119L2.16192 12.082C1.46957 10.5508 1.33371 8.88482 1.68736 7.33412C3.20714 7.80319 4.58196 8.75383 5.56188 10.119ZM2.91192 13.381L6.31188 11.4181C7.00422 12.9493 7.14008 14.6153 6.78643 16.166C5.26666 15.6969 3.89184 14.7463 2.91192 13.381ZM15.8353 12.0884C15.3085 13.257 14.4788 14.3002 13.381 15.0882L10.0246 9.27456L11.1338 8.63415C12.3073 10.3279 13.9801 11.5076 15.8353 12.0884ZM12.4382 7.88104C13.4181 9.24625 14.7929 10.1969 16.3127 10.666C16.6664 9.11526 16.5305 7.44931 15.8382 5.91807L12.4382 7.88104ZM15.0882 4.61903L11.6882 6.582C10.9959 5.05076 10.86 3.38482 11.2136 1.83412C12.7334 2.3032 14.1082 3.25383 15.0882 4.61903ZM10.3838 7.33512C9.50371 5.47198 9.31846 3.43344 9.7431 1.53637C8.46763 1.40831 7.1493 1.60522 5.91807 2.16192L9.27456 7.97552L10.3838 7.33512Z" fill="#364141"/>
</svg>
