<svg width="18" height="18" viewBox="0 0 18 18" fill="none" xmlns="http://www.w3.org/2000/svg">
<path d="M16.3925 3.86587L11.6882 6.58191C10.7779 4.56867 10.8296 2.32259 11.6911 0.411713C13.5463 0.992488 15.2191 2.17218 16.3925 3.86587Z" fill="#364141"/>
<path d="M17.1426 5.1649L12.4382 7.88095C13.7266 9.67591 15.6977 10.7542 17.7833 10.9636C18.2079 9.06655 18.0226 7.02802 17.1426 5.1649Z" fill="#364141"/>
<path d="M17.3254 12.4199C14.891 12.0904 12.6147 10.7715 11.1338 8.63406L10.0246 9.27446L14.1342 16.3925C15.6029 15.3749 16.6851 13.9818 17.3254 12.4199Z" fill="#364141"/>
<path d="M12.8352 17.1426L8.72555 10.0245L7.61634 10.6649C8.72698 13.0162 8.73102 15.6468 7.79914 17.9199C7.29371 17.8515 6.79511 17.7405 6.30903 17.5883C7.1705 15.6774 7.2222 13.4313 6.31191 11.418L1.60745 14.1341C4.10601 17.7404 8.86823 19.0164 12.8352 17.1426Z" fill="#364141"/>
<path d="M0.857459 12.8351C-1.0163 8.86813 0.259745 4.10598 3.86598 1.60745L7.97555 8.72543L6.86634 9.36583C5.3854 7.22836 3.10923 5.90953 0.674763 5.58C0.481294 6.05191 0.328166 6.53924 0.216904 7.03628C2.3025 7.2457 4.27352 8.32399 5.56191 10.1189L0.857459 12.8351Z" fill="#364141"/>
<path d="M5.16502 0.857457L9.27459 7.97543L10.3838 7.33502C9.27317 4.98377 9.26911 2.35315 10.2009 0.0800802C8.52816 -0.146339 6.78064 0.0943304 5.16502 0.857457Z" fill="#364141"/>
</svg>
