<svg width="18" height="18" viewBox="0 0 18 18" fill="none" xmlns="http://www.w3.org/2000/svg">
<path fill-rule="evenodd" clip-rule="evenodd" d="M9.75 1.29847C12.5713 1.66598 14.75 4.07855 14.75 7V11.5C14.75 12.7426 15.7574 13.75 17 13.75V15.25H1V13.75C2.24264 13.75 3.25 12.7426 3.25 11.5V7C3.25 4.07855 5.42873 1.66598 8.25 1.29847V0H9.75V1.29847ZM9 2.75C6.65279 2.75 4.75 4.65279 4.75 7V11.5C4.75 12.3442 4.47104 13.1233 4.00027 13.75H13.9997C13.529 13.1233 13.25 12.3442 13.25 11.5V7C13.25 4.65279 11.3472 2.75 9 2.75Z" fill="#364141"/>
<path d="M11 16.5C11 17.3284 10.3284 18 9.5 18H8.5C7.67157 18 7 17.3284 7 16.5H11Z" fill="#364141"/>
</svg>
