<svg width="18" height="18" viewBox="0 0 18 18" fill="none" xmlns="http://www.w3.org/2000/svg">
<path fill-rule="evenodd" clip-rule="evenodd" d="M3.75 1H10.375C12.7912 1 14.75 2.95875 14.75 5.375C14.75 6.7807 14.087 8.03156 13.0567 8.83198C14.3676 9.58761 15.25 11.0033 15.25 12.625C15.25 15.0412 13.2912 17 10.875 17H3.75V1ZM10.375 8.25C11.9628 8.25 13.25 6.96282 13.25 5.375C13.25 3.78718 11.9628 2.5 10.375 2.5H5.25V8.25H10.375ZM5.25 9.75H10.875C12.4628 9.75 13.75 11.0372 13.75 12.625C13.75 14.2128 12.4628 15.5 10.875 15.5H5.25V9.75Z" fill="#364141"/>
</svg>
