<svg width="18" height="18" viewBox="0 0 18 18" fill="none" xmlns="http://www.w3.org/2000/svg">
<path fill-rule="evenodd" clip-rule="evenodd" d="M3.5 0.75H10.375C12.9293 0.75 15 2.82068 15 5.375C15 6.7343 14.4136 7.95664 13.48 8.80285C14.6995 9.63562 15.5 11.0368 15.5 12.625C15.5 15.1793 13.4293 17.25 10.875 17.25H3.5V0.75ZM10.375 8C11.8247 8 13 6.82475 13 5.375C13 3.92525 11.8247 2.75 10.375 2.75H5.5V8H10.375ZM5.5 10H10.875C12.3247 10 13.5 11.1753 13.5 12.625C13.5 14.0747 12.3247 15.25 10.875 15.25H5.5V10Z" fill="#364141"/>
</svg>
