<svg width="18" height="18" viewBox="0 0 18 18" fill="none" xmlns="http://www.w3.org/2000/svg">
<path fill-rule="evenodd" clip-rule="evenodd" d="M3 12.6397V2.19374C3 1.85246 3.33435 1.61148 3.65811 1.7194L8.68377 3.39462C8.88904 3.46304 9.11096 3.46304 9.31623 3.39462L14.3419 1.7194C14.6657 1.61148 15 1.85246 15 2.19374V12.6397C15 12.8549 14.8623 13.0459 14.6581 13.114L9.31623 14.8946C9.11096 14.963 8.88904 14.963 8.68377 14.8946L3.34189 13.114C3.13772 13.0459 3 12.8549 3 12.6397ZM8.20943 4.81765C8.22293 4.82214 8.23645 4.82652 8.25 4.83079V13.1689L4.5 11.9189V3.58117L8.20943 4.81765ZM9.75 4.83079V13.1689L13.5 11.9189V3.58117L9.79057 4.81765C9.77707 4.82214 9.76355 4.82652 9.75 4.83079Z" fill="#364141"/>
<path d="M0 5.50003V14.2793C0 14.7097 0.27543 15.0918 0.683772 15.228L8.68377 17.8946C8.88904 17.963 9.11096 17.963 9.31623 17.8946L17.3162 15.228C17.7246 15.0918 18 14.7097 18 14.2793V5.50003C18 4.6716 17.3284 4.00003 16.5 4.00003V14L9 16.5L1.5 14V4.00003C0.671573 4.00003 0 4.6716 0 5.50003Z" fill="#364141"/>
</svg>
