<svg width="18" height="18" viewBox="0 0 18 18" fill="none" xmlns="http://www.w3.org/2000/svg">
<path d="M4.5 4.75L13.5 4.75V3.25L4.5 3.25V4.75Z" fill="#364141"/>
<path d="M11 7.75L4.5 7.75001V6.25001L11 6.25L11 7.75Z" fill="#364141"/>
<path fill-rule="evenodd" clip-rule="evenodd" d="M4.5 0.25C2.98122 0.25 1.75 1.48122 1.75 3V15C1.75 16.5188 2.98122 17.75 4.5 17.75H16.25V16.25H15.25V13.75H16.25V0.25H4.5ZM13.75 13.75H4.5C3.80964 13.75 3.25 14.3096 3.25 15C3.25 15.6904 3.80964 16.25 4.5 16.25H13.75V13.75ZM4.5 12.25C4.04989 12.25 3.62503 12.3581 3.25 12.5499V3C3.25 2.30964 3.80964 1.75 4.5 1.75H14.75V12.25H4.5Z" fill="#364141"/>
</svg>
