<svg width="18" height="18" viewBox="0 0 18 18" fill="none" xmlns="http://www.w3.org/2000/svg">
<path d="M3 12.6397V2.19374C3 1.85246 3.33435 1.61148 3.65811 1.7194L8.25 3.25003V14.75L3.34189 13.114C3.13772 13.0459 3 12.8549 3 12.6397Z" fill="#364141"/>
<path d="M9.75 14.75V3.25003L14.3419 1.7194C14.6657 1.61148 15 1.85246 15 2.19374V12.6397C15 12.8549 14.8623 13.0459 14.6581 13.114L9.75 14.75Z" fill="#364141"/>
<path d="M0 5.50006V14.2793C0 14.7097 0.27543 15.0919 0.683772 15.228L8.68377 17.8947C8.88904 17.9631 9.11096 17.9631 9.31623 17.8946L17.3162 15.228C17.7246 15.0919 18 14.7097 18 14.2793V5.50006C18 4.67163 17.3284 4.00006 16.5 4.00006V14.0001L9 16.5001L1.5 14.0001V4.00006C0.671573 4.00006 0 4.67163 0 5.50006Z" fill="#364141"/>
</svg>
