<svg width="18" height="18" viewBox="0 0 18 18" fill="none" xmlns="http://www.w3.org/2000/svg">
<path fill-rule="evenodd" clip-rule="evenodd" d="M3 2.5C3 1.67157 3.67157 1 4.5 1H16.5C17.3284 1 18 1.67157 18 2.5V13.5C18 14.3284 17.3284 15 16.5 15H4.5C3.67157 15 3 14.3284 3 13.5V2.5ZM8.75 5.25V3H7.25V5.25H5V6.75H16V5.25H8.75Z" fill="#364141"/>
<path d="M1.5 15V4C0.671573 4 0 4.67157 0 5.5V16C0 17.1046 0.89543 18 2 18H12.5C13.3284 18 14 17.3284 14 16.5H3C2.17157 16.5 1.5 15.8284 1.5 15Z" fill="#364141"/>
</svg>
