<svg width="18" height="18" viewBox="0 0 18 18" fill="none" xmlns="http://www.w3.org/2000/svg">
<path d="M2.75 6.30005H6V4.80005H2.75V6.30005Z" fill="#364141"/>
<path d="M2.75 9H6V7.5H2.75V9Z" fill="#364141"/>
<path d="M2.75 11.75H6V10.25H2.75V11.75Z" fill="#364141"/>
<path fill-rule="evenodd" clip-rule="evenodd" d="M1.5 2C0.671573 2 0 2.67157 0 3.5V14.5C0 15.3284 0.671573 16 1.5 16H16.5C17.3284 16 18 15.3284 18 14.5V3.5C18 2.67157 17.3284 2 16.5 2H1.5ZM16.5 3.5H8.75V14.5H16.5V3.5ZM1.5 14.5H7.25V3.5H1.5L1.5 14.5Z" fill="#364141"/>
</svg>
