<svg width="24" height="24" viewBox="0 0 24 24" fill="none" xmlns="http://www.w3.org/2000/svg">
<path d="M19.5 11.9999C19.5 16.1421 16.1421 19.4999 12 19.4999C7.85786 19.4999 4.5 16.1421 4.5 11.9999C4.5 7.8578 7.85786 4.49994 12 4.49994L13.3929 3.10707C12.9389 3.03654 12.4737 2.99994 12 2.99994C7.02944 2.99994 3 7.02938 3 11.9999C3 16.9705 7.02944 20.9999 12 20.9999C16.9706 20.9999 21 16.9705 21 11.9999C21 11.5262 20.9634 11.061 20.8929 10.6071L19.5 11.9999Z" fill="#364141"/>
<path fill-rule="evenodd" clip-rule="evenodd" d="M14.0607 10.9999H16.8572C17.4071 10.9999 17.9328 10.7735 18.3106 10.3739L20.8215 7.71769C21.1307 7.39063 20.9831 6.85224 20.5503 6.7286L18 5.99994L17.2801 3.48041C17.1545 3.04053 16.6025 2.89749 16.279 3.22098L13.5858 5.91415C13.2107 6.28923 13 6.79793 13 7.32837V9.93928L11.4697 11.4696C11.1768 11.7625 11.1768 12.2374 11.4697 12.5303C11.7626 12.8232 12.2374 12.8232 12.5303 12.5303L14.0607 10.9999ZM16.7866 7.21329L18.7137 7.76388L17.2205 9.34342C17.1261 9.44333 16.9947 9.49994 16.8572 9.49994H14.5V7.32837C14.5 7.19576 14.5527 7.06858 14.6464 6.97481L16.2581 5.36321L16.7866 7.21329Z" fill="#364141"/>
<path d="M7 11.9999C7 9.58097 8.71776 7.56322 11 7.09995V8.64487C9.55426 9.07514 8.5 10.4144 8.5 11.9999C8.5 13.9329 10.067 15.4999 12 15.4999C13.5855 15.4999 14.9248 14.4457 15.3551 12.9999H16.9C16.4367 15.2822 14.419 16.9999 12 16.9999C9.23858 16.9999 7 14.7614 7 11.9999Z" fill="#364141"/>
</svg>
