<svg width="24" height="24" viewBox="0 0 24 24" fill="none" xmlns="http://www.w3.org/2000/svg">
<path d="M18.9811 12.5189C18.7155 16.1425 15.6914 18.9999 12 18.9999C8.13401 18.9999 5 15.8659 5 11.9999C5 8.30849 7.8574 5.28443 11.4811 5.01888L13.3929 3.10707C12.9389 3.03654 12.4737 2.99994 12 2.99994C7.02944 2.99994 3 7.02938 3 11.9999C3 16.9705 7.02944 20.9999 12 20.9999C16.9706 20.9999 21 16.9705 21 11.9999C21 11.5262 20.9634 11.061 20.8929 10.6071L18.9811 12.5189Z" fill="#364141"/>
<path d="M16.279 3.22098L13.5858 5.91415C13.2107 6.28923 13 6.79793 13 7.32837V9.58573L11.2929 11.2928C10.9024 11.6834 10.9024 12.3165 11.2929 12.707C11.6834 13.0976 12.3166 13.0976 12.7071 12.707L14.4142 10.9999H16.8572C17.4071 10.9999 17.9328 10.7735 18.3106 10.3739L20.8215 7.71769C21.1307 7.39063 20.9831 6.85224 20.5503 6.7286L18 5.99994L17.2801 3.48041C17.1545 3.04053 16.6025 2.89749 16.279 3.22098Z" fill="#364141"/>
<path d="M7 11.9999C7 9.58097 8.71776 7.56322 11 7.09995V9.17063C9.83481 9.58247 9 10.6937 9 11.9999C9 13.6568 10.3431 14.9999 12 14.9999C13.3062 14.9999 14.4175 14.1651 14.8293 12.9999H16.9C16.4367 15.2822 14.419 16.9999 12 16.9999C9.23858 16.9999 7 14.7614 7 11.9999Z" fill="#364141"/>
</svg>
