<svg width="18" height="18" viewBox="0 0 18 18" fill="none" xmlns="http://www.w3.org/2000/svg">
<path fill-rule="evenodd" clip-rule="evenodd" d="M2.5 1C1.67157 1 1 1.67157 1 2.5V15.5C1 16.3284 1.67157 17 2.5 17H15.5C16.3284 17 17 16.3284 17 15.5V2.5C17 1.67157 16.3284 1 15.5 1H2.5ZM4 4.5C4 4.22386 4.22386 4 4.5 4H13.5C13.7761 4 14 4.22386 14 4.5V6.5C14 6.77614 13.7761 7 13.5 7H4.5C4.22386 7 4 6.77614 4 6.5V4.5ZM10.75 10.5H8.25V9H10.75V10.5ZM4 10.5H6.5V9H4V10.5ZM10.75 14H8.25V12.5H10.75V14ZM12.25 9V14H13.75V9H12.25ZM6.5 14H4V12.5H6.5V14Z" fill="#364141"/>
</svg>
