<svg width="18" height="18" viewBox="0 0 18 18" fill="none" xmlns="http://www.w3.org/2000/svg">
<path fill-rule="evenodd" clip-rule="evenodd" d="M5.5 4C4.67157 4 4 4.67157 4 5.5V7C4 7.82843 4.67157 8.5 5.5 8.5H12.5C13.3284 8.5 14 7.82843 14 7V5.5C14 4.67157 13.3284 4 12.5 4H5.5ZM12.5 5.5H5.5V7H12.5V5.5Z" fill="#364141"/>
<path d="M8 11.25H10V9.75H8V11.25Z" fill="#364141"/>
<path d="M4.5 11.25V9.75H6.5V11.25H4.5Z" fill="#364141"/>
<path d="M8 14.25H10V12.75H8V14.25Z" fill="#364141"/>
<path d="M11.75 14.25V9.75H13.25V14.25H11.75Z" fill="#364141"/>
<path d="M4.5 12.75V14.25H6.5V12.75H4.5Z" fill="#364141"/>
<path fill-rule="evenodd" clip-rule="evenodd" d="M2.5 1C1.67157 1 1 1.67157 1 2.5V15.5C1 16.3284 1.67157 17 2.5 17H15.5C16.3284 17 17 16.3284 17 15.5V2.5C17 1.67157 16.3284 1 15.5 1H2.5ZM15.5 2.5H2.5V15.5H15.5V2.5Z" fill="#364141"/>
</svg>
