<svg width="18" height="18" viewBox="0 0 18 18" fill="none" xmlns="http://www.w3.org/2000/svg">
<path fill-rule="evenodd" clip-rule="evenodd" d="M11.25 2H5.75V0H4.25V2H2.5C1.67157 2 1 2.67157 1 3.5V14.5C1 15.2249 1.51417 15.8297 2.1977 15.9695C2.29534 15.9895 2.39645 16 2.5 16H7.23221C6.76443 15.1025 6.5 14.0821 6.5 13C6.5 9.41015 9.41015 6.5 13 6.5C14.0821 6.5 15.1025 6.76443 16 7.23221V3.5C16 2.67157 15.3284 2 14.5 2H12.75V0H11.25V2ZM3 6V4H14V6H3Z" fill="#364141"/>
<path fill-rule="evenodd" clip-rule="evenodd" d="M18 13C18 15.7614 15.7614 18 13 18C10.2386 18 8 15.7614 8 13C8 10.2386 10.2386 8 13 8C15.7614 8 18 10.2386 18 13ZM12.1893 12.75L13.9697 10.9697L15.0303 12.0303L12.8107 14.25H11V12.75H12.1893Z" fill="#364141"/>
</svg>
