<svg width="18" height="18" viewBox="0 0 18 18" fill="none" xmlns="http://www.w3.org/2000/svg">
<path d="M13.9697 10.9697L12.1893 12.75H11V14.25H12.8107L15.0303 12.0303L13.9697 10.9697Z" fill="#364141"/>
<path fill-rule="evenodd" clip-rule="evenodd" d="M5.75 2H11.25V0H12.75V2H14.5C15.3284 2 16 2.67157 16 3.5V8.99963C17.2144 9.91184 18 11.3642 18 13C18 15.7614 15.7614 18 13 18C11.3642 18 9.91184 17.2144 8.99963 16H2.5C1.67157 16 1 15.3284 1 14.5V3.5C1 2.67157 1.67157 2 2.5 2H4.25V0H5.75V2ZM14.5 6.75V8.2289C14.0265 8.08018 13.5226 8 13 8C10.2386 8 8 10.2386 8 13C8 13.5226 8.08018 14.0265 8.2289 14.5H2.5V6.75H14.5ZM2.5 5.25H14.5V3.5H2.5V5.25ZM13 16.5C14.933 16.5 16.5 14.933 16.5 13C16.5 11.067 14.933 9.5 13 9.5C11.067 9.5 9.5 11.067 9.5 13C9.5 14.933 11.067 16.5 13 16.5Z" fill="#364141"/>
</svg>
