<svg width="18" height="18" viewBox="0 0 18 18" fill="none" xmlns="http://www.w3.org/2000/svg">
<path fill-rule="evenodd" clip-rule="evenodd" d="M5.75 2H12.25V0H13.75V2H15.5C16.3284 2 17 2.67157 17 3.5V15.5C17 16.3284 16.3284 17 15.5 17H2.5C1.67157 17 1 16.3284 1 15.5V3.5C1 2.67157 1.67157 2 2.5 2H4.25V0H5.75V2ZM3 4V6H15V4H3ZM3 8.75001V10.25H5.5V8.75001H3ZM10.25 10.25H7.75V8.75001H10.25V10.25ZM15 8.75001V10.25H12.5V8.75001H15ZM10.25 14H7.75V12.5H10.25V14ZM12.5 12.5V14H15V12.5H12.5ZM5.5 14H3V12.5H5.5V14Z" fill="#364141"/>
</svg>
