<svg width="18" height="18" viewBox="0 0 18 18" fill="none" xmlns="http://www.w3.org/2000/svg">
<path d="M10 10H8V8.5H10V10Z" fill="#364141"/>
<path d="M11.5 10H13.5V8.5H11.5V10Z" fill="#364141"/>
<path d="M6.5 10H4.5V8.5H6.5V10Z" fill="#364141"/>
<path d="M8 13.75H10V12.25H8V13.75Z" fill="#364141"/>
<path d="M13.5 13.75H11.5V12.25H13.5V13.75Z" fill="#364141"/>
<path d="M4.5 13.75H6.5V12.25H4.5V13.75Z" fill="#364141"/>
<path fill-rule="evenodd" clip-rule="evenodd" d="M12.25 2H5.75V0H4.25V2H2.5C1.67157 2 1 2.67157 1 3.5V15.5C1 16.3284 1.67157 17 2.5 17H15.5C16.3284 17 17 16.3284 17 15.5V3.5C17 2.67157 16.3284 2 15.5 2H13.75V0H12.25V2ZM2.5 3.5H15.5V5.25H2.5V3.5ZM15.5 6.75V15.5H2.5V6.75H15.5Z" fill="#364141"/>
</svg>
