<svg width="18" height="18" viewBox="0 0 18 18" fill="none" xmlns="http://www.w3.org/2000/svg">
<path fill-rule="evenodd" clip-rule="evenodd" d="M1.5 4C0.671573 4 0 4.67157 0 5.5V15.5C0 16.3284 0.671573 17 1.5 17H16.5C17.3284 17 18 16.3284 18 15.5V5.5C18 4.67157 17.3284 4 16.5 4H14.75C14.5926 4 14.4444 3.9259 14.35 3.8L12.85 1.8C12.4723 1.29639 11.8795 1 11.25 1H6.93675C6.34319 1 5.7803 1.26365 5.40031 1.71963L3.64992 3.82009C3.55493 3.93409 3.4142 4 3.26581 4H1.5ZM5.96967 7.53033L7.93934 9.5L5.96967 11.4697L7.03033 12.5303L9 10.5607L10.9697 12.5303L12.0303 11.4697L10.0607 9.5L12.0303 7.53033L10.9697 6.46967L9 8.43934L7.03033 6.46967L5.96967 7.53033Z" fill="#364141"/>
</svg>
