<svg width="18" height="18" viewBox="0 0 18 18" fill="none" xmlns="http://www.w3.org/2000/svg">
<path d="M11.5 9.5C11.5 10.8807 10.3807 12 9 12C7.61929 12 6.5 10.8807 6.5 9.5C6.5 8.11929 7.61929 7 9 7C10.3807 7 11.5 8.11929 11.5 9.5Z" fill="#364141"/>
<path fill-rule="evenodd" clip-rule="evenodd" d="M1.5 4C0.671573 4 0 4.67157 0 5.5V15.5C0 16.3284 0.671573 17 1.5 17H16.5C17.3284 17 18 16.3284 18 15.5V5.5C18 4.67157 17.3284 4 16.5 4H14.75C14.5926 4 14.4444 3.9259 14.35 3.8L12.85 1.8C12.4723 1.29639 11.8795 1 11.25 1H6.93675C6.34319 1 5.7803 1.26365 5.40031 1.71963L3.64992 3.82009C3.55493 3.93409 3.4142 4 3.26581 4H1.5ZM13 9.5C13 11.7091 11.2091 13.5 9 13.5C6.79086 13.5 5 11.7091 5 9.5C5 7.29086 6.79086 5.5 9 5.5C11.2091 5.5 13 7.29086 13 9.5Z" fill="#364141"/>
</svg>
