<svg width="18" height="18" viewBox="0 0 18 18" fill="none" xmlns="http://www.w3.org/2000/svg">
<path fill-rule="evenodd" clip-rule="evenodd" d="M1.5 4C0.671573 4 0 4.67157 0 5.5V15.5C0 16.3284 0.671573 17 1.5 17H16.5C17.3284 17 18 16.3284 18 15.5V5.5C18 4.67157 17.3284 4 16.5 4H14.75C14.5926 4 14.4444 3.9259 14.35 3.8L12.85 1.8C12.4723 1.29639 11.8795 1 11.25 1H6.93675C6.34319 1 5.7803 1.26365 5.40031 1.71963L3.64992 3.82009C3.55493 3.93409 3.4142 4 3.26581 4H1.5ZM9 7C9.36125 7 9.7182 7.07829 10.0463 7.22948C10.3744 7.38066 10.6658 7.60116 10.9005 7.87578C11.1352 8.1504 11.3076 8.47262 11.4058 8.82026C11.504 9.1679 11.5258 9.53269 11.4695 9.88953C11.4132 10.2464 11.2802 10.5868 11.0798 10.8873C10.8793 11.1878 10.6161 11.4413 10.3083 11.6304C10.0004 11.8194 9.65528 11.9395 9.29659 11.9823C8.93799 12.0252 8.57437 11.9898 8.23075 11.8787L7.76873 13.3058C8.25844 13.4642 8.77355 13.5265 9.28576 13.4898C9.34874 13.4853 9.41169 13.4793 9.47454 13.4718C10.0485 13.4032 10.6007 13.211 11.0932 12.9086C11.5858 12.6061 12.0069 12.2005 12.3276 11.7197C12.6484 11.2388 12.8611 10.6942 12.9511 10.1232C13.0412 9.55231 13.0065 8.96864 12.8493 8.41242C12.6922 7.8562 12.4163 7.34064 12.0408 6.90125C11.6653 6.46185 11.199 6.10906 10.6741 5.86716C10.6166 5.84067 10.5585 5.81558 10.5 5.7919C10.024 5.59933 9.5147 5.5 9 5.5V7ZM6.62134 10.2694C6.7431 10.6458 6.95247 10.988 7.23223 11.2678L6.17157 12.3284C5.8074 11.9642 5.51752 11.5336 5.31732 11.0614C5.27152 10.9533 5.23041 10.8431 5.19414 10.731C5.15788 10.6189 5.12667 10.5055 5.10053 10.3912C4.98628 9.89122 4.96899 9.37286 5.05082 8.86439L6.53182 9.10239C6.46899 9.49286 6.49962 9.8931 6.62134 10.2694ZM6.92776 8.1015C7.16364 7.75197 7.48411 7.46779 7.85933 7.27539L7.86024 7.27493L7.17639 5.93988C7.0343 6.01266 6.89712 6.09367 6.76547 6.18234C6.47193 6.38004 6.20592 6.61584 5.97442 6.88353C5.8706 7.00359 5.77372 7.13007 5.68441 7.2624L6.92776 8.1015Z" fill="#364141"/>
</svg>
