<svg width="18" height="18" viewBox="0 0 18 18" fill="none" xmlns="http://www.w3.org/2000/svg">
<path d="M5.96967 7.53033L7.93934 9.5L5.96967 11.4697L7.03033 12.5303L9 10.5607L10.9697 12.5303L12.0303 11.4697L10.0607 9.5L12.0303 7.53033L10.9697 6.46967L9 8.43934L7.03033 6.46967L5.96967 7.53033Z" fill="#364141"/>
<path fill-rule="evenodd" clip-rule="evenodd" d="M0 5.5C0 4.67157 0.671573 4 1.5 4H3.26581C3.4142 4 3.55493 3.93409 3.64992 3.82009L5.40031 1.71963C5.7803 1.26365 6.34319 1 6.93675 1H11.25C11.8795 1 12.4723 1.29639 12.85 1.8L14.35 3.8C14.4444 3.9259 14.5926 4 14.75 4H16.5C17.3284 4 18 4.67157 18 5.5V15.5C18 16.3284 17.3284 17 16.5 17H1.5C0.671573 17 0 16.3284 0 15.5V5.5ZM16.5 5.5V15.5H1.5L1.5 5.5L3.26581 5.5C3.85937 5.5 4.42227 5.23635 4.80226 4.78037L6.55264 2.67991C6.64764 2.56591 6.78836 2.5 6.93675 2.5H11.25C11.4074 2.5 11.5556 2.5741 11.65 2.7L13.15 4.7C13.5277 5.20361 14.1205 5.5 14.75 5.5H16.5Z" fill="#364141"/>
</svg>
