<svg width="18" height="18" viewBox="0 0 18 18" fill="none" xmlns="http://www.w3.org/2000/svg">
<path fill-rule="evenodd" clip-rule="evenodd" d="M13 9.5C13 11.7091 11.2091 13.5 9 13.5C6.79086 13.5 5 11.7091 5 9.5C5 7.29086 6.79086 5.5 9 5.5C11.2091 5.5 13 7.29086 13 9.5ZM11.5 9.5C11.5 10.8807 10.3807 12 9 12C7.61929 12 6.5 10.8807 6.5 9.5C6.5 8.11929 7.61929 7 9 7C10.3807 7 11.5 8.11929 11.5 9.5Z" fill="#364141"/>
<path fill-rule="evenodd" clip-rule="evenodd" d="M0 5.5C0 4.67157 0.671573 4 1.5 4H3.26581C3.4142 4 3.55493 3.93409 3.64992 3.82009L5.40031 1.71963C5.7803 1.26365 6.34319 1 6.93675 1H11.25C11.8795 1 12.4723 1.29639 12.85 1.8L14.35 3.8C14.4444 3.9259 14.5926 4 14.75 4H16.5C17.3284 4 18 4.67157 18 5.5V15.5C18 16.3284 17.3284 17 16.5 17H1.5C0.671573 17 0 16.3284 0 15.5V5.5ZM16.5 5.5V15.5H1.5L1.5 5.5L3.26581 5.5C3.85937 5.5 4.42227 5.23635 4.80226 4.78037L6.55264 2.67991C6.64764 2.56591 6.78836 2.5 6.93675 2.5H11.25C11.4074 2.5 11.5556 2.5741 11.65 2.7L13.15 4.7C13.5277 5.20361 14.1205 5.5 14.75 5.5H16.5Z" fill="#364141"/>
</svg>
