<svg width="18" height="18" viewBox="0 0 18 18" fill="none" xmlns="http://www.w3.org/2000/svg">
<path fill-rule="evenodd" clip-rule="evenodd" d="M4.5 2C3.67157 2 3 2.67157 3 3.5V14.5C3 15.3284 3.67157 16 4.5 16H13.5C14.3284 16 15 15.3284 15 14.5V3.5C15 2.67157 14.3284 2 13.5 2H4.5ZM13.5 3.5H4.5V14.5H13.5V3.5Z" fill="#364141"/>
<path d="M16.5 12.9982C17.3283 12.9982 18 12.3267 18 11.4982V6.5C18 5.67157 17.3284 5 16.5 5V12.9982Z" fill="#364141"/>
<path d="M0 6.50002C0 5.70519 0.618197 5.05475 1.4 5.0033V12.9949C0.61809 12.9435 0 12.2929 0 11.4982V6.50002Z" fill="#364141"/>
</svg>
