<svg width="18" height="18" viewBox="0 0 18 18" fill="none" xmlns="http://www.w3.org/2000/svg">
<path d="M14 0V2.5H11.5V4H14V6.5H15.5V4H18V2.5H15.5V0H14Z" fill="#364141"/>
<path d="M2.65111 2.75H1V0.75H2.65111C3.76082 0.75 4.71533 1.47672 5.03632 2.5H9V3C9 6.31371 11.6863 9 15 9H15.1011C14.8934 9.58878 14.333 10 13.6867 10H5.8833L6.14926 12.5H13.25C14.4926 12.5 15.5 13.5074 15.5 14.75C15.5 15.9926 14.4926 17 13.25 17C12.0074 17 11 15.9926 11 14.75C11 14.6655 11.0047 14.5821 11.0137 14.5H6.48627C6.49534 14.5821 6.5 14.6655 6.5 14.75C6.5 15.9926 5.49264 17 4.25 17C3.00736 17 2 15.9926 2 14.75C2 13.5448 2.94753 12.561 4.13826 12.5027L3.1483 3.19711C3.12126 2.94287 2.90678 2.75 2.65111 2.75Z" fill="#364141"/>
</svg>
