<svg width="18" height="18" viewBox="0 0 18 18" fill="none" xmlns="http://www.w3.org/2000/svg">
<path d="M14 0V2.5H11.5V4H14V6.5H15.5V4H18V2.5H15.5V0H14Z" fill="#364141"/>
<path fill-rule="evenodd" clip-rule="evenodd" d="M1 2.5H2.65421C3.03705 2.5 3.35845 2.78835 3.39982 3.16896L4.41471 12.5059C4.36032 12.502 4.30539 12.5 4.25 12.5C3.00736 12.5 2 13.5074 2 14.75C2 15.9926 3.00736 17 4.25 17C5.49264 17 6.5 15.9926 6.5 14.75C6.5 14.487 6.45488 14.2346 6.37197 14H11.128C11.0451 14.2346 11 14.487 11 14.75C11 15.9926 12.0074 17 13.25 17C14.4926 17 15.5 15.9926 15.5 14.75C15.5 13.5074 14.4926 12.5 13.25 12.5H5.9229L5.73268 10.75H12.9793C14.0792 10.75 15.0179 9.95482 15.1987 8.8699L15.2398 8.6233L13.7602 8.3767L13.7191 8.6233C13.6588 8.98494 13.3459 9.25 12.9793 9.25H5.56963L4.99898 4H9.5V2.5H4.7759C4.46483 1.61858 3.62543 1 2.65421 1H1V2.5ZM12.5 14.75C12.5 14.3358 12.8358 14 13.25 14C13.6642 14 14 14.3358 14 14.75C14 15.1642 13.6642 15.5 13.25 15.5C12.8358 15.5 12.5 15.1642 12.5 14.75ZM5 14.75C5 15.1642 4.66421 15.5 4.25 15.5C3.83579 15.5 3.5 15.1642 3.5 14.75C3.5 14.3358 3.83579 14 4.25 14C4.66421 14 5 14.3358 5 14.75Z" fill="#364141"/>
</svg>
