<svg width="18" height="18" viewBox="0 0 18 18" fill="none" xmlns="http://www.w3.org/2000/svg">
<path d="M1 2.75H2.65111C2.90678 2.75 3.12126 2.94287 3.1483 3.19711L4.13826 12.5027C2.94753 12.561 2 13.5448 2 14.75C2 15.9926 3.00736 17 4.25 17C5.49264 17 6.5 15.9926 6.5 14.75C6.5 14.6655 6.49534 14.5821 6.48627 14.5H11.0137C11.0047 14.5821 11 14.6655 11 14.75C11 15.9926 12.0074 17 13.25 17C14.4926 17 15.5 15.9926 15.5 14.75C15.5 13.5074 14.4926 12.5 13.25 12.5H6.14926L5.8833 10H13.7703C14.4853 10 15.1009 9.49531 15.2412 8.79417L16.3804 3.09806C16.4423 2.78866 16.2056 2.5 15.8901 2.5H5.03632C4.71533 1.47672 3.76082 0.75 2.65111 0.75H1V2.75Z" fill="#364141"/>
</svg>
