<svg width="18" height="18" viewBox="0 0 18 18" fill="none" xmlns="http://www.w3.org/2000/svg">
<path d="M14.5 2C13.6716 2 13 2.67157 13 3.5V14.5C13 15.3284 13.6716 16 14.5 16H16.5C17.3284 16 18 15.3284 18 14.5V3.5C18 2.67157 17.3284 2 16.5 2H14.5Z" fill="#364141"/>
<path d="M6.5 6.5C6.5 5.67157 7.17157 5 8 5H10C10.8284 5 11.5 5.67157 11.5 6.5V14.5C11.5 15.3284 10.8284 16 10 16H8C7.17157 16 6.5 15.3284 6.5 14.5V6.5Z" fill="#364141"/>
<path d="M0 9.5C0 8.67157 0.671573 8 1.5 8H3.5C4.32843 8 5 8.67157 5 9.5V14.5C5 15.3284 4.32843 16 3.5 16H1.5C0.671573 16 0 15.3284 0 14.5V9.5Z" fill="#364141"/>
</svg>
