<svg width="18" height="18" viewBox="0 0 18 18" fill="none" xmlns="http://www.w3.org/2000/svg">
<path fill-rule="evenodd" clip-rule="evenodd" d="M14 2C13.1716 2 12.5 2.67157 12.5 3.5V13H17V3.5C17 2.67157 16.3284 2 15.5 2H14ZM15.5 3.5H14V11.5H15.5V3.5Z" fill="#364141"/>
<path fill-rule="evenodd" clip-rule="evenodd" d="M1 8.5C1 7.67157 1.67157 7 2.5 7H4C4.82843 7 5.5 7.67157 5.5 8.5V13H1V8.5ZM2.5 8.5H4V11.5H2.5V8.5Z" fill="#364141"/>
<path d="M0 16H18V14.5H0V16Z" fill="#364141"/>
<path fill-rule="evenodd" clip-rule="evenodd" d="M6.75 6C6.75 5.17157 7.42157 4.5 8.25 4.5H9.75C10.5784 4.5 11.25 5.17157 11.25 6V13H6.75V6ZM8.25 6H9.75V11.5H8.25V6Z" fill="#364141"/>
</svg>
