<svg width="18" height="18" viewBox="0 0 18 18" fill="none" xmlns="http://www.w3.org/2000/svg">
<path fill-rule="evenodd" clip-rule="evenodd" d="M13 3.5C13 2.67157 13.6716 2 14.5 2H16.5C17.3284 2 18 2.67157 18 3.5V14.5C18 15.3284 17.3284 16 16.5 16H14.5C13.6716 16 13 15.3284 13 14.5V3.5ZM14.5 3.5H16.5V14.5H14.5V3.5Z" fill="#364141"/>
<path fill-rule="evenodd" clip-rule="evenodd" d="M8 5C7.17157 5 6.5 5.67157 6.5 6.5V14.5C6.5 15.3284 7.17157 16 8 16H10C10.8284 16 11.5 15.3284 11.5 14.5V6.5C11.5 5.67157 10.8284 5 10 5H8ZM10 6.5H8V14.5H10V6.5Z" fill="#364141"/>
<path fill-rule="evenodd" clip-rule="evenodd" d="M1.5 8C0.671573 8 0 8.67157 0 9.5V14.5C0 15.3284 0.671573 16 1.5 16H3.5C4.32843 16 5 15.3284 5 14.5V9.5C5 8.67157 4.32843 8 3.5 8H1.5ZM3.5 9.5H1.5V14.5H3.5V9.5Z" fill="#364141"/>
</svg>
