<svg width="21" height="18" viewBox="0 0 21 18" fill="none" xmlns="http://www.w3.org/2000/svg">
<path fill-rule="evenodd" clip-rule="evenodd" d="M17 9C17 13.6944 13.1944 17.5 8.5 17.5C3.80558 17.5 0 13.6944 0 9C0 4.30558 3.80558 0.5 8.5 0.5C13.1944 0.5 17 4.30558 17 9ZM11.4697 5.96967L12.5303 7.03033L7 12.5607L3.96967 9.53033L5.03033 8.46967L7 10.4393L11.4697 5.96967Z" fill="#364141"/>
<path d="M18.5 9C18.5 12.159 17.0352 14.9759 14.7477 16.8085C18.3255 16.0113 21 12.818 21 9C21 5.18204 18.3255 1.98875 14.7477 1.19148C17.0352 3.02409 18.5 5.84098 18.5 9Z" fill="#364141"/>
</svg>
