<svg width="22" height="18" viewBox="0 0 22 18" fill="none" xmlns="http://www.w3.org/2000/svg">
<path d="M17 8.00011V3.81077L15.2803 5.53044L14.2197 4.46978L17.75 0.939453L21.2803 4.46978L20.2197 5.53044L18.5 3.81077V8.00011H17Z" fill="#364141"/>
<path d="M17.4291 10.5001C16.9439 13.8924 14.0265 16.5001 10.5 16.5001C6.63401 16.5001 3.5 13.3661 3.5 9.50011C3.5 5.63412 6.63401 2.50011 10.5 2.50011C11.2539 2.50011 11.9799 2.61928 12.6603 2.83982L13.825 1.67507C12.8037 1.24054 11.6799 1.00011 10.5 1.00011C5.80558 1.00011 2 4.80569 2 9.50011C2 14.1945 5.80558 18.0001 10.5 18.0001C14.8561 18.0001 18.4469 14.7233 18.9418 10.5001H17.4291Z" fill="#364141"/>
<path d="M9.75 5.56824V4.00011H11.25V5.60791C12.3958 5.87237 13.25 6.89898 13.25 8.12511H11.75C11.75 7.5268 11.265 7.04178 10.6667 7.04178H10.1042C9.63242 7.04178 9.25 7.4242 9.25 7.89595C9.25 8.36769 9.63242 8.75011 10.1042 8.75011H10.8958C12.196 8.75011 13.25 9.80411 13.25 11.1043C13.25 12.2841 12.3821 13.2612 11.25 13.432V15.0001H9.75V13.4548C8.63458 13.3901 7.75 12.4651 7.75 11.3334H9.25C9.25 11.6786 9.52982 11.9584 9.875 11.9584H10.8958C11.3676 11.9584 11.75 11.576 11.75 11.1043C11.75 10.6325 11.3676 10.2501 10.8958 10.2501H10.1042C8.804 10.2501 7.75 9.19612 7.75 7.89595C7.75 6.71616 8.61786 5.73906 9.75 5.56824Z" fill="#364141"/>
</svg>
