<svg width="21" height="18" viewBox="0 0 21 18" fill="none" xmlns="http://www.w3.org/2000/svg">
<path d="M12.5303 7.03033L11.4697 5.96967L7 10.4393L5.03033 8.46967L3.96967 9.53033L7 12.5607L12.5303 7.03033Z" fill="#364141"/>
<path fill-rule="evenodd" clip-rule="evenodd" d="M8.5 17.5C9.62003 17.5 10.6895 17.2834 11.6687 16.8897C12.1017 16.9622 12.5464 17 13 17C17.4183 17 21 13.4183 21 9C21 4.58172 17.4183 1 13 1C12.5464 1 12.1017 1.03775 11.6687 1.11027C10.6895 0.716629 9.62003 0.5 8.5 0.5C3.80558 0.5 0 4.30558 0 9C0 13.6944 3.80558 17.5 8.5 17.5ZM8.5 16C12.366 16 15.5 12.866 15.5 9C15.5 5.13401 12.366 2 8.5 2C4.63401 2 1.5 5.13401 1.5 9C1.5 12.866 4.63401 16 8.5 16ZM19.5 9C19.5 12.2212 17.1569 14.8951 14.0821 15.4103C15.8701 13.8521 17 11.558 17 9C17 6.44201 15.8701 4.14793 14.0821 2.58966C17.1569 3.10489 19.5 5.77881 19.5 9Z" fill="#364141"/>
</svg>
