<svg width="22" height="18" viewBox="0 0 22 18" fill="none" xmlns="http://www.w3.org/2000/svg">
<path d="M17 3.81077V8.00011H18.5V3.81077L20.2197 5.53044L21.2803 4.46978L17.75 0.939453L14.2197 4.46978L15.2803 5.53044L17 3.81077Z" fill="#364141"/>
<path fill-rule="evenodd" clip-rule="evenodd" d="M18.9928 9.85213C18.5944 9.94885 18.1782 10.0001 17.75 10.0001C14.8505 10.0001 12.5 7.64961 12.5 4.75011C12.5 3.55549 12.899 2.45407 13.571 1.57183C12.6185 1.20262 11.5829 1.00011 10.5 1.00011C5.80558 1.00011 2 4.80569 2 9.50011C2 14.1945 5.80558 18.0001 10.5 18.0001C15.0765 18.0001 18.8083 14.3833 18.9928 9.85213ZM9.25 4.50012V5.84315C8.12807 5.94813 7.25 6.89242 7.25 8.04179C7.25 9.26142 8.2387 10.2501 9.45833 10.2501H10.5417C10.9329 10.2501 11.25 10.5673 11.25 10.9585C11.25 11.3497 10.9329 11.6668 10.5417 11.6668H9.25C8.97386 11.6668 8.75 11.4429 8.75 11.1668H7.25C7.25 12.2714 8.14543 13.1668 9.25 13.1668V14.5001H10.75V13.1571C11.8719 13.0521 12.75 12.1078 12.75 10.9585C12.75 9.73883 11.7613 8.75012 10.5417 8.75012H9.45833C9.06713 8.75012 8.75 8.43299 8.75 8.04179C8.75 7.65059 9.06713 7.33346 9.45833 7.33346H10.3333C10.8396 7.33346 11.25 7.74386 11.25 8.25012H12.75C12.75 7.05752 11.8861 6.06669 10.75 5.86924V4.50012H9.25Z" fill="#364141"/>
</svg>
