<svg width="18" height="18" viewBox="0 0 18 18" fill="none" xmlns="http://www.w3.org/2000/svg">
<path d="M9 1.75C6.47546 1.75 4.25069 3.0406 2.95208 5H5.45001V7H-0.25V1H1.75V3.25518C3.44387 1.12025 6.06123 -0.25 9 -0.25C14.1086 -0.25 18.25 3.89137 18.25 9C18.25 14.1086 14.1086 18.25 9 18.25C3.89137 18.25 -0.25 14.1086 -0.25 9H1.75C1.75 13.0041 4.99594 16.25 9 16.25C13.0041 16.25 16.25 13.0041 16.25 9C16.25 4.99594 13.0041 1.75 9 1.75Z" fill="#364141"/>
<path d="M8 4V9.41421L11.2929 12.7071L12.7071 11.2929L10 8.58579V4H8Z" fill="#364141"/>
</svg>
