<svg width="18" height="18" viewBox="0 0 18 18" fill="none" xmlns="http://www.w3.org/2000/svg">
<path fill-rule="evenodd" clip-rule="evenodd" d="M1.5 2C0.671573 2 0 2.67157 0 3.5V14.5C0 15.3284 0.671573 16 1.5 16H16.5C17.3284 16 18 15.3284 18 14.5V3.5C18 2.67157 17.3284 2 16.5 2H1.5ZM8.65788 9.7111C8.59838 11.0506 7.61291 12 6.16633 12C4.51149 12 3.5 10.8615 3.5 9.00197V8.99409C3.5 7.1346 4.50778 6 6.16633 6C7.58316 6 8.6021 6.9652 8.65416 8.27315L8.65788 8.36376H7.14807L7.14435 8.32042C7.09601 7.76888 6.70926 7.3631 6.16633 7.3631C5.50811 7.3631 5.10649 7.97374 5.10649 8.99015V8.99803C5.10649 10.0184 5.50811 10.6369 6.17005 10.6369C6.70926 10.6369 7.0737 10.2508 7.14435 9.68746L7.15179 9.62837H8.6616L8.65788 9.7111ZM14.4963 9.7111C14.4368 11.0506 13.4513 12 12.0047 12C10.3499 12 9.3384 10.8615 9.3384 9.00197V8.99409C9.3384 7.1346 10.3462 6 12.0047 6C13.4216 6 14.4405 6.9652 14.4926 8.27315L14.4963 8.36376H12.9865L12.9828 8.32042C12.9344 7.76888 12.5477 7.3631 12.0047 7.3631C11.3465 7.3631 10.9449 7.97374 10.9449 8.99015V8.99803C10.9449 10.0184 11.3465 10.6369 12.0085 10.6369C12.5477 10.6369 12.9121 10.2508 12.9828 9.68746L12.9902 9.62837H14.5L14.4963 9.7111Z" fill="#364141"/>
</svg>
