<svg width="18" height="18" viewBox="0 0 18 18" fill="none" xmlns="http://www.w3.org/2000/svg">
<path fill-rule="evenodd" clip-rule="evenodd" d="M8 2.75C5.65279 2.75 3.75 4.65279 3.75 7V7.87095L3.32855 8.07633C2.24441 8.60463 1.5 9.71609 1.5 11C1.5 12.7949 2.95507 14.25 4.75 14.25H13.75C15.2688 14.25 16.5 13.0188 16.5 11.5C16.5 9.98122 15.2688 8.75 13.75 8.75H12.25V7C12.25 4.65279 10.3472 2.75 8 2.75ZM2.25013 6.96044C2.27141 3.80301 4.83756 1.25 8 1.25C11.1756 1.25 13.75 3.82436 13.75 7V7.25C16.0972 7.25 18 9.15279 18 11.5C18 13.8472 16.0972 15.75 13.75 15.75H4.75C2.12665 15.75 0 13.6234 0 11C0 9.29287 0.900628 7.79727 2.25013 6.96044Z" fill="#364141"/>
</svg>
