<svg width="18" height="18" viewBox="0 0 18 18" fill="none" xmlns="http://www.w3.org/2000/svg">
<path d="M8.25 4.75V7.25H5.75V8.75H8.25V11.25H9.75V8.75H12.25V7.25H9.75V4.75H8.25Z" fill="#364141"/>
<path fill-rule="evenodd" clip-rule="evenodd" d="M1 2.5C1 1.67157 1.67157 1 2.5 1H15.5C16.3284 1 17 1.67157 17 2.5V13.5C17 14.3284 16.3284 15 15.5 15H12.2361C12.0808 15 11.9277 15.0361 11.7889 15.1056L6.72361 17.6382C6.39116 17.8044 6 17.5627 6 17.191V15.15C6 15.0672 5.93284 15 5.85 15H2.5C1.67157 15 1 14.3284 1 13.5V2.5ZM2.5 2.5H15.5V13.5H12.2361C11.848 13.5 11.4652 13.5904 11.118 13.7639L7.5 15.5729V15.15C7.5 14.2387 6.76127 13.5 5.85 13.5H2.5V2.5Z" fill="#364141"/>
</svg>
