<svg width="18" height="18" viewBox="0 0 18 18" fill="none" xmlns="http://www.w3.org/2000/svg">
<path d="M9.23083 4.55498C9.14543 4.34966 8.85457 4.34966 8.76917 4.55498L7.9345 6.56176C7.8985 6.64832 7.8171 6.70747 7.72365 6.71496L5.55716 6.88864C5.3355 6.90641 5.24561 7.18304 5.4145 7.32771L7.06514 8.74166C7.13633 8.80264 7.16743 8.89834 7.14567 8.98953L6.64138 11.1037C6.58978 11.32 6.82509 11.4909 7.01487 11.375L8.86969 10.2421C8.94969 10.1932 9.05031 10.1932 9.13031 10.2421L10.9851 11.375C11.1749 11.4909 11.4102 11.32 11.3586 11.1037L10.8543 8.98953C10.8326 8.89834 10.8637 8.80264 10.9349 8.74166L12.5855 7.32771C12.7544 7.18304 12.6645 6.90641 12.4428 6.88864L10.2764 6.71496C10.1829 6.70747 10.1015 6.64832 10.0655 6.56177L9.23083 4.55498Z" fill="#364141"/>
<path fill-rule="evenodd" clip-rule="evenodd" d="M1 2.5C1 1.67157 1.67157 1 2.5 1H15.5C16.3284 1 17 1.67157 17 2.5V13.5C17 14.3284 16.3284 15 15.5 15H12.2361C12.0808 15 11.9277 15.0361 11.7889 15.1056L6.72361 17.6382C6.39116 17.8044 6 17.5627 6 17.191V15.15C6 15.0672 5.93284 15 5.85 15H2.5C1.67157 15 1 14.3284 1 13.5V2.5ZM2.5 2.5H15.5V13.5H12.2361C11.848 13.5 11.4652 13.5904 11.118 13.7639L7.5 15.5729V15.15C7.5 14.2387 6.76127 13.5 5.85 13.5H2.5V2.5Z" fill="#364141"/>
</svg>
