<svg width="18" height="18" viewBox="0 0 18 18" fill="none" xmlns="http://www.w3.org/2000/svg">
<path fill-rule="evenodd" clip-rule="evenodd" d="M0.542969 1.20694L16.543 17.2069L17.9572 15.7927L16.7175 14.553C16.8953 14.3064 17.0001 14.0037 17.0001 13.6764V3.49996C17.0001 2.67154 16.3285 1.99996 15.5001 1.99996H4.16442L1.95718 -0.207275L0.542969 1.20694ZM8.31399 6.14953L11.1887 9.02425L12.5856 7.82767C12.7545 7.68301 12.6646 7.40638 12.4429 7.38861L10.2764 7.21492C10.183 7.20743 10.1016 7.14829 10.0656 7.06173L9.23092 5.05495C9.14552 4.84962 8.85465 4.84962 8.76926 5.05494L8.31399 6.14953Z" fill="#364141"/>
<path d="M6.64146 11.6036L7.13221 9.54631L5.40427 7.81837C5.4009 7.81518 5.39766 7.81193 5.39452 7.80863L1.00237 3.41646C1.00085 3.4441 1.00009 3.47194 1.00009 3.49996V13.6764C1.00009 14.5049 1.67166 15.1764 2.50009 15.1764H5.85009C5.93293 15.1764 6.00009 15.2436 6.00009 15.3264V17.2121C6.00009 17.5786 6.38136 17.8205 6.71298 17.6645L11.7978 15.2716C11.931 15.2089 12.0764 15.1764 12.2236 15.1764H12.7623L8.5334 10.9475L7.01495 11.875C6.82518 11.9909 6.58987 11.8199 6.64146 11.6036Z" fill="#364141"/>
</svg>
