<svg width="18" height="18" viewBox="0 0 18 18" fill="none" xmlns="http://www.w3.org/2000/svg">
<path fill-rule="evenodd" clip-rule="evenodd" d="M0.469727 1.03039L16.4697 17.0304L17.5304 15.9697L16.4212 14.8605C16.7735 14.586 17.0001 14.1578 17.0001 13.6766V3.50011C17.0001 2.67169 16.3285 2.00011 15.5001 2.00011H3.56077L1.53039 -0.0302734L0.469727 1.03039ZM5.06077 3.50011L8.13665 6.57599L8.76922 5.05509C8.85462 4.84977 9.14548 4.84977 9.23088 5.0551L10.0656 7.06188C10.1016 7.14844 10.183 7.20758 10.2764 7.21507L12.4429 7.38876C12.6646 7.40653 12.7544 7.68316 12.5856 7.82782L10.9349 9.24177C10.9104 9.26277 10.8906 9.28788 10.8762 9.3155L15.2372 13.6766H15.5001V3.50011L5.06077 3.50011Z" fill="#364141"/>
<path d="M2.50005 13.6766V4.91433L1.00234 3.41661C1.00082 3.44425 1.00005 3.47209 1.00005 3.50011V13.6766C1.00005 14.505 1.67163 15.1766 2.50005 15.1766H5.85005C5.93289 15.1766 6.00005 15.2437 6.00005 15.3266V17.2122C6.00005 17.5787 6.38133 17.8207 6.71295 17.6646L11.7978 15.2718C11.931 15.2091 12.0764 15.1766 12.2236 15.1766H12.7623L11.4014 13.8157C11.3191 13.8443 11.2382 13.8773 11.1591 13.9145L7.50005 15.6364V15.3266C7.50005 14.4153 6.76132 13.6766 5.85005 13.6766H2.50005Z" fill="#364141"/>
<path d="M5.40423 7.81852L5.39449 7.80877C5.39762 7.81208 5.40087 7.81533 5.40423 7.81852Z" fill="#364141"/>
<path d="M8.53337 10.9477L7.13217 9.54646L6.64143 11.6038C6.58983 11.8201 6.82514 11.991 7.01492 11.8751L8.53337 10.9477Z" fill="#364141"/>
</svg>
