<svg width="18" height="18" viewBox="0 0 18 18" fill="none" xmlns="http://www.w3.org/2000/svg">
<path fill-rule="evenodd" clip-rule="evenodd" d="M2.5 1C1.67157 1 1 1.67157 1 2.5V13.5C1 14.3284 1.67157 15 2.5 15H5.85C5.93284 15 6 15.0672 6 15.15V17.191C6 17.5627 6.39116 17.8044 6.72361 17.6382L11.7889 15.1056C11.9277 15.0361 12.0808 15 12.2361 15H15.5C16.3284 15 17 14.3284 17 13.5V2.5C17 1.67157 16.3284 1 15.5 1H2.5ZM8.25 4.75V7.25H5.75V8.75H8.25V11.25H9.75V8.75H12.25V7.25H9.75V4.75H8.25Z" fill="#364141"/>
</svg>
