<svg width="18" height="18" viewBox="0 0 18 18" fill="none" xmlns="http://www.w3.org/2000/svg">
<path d="M0.999819 4.75C0.999819 3.09315 2.34296 1.75 3.99982 1.75H4.49982V3.75H3.99982C3.44753 3.75 2.99982 4.19772 2.99982 4.75V6.9914C2.99982 7.75305 2.71271 8.46224 2.2282 9C2.71271 9.53777 2.99982 10.2469 2.99982 11.0086V13.25C2.99982 13.8023 3.44753 14.25 3.99982 14.25H4.49982V16.25H3.99982C2.34296 16.25 0.999819 14.9069 0.999819 13.25V11.0086C0.999819 10.5621 0.703841 10.1697 0.27454 10.0471L-0.0249023 9.96152V8.03848L0.27454 7.95292C0.703841 7.83026 0.999819 7.43788 0.999819 6.9914V4.75Z" fill="#364141"/>
<path d="M7.99982 8V5.75H9.99982V8H12.2498V10H9.99982V12.25H7.99982V10H5.74982V8H7.99982Z" fill="#364141"/>
<path d="M13.9998 1.75C15.6567 1.75 16.9998 3.09315 16.9998 4.75V6.9914C16.9998 7.43788 17.2958 7.83026 17.7251 7.95292L18.0245 8.03848V9.96152L17.7251 10.0471C17.2958 10.1697 16.9998 10.5621 16.9998 11.0086V13.25C16.9998 14.9069 15.6567 16.25 13.9998 16.25H13.4998V14.25H13.9998C14.5521 14.25 14.9998 13.8023 14.9998 13.25V11.0086C14.9998 10.2469 15.2869 9.53777 15.7714 9C15.2869 8.46224 14.9998 7.75305 14.9998 6.9914V4.75C14.9998 4.19772 14.5521 3.75 13.9998 3.75H13.4998V1.75H13.9998Z" fill="#364141"/>
</svg>
