<svg width="18" height="18" viewBox="0 0 18 18" fill="none" xmlns="http://www.w3.org/2000/svg">
<path d="M1.24999 4.75C1.24999 3.23122 2.4812 2 3.99999 2H4.49999V3.5H3.99999C3.30963 3.5 2.74999 4.05964 2.74999 4.75V6.9914C2.74999 7.77178 2.42119 8.49206 1.87843 9C2.42119 9.50794 2.74999 10.2282 2.74999 11.0086V13.25C2.74999 13.9404 3.30963 14.5 3.99999 14.5H4.49999V16H3.99999C2.4812 16 1.24999 14.7688 1.24999 13.25V11.0086C1.24999 10.4505 0.880014 9.96002 0.343387 9.8067L0.0439453 9.72114V8.27886L0.343387 8.1933C0.880014 8.03998 1.24999 7.5495 1.24999 6.9914V4.75Z" fill="#364141"/>
<path d="M8.24999 8.25V5.75H9.74999V8.25H12.25V9.75H9.74999V12.25H8.24999V9.75H5.74999V8.25H8.24999Z" fill="#364141"/>
<path d="M14 2C15.5188 2 16.75 3.23122 16.75 4.75V6.9914C16.75 7.5495 17.12 8.03998 17.6566 8.1933L17.956 8.27886V9.72114L17.6566 9.8067C17.12 9.96002 16.75 10.4505 16.75 11.0086V13.25C16.75 14.7688 15.5188 16 14 16H13.5V14.5H14C14.6903 14.5 15.25 13.9404 15.25 13.25V11.0086C15.25 10.2282 15.5788 9.50794 16.1215 9C15.5788 8.49206 15.25 7.77178 15.25 6.9914V4.75C15.25 4.05964 14.6903 3.5 14 3.5H13.5V2H14Z" fill="#364141"/>
</svg>
