<svg width="18" height="18" viewBox="0 0 18 18" fill="none" xmlns="http://www.w3.org/2000/svg">
<path d="M12.2981 5.64136L10 7.93946L7.7019 5.64136L6.64124 6.70202L8.93934 9.00012L6.64124 11.2982L7.7019 12.3589L10 10.0608L12.2981 12.3589L13.3588 11.2982L11.0607 9.00012L13.3588 6.70202L12.2981 5.64136Z" fill="#364141"/>
<path fill-rule="evenodd" clip-rule="evenodd" d="M3.56812 2.75579L0 9L3.56812 15.2442C3.83518 15.7116 4.3322 16 4.87048 16H16.5C17.3284 16 18 15.3284 18 14.5V3.5C18 2.67157 17.3284 2 16.5 2H4.87048C4.3322 2 3.83518 2.28843 3.56812 2.75579ZM16.5 14.5H4.87048L1.72763 9L4.87048 3.5L16.5 3.5V14.5Z" fill="#364141"/>
</svg>
