<svg width="18" height="18" viewBox="0 0 18 18" fill="none" xmlns="http://www.w3.org/2000/svg">
<path fill-rule="evenodd" clip-rule="evenodd" d="M16.5 2C17.3284 2 18 2.67157 18 3.5V14.5C18 15.3284 17.3284 16 16.5 16H4.87048C4.3322 16 3.83518 15.7116 3.56812 15.2442L0 9L3.56812 2.75579C3.83518 2.28843 4.3322 2 4.87048 2H16.5ZM12.2981 5.64136L10 7.93946L7.7019 5.64136L6.64124 6.70202L8.93934 9.00012L6.64124 11.2982L7.7019 12.3589L10 10.0608L12.2981 12.3589L13.3588 11.2982L11.0607 9.00012L13.3588 6.70202L12.2981 5.64136Z" fill="#364141"/>
</svg>
