<svg width="24" height="24" viewBox="0 0 24 24" fill="none" xmlns="http://www.w3.org/2000/svg">
<path d="M13.4802 12.5063C12.7454 12.3525 12.366 11.9662 12.366 11.3544C12.366 10.5717 12.9881 10.0932 14.0066 10.0932C15.0286 10.0932 15.6096 10.517 15.6336 11.2792H14.5056C14.4817 11.0741 14.2869 10.9477 14.0032 10.9477C13.7366 10.9477 13.552 11.0741 13.552 11.2519C13.552 11.4125 13.6819 11.5116 13.9724 11.5697L14.6048 11.6928C15.4011 11.8466 15.7464 12.1747 15.7464 12.7694C15.7464 13.5795 15.0867 14.0854 14.0237 14.0854C12.9675 14.0854 12.3421 13.6581 12.301 12.9096H13.4802C13.5178 13.1181 13.7127 13.2309 14.034 13.2309C14.3245 13.2309 14.5091 13.1112 14.5091 12.9301C14.5091 12.7694 14.3963 12.6942 14.0579 12.6259L13.4802 12.5063Z" fill="#364141"/>
<path d="M9.28612 13.9999L8.00438 10.1957H9.30663L9.9663 12.9164H10.0312L10.6772 10.1957H11.9487L10.6807 13.9999H9.28612Z" fill="#364141"/>
<path fill-rule="evenodd" clip-rule="evenodd" d="M20.3507 10.911L13.0317 3.97723C12.4532 3.42914 11.547 3.42914 10.9685 3.97723L3.64954 10.911C3.02502 11.5026 3.02503 12.4972 3.64954 13.0888L10.9685 20.0226C11.547 20.5707 12.4532 20.5707 13.0317 20.0226L20.3507 13.0888C20.9752 12.4972 20.9752 11.5026 20.3507 10.911ZM4.68115 11.9999L12.0001 5.06616L19.3191 11.9999L12.0001 18.9337L4.68115 11.9999Z" fill="#364141"/>
</svg>
