<svg width="18" height="18" viewBox="0 0 18 18" fill="none" xmlns="http://www.w3.org/2000/svg">
<path fill-rule="evenodd" clip-rule="evenodd" d="M8.25 2V0H9.75V2H10C12.0711 2 13.75 3.67893 13.75 5.75V6H12.25V5.75C12.25 4.50736 11.2426 3.5 10 3.5H8C6.75736 3.5 5.75 4.50736 5.75 5.75V6C5.75 7.24264 6.75736 8.25 8 8.25H10C12.0711 8.25 13.75 9.92893 13.75 12V12.25C13.75 14.3211 12.0711 16 10 16H9.75V18H8.25V16H8C5.92893 16 4.25 14.3211 4.25 12.25V12H5.75V12.25C5.75 13.4926 6.75736 14.5 8 14.5H10C11.2426 14.5 12.25 13.4926 12.25 12.25V12C12.25 10.7574 11.2426 9.75 10 9.75H8C5.92893 9.75 4.25 8.07107 4.25 6V5.75C4.25 3.67893 5.92893 2 8 2H8.25Z" fill="#364141"/>
</svg>
