<svg width="18" height="18" viewBox="0 0 18 18" fill="none" xmlns="http://www.w3.org/2000/svg">
<path fill-rule="evenodd" clip-rule="evenodd" d="M8 1.75V0H10V1.75C12.2091 1.75 14 3.54086 14 5.75V6H12V5.75C12 4.64543 11.1046 3.75 10 3.75H8C6.89543 3.75 6 4.64543 6 5.75V6C6 7.10457 6.89543 8 8 8H10C12.2091 8 14 9.79086 14 12V12.25C14 14.4591 12.2091 16.25 10 16.25V18H8V16.25C5.79086 16.25 4 14.4591 4 12.25V12H6V12.25C6 13.3546 6.89543 14.25 8 14.25H10C11.1046 14.25 12 13.3546 12 12.25V12C12 10.8954 11.1046 10 10 10H8C5.79086 10 4 8.20914 4 6V5.75C4 3.54086 5.79086 1.75 8 1.75Z" fill="#364141"/>
</svg>
