<svg width="18" height="18" viewBox="0 0 18 18" fill="none" xmlns="http://www.w3.org/2000/svg">
<path d="M9 4.5C8.0335 4.5 7.25 3.7165 7.25 2.75C7.25 1.7835 8.0335 1 9 1C9.9665 1 10.75 1.7835 10.75 2.75C10.75 3.7165 9.9665 4.5 9 4.5Z" fill="#364141"/>
<path d="M9 10.75C8.0335 10.75 7.25 9.9665 7.25 9C7.25 8.0335 8.0335 7.25 9 7.25C9.9665 7.25 10.75 8.0335 10.75 9C10.75 9.9665 9.9665 10.75 9 10.75Z" fill="#364141"/>
<path d="M7.25 15.25C7.25 16.2165 8.0335 17 9 17C9.9665 17 10.75 16.2165 10.75 15.25C10.75 14.2835 9.9665 13.5 9 13.5C8.0335 13.5 7.25 14.2835 7.25 15.25Z" fill="#364141"/>
</svg>
