<svg width="18" height="18" viewBox="0 0 18 18" fill="none" xmlns="http://www.w3.org/2000/svg">
<path d="M9 4C8.17157 4 7.5 3.32843 7.5 2.5C7.5 1.67157 8.17157 1 9 1C9.82843 1 10.5 1.67157 10.5 2.5C10.5 3.32843 9.82843 4 9 4Z" fill="#364141"/>
<path d="M9 10.5C8.17157 10.5 7.5 9.82843 7.5 9C7.5 8.17157 8.17157 7.5 9 7.5C9.82843 7.5 10.5 8.17157 10.5 9C10.5 9.82843 9.82843 10.5 9 10.5Z" fill="#364141"/>
<path d="M7.5 15.5C7.5 16.3284 8.17157 17 9 17C9.82843 17 10.5 16.3284 10.5 15.5C10.5 14.6716 9.82843 14 9 14C8.17157 14 7.5 14.6716 7.5 15.5Z" fill="#364141"/>
</svg>
