<svg width="18" height="18" viewBox="0 0 18 18" fill="none" xmlns="http://www.w3.org/2000/svg">
<path d="M4.5 9C4.5 9.9665 3.7165 10.75 2.75 10.75C1.7835 10.75 1 9.9665 1 9C1 8.0335 1.7835 7.25 2.75 7.25C3.7165 7.25 4.5 8.0335 4.5 9Z" fill="#364141"/>
<path d="M10.75 9C10.75 9.9665 9.9665 10.75 9 10.75C8.0335 10.75 7.25 9.9665 7.25 9C7.25 8.0335 8.0335 7.25 9 7.25C9.9665 7.25 10.75 8.0335 10.75 9Z" fill="#364141"/>
<path d="M15.25 10.75C16.2165 10.75 17 9.9665 17 9C17 8.0335 16.2165 7.25 15.25 7.25C14.2835 7.25 13.5 8.0335 13.5 9C13.5 9.9665 14.2835 10.75 15.25 10.75Z" fill="#364141"/>
</svg>
