<svg width="18" height="18" viewBox="0 0 18 18" fill="none" xmlns="http://www.w3.org/2000/svg">
<path fill-rule="evenodd" clip-rule="evenodd" d="M0 3.5C0 2.67157 0.671573 2 1.5 2H16.5C17.3284 2 18 2.67157 18 3.5V14.5C18 15.3284 17.3284 16 16.5 16H1.5C0.671573 16 0 15.3284 0 14.5V3.5ZM1.5 3.5H16.5V4.9336L10.2747 9.2135C9.50687 9.74138 8.49313 9.74138 7.72531 9.2135L1.5 4.9336V3.5ZM1.5 6.7539L1.5 14.5H16.5V6.7539L11.1245 10.4496C9.84479 11.3294 8.15521 11.3294 6.87552 10.4496L1.5 6.7539Z" fill="#364141"/>
</svg>
