<svg width="18" height="18" viewBox="0 0 18 18" fill="none" xmlns="http://www.w3.org/2000/svg">
<path d="M5 3.75C4.30964 3.75 3.75 4.30964 3.75 5V5.5H2.25V5C2.25 3.48122 3.48122 2.25 5 2.25C6.51878 2.25 7.75 3.48122 7.75 5V5.5H6.25V5C6.25 4.30964 5.69036 3.75 5 3.75Z" fill="#364141"/>
<path d="M13 3.75C12.3096 3.75 11.75 4.30964 11.75 5V5.5H10.25V5C10.25 3.48122 11.4812 2.25 13 2.25C14.5188 2.25 15.75 3.48122 15.75 5V5.5H14.25V5C14.25 4.30964 13.6904 3.75 13 3.75Z" fill="#364141"/>
<path fill-rule="evenodd" clip-rule="evenodd" d="M2 9C2 9.49619 2.05886 10.0007 2.17363 10.5C2.82536 13.335 5.2801 16 9 16C12.7199 16 15.1746 13.335 15.8264 10.5C15.9411 10.0007 16 9.49619 16 9H2ZM14.2801 10.5C13.6597 12.6177 11.759 14.5 9 14.5C6.24098 14.5 4.3403 12.6177 3.71985 10.5H14.2801Z" fill="#364141"/>
</svg>
