<svg width="18" height="18" viewBox="0 0 18 18" fill="none" xmlns="http://www.w3.org/2000/svg">
<path d="M10.7499 9C10.7499 9.9665 9.96641 10.75 8.99991 10.75C8.03341 10.75 7.24991 9.9665 7.24991 9C7.24991 8.0335 8.03341 7.25 8.99991 7.25C9.96641 7.25 10.7499 8.0335 10.7499 9Z" fill="#364141"/>
<path fill-rule="evenodd" clip-rule="evenodd" d="M0.230041 8.46894C1.03599 6.71975 3.9592 1.25 8.99983 1.25C14.0404 1.25 16.9638 6.71968 17.7698 8.4689C17.9262 8.80822 17.9262 9.19178 17.7698 9.5311C16.9638 11.2803 14.0404 16.75 8.99983 16.75C3.9592 16.75 1.03599 11.2802 0.230042 9.53106C0.0737102 9.19177 0.07371 8.80823 0.230041 8.46894ZM12.2499 9C12.2499 10.7949 10.7948 12.25 8.99991 12.25C7.20498 12.25 5.74991 10.7949 5.74991 9C5.74991 7.20507 7.20498 5.75 8.99991 5.75C10.7948 5.75 12.2499 7.20507 12.2499 9Z" fill="#364141"/>
</svg>
