<svg width="24" height="24" viewBox="0 0 24 24" fill="none" xmlns="http://www.w3.org/2000/svg">
<path fill-rule="evenodd" clip-rule="evenodd" d="M17.5706 17.51C17.8743 17.232 18.1542 16.9417 18.4109 16.6476C19.8085 15.0463 20.5699 13.2796 20.8414 12.5703C20.9823 12.2025 20.9823 11.7975 20.8414 11.4297C20.5699 10.7204 19.8085 8.9537 18.4109 7.3524C17.0065 5.74329 14.91 4.25 12 4.25C9.65881 4.25 7.84421 5.21651 6.49292 6.43228L4.53031 4.46967L3.46965 5.53033L18.4697 20.5303L19.5303 19.4697L17.5706 17.51ZM16.5091 16.4484C16.7856 16.1991 17.0425 15.9343 17.2808 15.6613C18.5132 14.2492 19.1983 12.667 19.4406 12.0341C19.4492 12.0115 19.4492 11.9885 19.4406 11.9659C19.1983 11.333 18.5132 9.75078 17.2808 8.33874C16.0552 6.93451 14.3381 5.75 12 5.75C10.1515 5.75 8.69114 6.49035 7.55495 7.49431L9.90921 9.84857C10.4495 9.3234 11.187 9 12 9C13.6568 9 15 10.3431 15 12C15 12.813 14.6766 13.5505 14.1514 14.0908L16.5091 16.4484ZM13.0905 13.0299L10.9701 10.9094C11.2388 10.6556 11.6012 10.5 12 10.5C12.8284 10.5 13.5 11.1716 13.5 12C13.5 12.3988 13.3444 12.7612 13.0905 13.0299Z" fill="#364141"/>
<path d="M4.55933 11.9659C4.70959 11.5734 5.03013 10.8158 5.5459 9.96015L4.45671 8.87095C3.76178 9.95835 3.3448 10.9429 3.15848 11.4297C3.01765 11.7975 3.01765 12.2025 3.15848 12.5703C3.43001 13.2796 4.1914 15.0463 5.58902 16.6476C6.99344 18.2567 9.08993 19.75 12 19.75C13.0438 19.75 13.9829 19.5579 14.823 19.2372L13.6309 18.0451C13.1243 18.1768 12.5813 18.25 12 18.25C9.66184 18.25 7.94473 17.0655 6.71911 15.6613C5.48669 14.2492 4.80163 12.667 4.55933 12.0341C4.5507 12.0115 4.5507 11.9885 4.55933 11.9659Z" fill="#364141"/>
</svg>
