<svg width="18" height="18" viewBox="0 0 18 18" fill="none" xmlns="http://www.w3.org/2000/svg">
<path fill-rule="evenodd" clip-rule="evenodd" d="M12.0001 9C12.0001 10.6569 10.6569 12 9.00008 12C7.34323 12 6.00008 10.6569 6.00008 9C6.00008 7.34315 7.34323 6 9.00008 6C10.6569 6 12.0001 7.34315 12.0001 9ZM10.5001 9C10.5001 9.82843 9.82851 10.5 9.00008 10.5C8.17166 10.5 7.50008 9.82843 7.50008 9C7.50008 8.17157 8.17166 7.5 9.00008 7.5C9.82851 7.5 10.5001 8.17157 10.5001 9Z" fill="#364141"/>
<path fill-rule="evenodd" clip-rule="evenodd" d="M9.00008 1.25C6.09006 1.25 3.99356 2.74329 2.58914 4.3524C1.19153 5.9537 0.430134 7.72036 0.158597 8.42965C0.0177727 8.79751 0.0177718 9.20249 0.158597 9.57034C0.430134 10.2796 1.19153 12.0463 2.58914 13.6476C3.99356 15.2567 6.09006 16.75 9.00008 16.75C11.9101 16.75 14.0066 15.2567 15.411 13.6476C16.8086 12.0463 17.57 10.2796 17.8416 9.57035C17.9824 9.20249 17.9824 8.79751 17.8416 8.42965C17.57 7.72036 16.8086 5.9537 15.411 4.3524C14.0066 2.74329 11.9101 1.25 9.00008 1.25ZM1.55945 8.96594C1.80175 8.33302 2.48681 6.75078 3.71924 5.33874C4.94485 3.93451 6.66197 2.75 9.00008 2.75C11.3382 2.75 13.0553 3.93451 14.2809 5.33874C15.5134 6.75078 16.1984 8.33302 16.4407 8.96594C16.4493 8.98849 16.4493 9.01151 16.4407 9.03406C16.1984 9.66698 15.5134 11.2492 14.2809 12.6613C13.0553 14.0655 11.3382 15.25 9.00008 15.25C6.66196 15.25 4.94485 14.0655 3.71924 12.6613C2.48681 11.2492 1.80175 9.66698 1.55945 9.03406C1.55082 9.01151 1.55082 8.98849 1.55945 8.96594Z" fill="#364141"/>
</svg>
