<svg width="18" height="18" viewBox="0 0 18 18" fill="none" xmlns="http://www.w3.org/2000/svg">
<path fill-rule="evenodd" clip-rule="evenodd" d="M14.5992 14.185L16.707 16.2929L15.2928 17.7071L0.292832 2.70711L1.70705 1.29289L3.82621 3.41206C5.1875 2.18837 6.91204 1.25 8.99983 1.25C14.0404 1.25 16.9638 6.71968 17.7698 8.4689C17.9262 8.80822 17.9262 9.19178 17.7698 9.5311C17.3335 10.4781 16.2766 12.5154 14.5992 14.185ZM7.09578 6.68163L8.16667 7.75251C8.40501 7.59299 8.69162 7.49995 8.99995 7.49995C9.82838 7.49995 10.5 8.17153 10.5 8.99995C10.5 9.30829 10.4069 9.5949 10.2474 9.83324L11.3183 10.9041C11.7442 10.3861 12 9.72292 12 8.99995C12 7.3431 10.6568 5.99995 8.99995 5.99995C8.27699 5.99995 7.61376 6.25569 7.09578 6.68163Z" fill="#364141"/>
<path d="M0.230041 8.46894C0.48187 7.92238 0.940413 7.01258 1.60568 6.01989L11.7581 16.1723C10.9226 16.5333 10.0031 16.75 8.99983 16.75C3.9592 16.75 1.03599 11.2802 0.230042 9.53106C0.0737102 9.19177 0.07371 8.80823 0.230041 8.46894Z" fill="#364141"/>
</svg>
