<svg width="18" height="18" viewBox="0 0 18 18" fill="none" xmlns="http://www.w3.org/2000/svg">
<path fill-rule="evenodd" clip-rule="evenodd" d="M8.78033 4.71969L7.03033 2.96969L5.96967 4.03035L7.71967 5.78035L1.43934 12.0607C1.15804 12.342 1 12.7235 1 13.1213V17H4.87868C5.2765 17 5.65803 16.842 5.93934 16.5607L12.2197 10.2803L13.9697 12.0303L15.0303 10.9697L13.2803 9.21969L16.4393 6.06068C17.0251 5.47489 17.0251 4.52514 16.4393 3.93936L14.0607 1.56068C13.4749 0.974891 12.5251 0.974891 11.9393 1.56068L8.78033 4.71969ZM13 2.62134L15.3787 5.00002L12.2197 8.15903L9.84099 5.78035L13 2.62134ZM11.159 9.21969L4.87868 15.5L2.5 15.5L2.5 13.1213L8.78033 6.84101L11.159 9.21969Z" fill="#364141"/>
</svg>
