<svg width="18" height="18" viewBox="0 0 18 18" fill="none" xmlns="http://www.w3.org/2000/svg">
<path fill-rule="evenodd" clip-rule="evenodd" d="M14.5706 14.51C14.8743 14.232 15.1542 13.9417 15.4109 13.6476C16.8085 12.0463 17.5699 10.2796 17.8414 9.57035C17.9823 9.20249 17.9823 8.79751 17.8414 8.42965C17.5699 7.72036 16.8085 5.9537 15.4109 4.3524C14.0065 2.74329 11.91 1.25 8.99996 1.25C6.65881 1.25 4.84421 2.21651 3.49292 3.43228L1.53031 1.46967L0.469653 2.53033L15.4697 17.5303L16.5303 16.4697L14.5706 14.51ZM13.5091 13.4484C13.7856 13.1991 14.0425 12.9343 14.2808 12.6613C15.5132 11.2492 16.1983 9.66698 16.4406 9.03406C16.4492 9.01151 16.4492 8.98849 16.4406 8.96594C16.1983 8.33302 15.5132 6.75078 14.2808 5.33874C13.0552 3.93451 11.3381 2.75 8.99996 2.75C7.15148 2.75 5.69114 3.49035 4.55495 4.49431L6.90921 6.84857C7.44952 6.3234 8.18699 6 8.99998 6C10.6568 6 12 7.34315 12 9C12 9.813 11.6766 10.5505 11.1514 11.0908L13.5091 13.4484ZM10.0905 10.0299L7.97009 7.90944C8.23876 7.65562 8.6012 7.5 8.99998 7.5C9.82841 7.5 10.5 8.17157 10.5 9C10.5 9.39878 10.3444 9.76122 10.0905 10.0299Z" fill="#364141"/>
<path d="M1.55933 8.96594C1.70959 8.57344 2.03013 7.81584 2.5459 6.96015L1.45671 5.87095C0.761785 6.95835 0.344803 7.94294 0.158475 8.42965C0.0176506 8.79751 0.0176497 9.20249 0.158475 9.57034C0.430012 10.2796 1.1914 12.0463 2.58902 13.6476C3.99344 15.2567 6.08993 16.75 8.99996 16.75C10.0438 16.75 10.9829 16.5579 11.823 16.2372L10.6309 15.0451C10.1243 15.1768 9.58133 15.25 8.99996 15.25C6.66184 15.25 4.94473 14.0655 3.71911 12.6613C2.48669 11.2492 1.80163 9.66698 1.55933 9.03406C1.5507 9.01151 1.5507 8.98849 1.55933 8.96594Z" fill="#364141"/>
</svg>
