<svg width="18" height="18" viewBox="0 0 18 18" fill="none" xmlns="http://www.w3.org/2000/svg">
<path d="M2 4.5V2.5H16V4.5H11.2857L13 6H17.5V2.5C17.5 1.67157 16.8284 1 16 1H2C1.17157 1 0.5 1.67157 0.5 2.5V6H5L6.71429 4.5H2Z" fill="#364141"/>
<path d="M2 15.75V9H3.5V15.5H14.5V9H16V15.75C16 16.4404 15.4404 17 14.75 17H3.25C2.55964 17 2 16.4404 2 15.75Z" fill="#364141"/>
<path d="M8.25 14V7.81066L6.03033 10.0303L4.96967 8.96967L9 4.93934L13.0303 8.96967L11.9697 10.0303L9.75 7.81066V14H8.25Z" fill="#364141"/>
</svg>
