<svg width="18" height="18" viewBox="0 0 18 18" fill="none" xmlns="http://www.w3.org/2000/svg">
<path fill-rule="evenodd" clip-rule="evenodd" d="M8.98798 0.180469C9.21709 0.376769 9.30627 0.691242 9.21432 0.978592C8.25544 3.97509 8.66534 5.54453 9.1414 6.33003C9.3856 6.73297 9.67321 6.97548 9.89078 7.11576C9.96759 7.16528 10.0356 7.20199 10.0896 7.2282C10.142 7.21797 10.2055 7.20396 10.2774 7.18499C10.5074 7.1243 10.8078 7.01693 11.1025 6.83276C11.6565 6.48653 12.25 5.84013 12.25 4.50001C12.25 4.21914 12.4069 3.9618 12.6566 3.83322C12.9064 3.70463 13.207 3.72635 13.4356 3.88949L13 4.50001C13.4356 3.88949 13.4359 3.88967 13.4361 3.88986L13.4367 3.89027L13.4381 3.89125L13.4416 3.89382L13.452 3.90135C13.4603 3.90743 13.4714 3.91565 13.4851 3.92598C13.5125 3.94664 13.5504 3.97578 13.5972 4.01324C13.6909 4.08811 13.8208 4.19654 13.9748 4.3373C14.282 4.61814 14.6894 5.03143 15.097 5.56753C15.9098 6.63644 16.75 8.22989 16.75 10.25C16.75 13.8244 13.9987 18 9 18C4.00326 18 1.25 13.8578 1.25 10.25C1.25 7.85093 1.91977 5.82092 3.14135 4.12428C4.35635 2.43678 6.08958 1.1167 8.16459 0.0791893C8.43444 -0.0557363 8.75887 -0.0158303 8.98798 0.180469ZM13.5261 6.01712C13.1992 7.02942 12.558 7.69195 11.8975 8.10476C11.4422 8.38934 10.9926 8.5476 10.6601 8.63534C10.4926 8.67956 10.3509 8.70686 10.2479 8.72342C10.1963 8.73171 10.154 8.73737 10.1226 8.74112C10.1069 8.74299 10.0939 8.74439 10.0838 8.74541L10.0708 8.74667L10.066 8.7471L10.064 8.74727L10.0631 8.74735C10.0627 8.74739 10.0623 8.74742 10 8.00001C9.79396 8.72115 9.79331 8.72097 9.79265 8.72078L9.79125 8.72037L9.78821 8.71949L9.78113 8.71738L9.7631 8.7118C9.74939 8.70745 9.73232 8.7018 9.7122 8.69472C9.67198 8.68056 9.61936 8.6606 9.55675 8.63362C9.43174 8.57976 9.26548 8.49734 9.07797 8.37645C8.70179 8.13391 8.2394 7.7358 7.8586 7.10749C7.2338 6.07656 6.89174 4.53822 7.3309 2.2718C6.1069 3.05694 5.10688 3.96153 4.35865 5.00074C3.33023 6.4291 2.75 8.14909 2.75 10.25C2.75 13.2047 4.99674 16.5 9 16.5C13.0013 16.5 15.25 13.1756 15.25 10.25C15.25 8.66076 14.5902 7.3792 13.903 6.47546C13.7759 6.30832 13.6488 6.15535 13.5261 6.01712ZM10 8.00001L9.79396 8.72115L9.92572 8.7588L10.0623 8.74742L10 8.00001Z" fill="#364141"/>
</svg>
