<svg width="18" height="18" viewBox="0 0 18 18" fill="none" xmlns="http://www.w3.org/2000/svg">
<path fill-rule="evenodd" clip-rule="evenodd" d="M1.25 17V1H2.75V2.25H8.39556C9.04595 2.25 9.64269 2.61069 9.94501 3.18654L10.3283 3.91667H15.5C16.1904 3.91667 16.75 4.47631 16.75 5.16667V12.5C16.75 13.1904 16.1904 13.75 15.5 13.75H9.60444C8.95405 13.75 8.35731 13.3893 8.05499 12.8135L7.67167 12.0833H2.75V17H1.25ZM2.75 10.5833V3.75H7.44118L9.51425 9.62372C9.60781 9.88878 10 9.8216 10 9.54051V5.41633C10.0087 5.41655 10.0174 5.41667 10.0261 5.41667H15.25V12.25H9.60444C9.51152 12.25 9.42628 12.1985 9.38309 12.1162L8.85929 11.1185C8.68653 10.7894 8.34554 10.5833 7.97389 10.5833H2.75Z" fill="#364141"/>
</svg>
