<svg width="18" height="18" viewBox="0 0 18 18" fill="none" xmlns="http://www.w3.org/2000/svg">
<path d="M0 2.5V15C0 15.5523 0.447715 16 1 16C1.55228 16 2 15.5523 2 15V7.75C2 6.50736 3.00736 5.5 4.25 5.5H15V5C15 4.17157 14.3284 3.5 13.5 3.5H8.5L7.10049 1.75061C6.72094 1.27618 6.14632 1 5.53875 1H1.5C0.671573 1 0 1.67157 0 2.5Z" fill="#364141"/>
<path d="M5 7H15.75C16.5784 7 17.25 7.67157 17.25 8.5V14.5C17.25 15.3284 16.5784 16 15.75 16H3.5V8.5C3.5 7.67157 4.17157 7 5 7Z" fill="#364141"/>
</svg>
