<svg width="18" height="18" viewBox="0 0 18 18" fill="none" xmlns="http://www.w3.org/2000/svg">
<path fill-rule="evenodd" clip-rule="evenodd" d="M2.25 16C1.00736 16 0 14.9926 0 13.75V2.5C0 1.67157 0.671573 1 1.5 1H5.53875C6.14632 1 6.72094 1.27618 7.10049 1.75061L8.5 3.5H14.5C15.3284 3.5 16 4.17157 16 5V6.5H16.75C17.4404 6.5 18 7.05964 18 7.75V14.75C18 15.4404 17.4404 16 16.75 16H2.25ZM7.77906 5H14.5V6.5H4.75C3.7835 6.5 3 7.2835 3 8.25V13.75C3 14.1642 2.66421 14.5 2.25 14.5C1.83579 14.5 1.5 14.1642 1.5 13.75V2.5H5.53875C5.69064 2.5 5.8343 2.56905 5.92918 2.68765L7.77906 5ZM4.37197 14.5C4.45488 14.2654 4.5 14.013 4.5 13.75V8.25C4.5 8.11193 4.61193 8 4.75 8H16.5V14.5H4.37197Z" fill="#364141"/>
</svg>
