<svg width="18" height="18" viewBox="0 0 18 18" fill="none" xmlns="http://www.w3.org/2000/svg">
<path fill-rule="evenodd" clip-rule="evenodd" d="M3.21582 1.75H6.75788L10.7579 16H8.68058L7.27707 11H3.00333L1.77526 16H-0.28418L3.21582 1.75ZM3.49456 9H6.71566L5.24198 3.75H4.78404L3.49456 9Z" fill="#364141"/>
<path fill-rule="evenodd" clip-rule="evenodd" d="M14.4999 8.5C12.5669 8.5 10.9999 10.067 10.9999 12V12.5C10.9999 14.433 12.5669 16 14.4999 16C15.3567 16 16.1416 15.6922 16.7499 15.1811V16H18.2499V8.5H16.7499V9.31894C16.1416 8.80784 15.3567 8.5 14.4999 8.5ZM15.9999 12.5V12C15.9999 11.1716 15.3284 10.5 14.4999 10.5C13.6715 10.5 12.9999 11.1716 12.9999 12V12.5C12.9999 13.3284 13.6715 14 14.4999 14C15.3284 14 15.9999 13.3284 15.9999 12.5Z" fill="#364141"/>
</svg>
