<svg width="18" height="18" viewBox="0 0 18 18" fill="none" xmlns="http://www.w3.org/2000/svg">
<path fill-rule="evenodd" clip-rule="evenodd" d="M3.41198 2H6.56853L10.4984 16H8.94038L7.46669 10.75H2.80744L1.51797 16H-0.0266113L3.41198 2ZM3.17587 9.25H7.04564L5.4316 3.5H4.58815L3.17587 9.25Z" fill="#364141"/>
<path fill-rule="evenodd" clip-rule="evenodd" d="M14.5001 9C12.7051 9 11.2501 10.4551 11.2501 12.25V12.75C11.2501 14.5449 12.7051 16 14.5001 16C15.3125 16 16.0553 15.7019 16.6251 15.2091V16H17.8751V9H16.6251V9.79089C16.0553 9.2981 15.3125 9 14.5001 9ZM16.2501 12.75V12.25C16.2501 11.2835 15.4666 10.5 14.5001 10.5C13.5336 10.5 12.7501 11.2835 12.7501 12.25V12.75C12.7501 13.7165 13.5336 14.5 14.5001 14.5C15.4666 14.5 16.2501 13.7165 16.2501 12.75Z" fill="#364141"/>
</svg>
