<svg width="18" height="18" viewBox="0 0 18 18" fill="none" xmlns="http://www.w3.org/2000/svg">
<path fill-rule="evenodd" clip-rule="evenodd" d="M1 2.5C1 1.67157 1.67157 1 2.5 1H6.75C7.57843 1 8.25 1.67157 8.25 2.5V6.75C8.25 7.57843 7.57843 8.25 6.75 8.25H2.5C1.67157 8.25 1 7.57843 1 6.75V2.5ZM2.5 2.5H6.75V6.75H2.5L2.5 2.5Z" fill="#364141"/>
<path fill-rule="evenodd" clip-rule="evenodd" d="M9.75 2.5C9.75 1.67157 10.4216 1 11.25 1H15.5C16.3284 1 17 1.67157 17 2.5V6.75C17 7.57843 16.3284 8.25 15.5 8.25H11.25C10.4216 8.25 9.75 7.57843 9.75 6.75V2.5ZM11.25 2.5H15.5V6.75H11.25V2.5Z" fill="#364141"/>
<path fill-rule="evenodd" clip-rule="evenodd" d="M2.5 9.79999C1.67157 9.79999 1 10.4716 1 11.3V15.55C1 16.3784 1.67157 17.05 2.5 17.05H6.75C7.57843 17.05 8.25 16.3784 8.25 15.55V11.3C8.25 10.4716 7.57843 9.79999 6.75 9.79999H2.5ZM6.75 11.3H2.5L2.5 15.55H6.75V11.3Z" fill="#364141"/>
<path fill-rule="evenodd" clip-rule="evenodd" d="M9.75 11.3C9.75 10.4716 10.4216 9.79999 11.25 9.79999H15.5C16.3284 9.79999 17 10.4716 17 11.3V15.55C17 16.3784 16.3284 17.05 15.5 17.05H11.25C10.4216 17.05 9.75 16.3784 9.75 15.55V11.3ZM11.25 11.3H15.5V15.55H11.25V11.3Z" fill="#364141"/>
</svg>
