<svg width="18" height="18" viewBox="0 0 18 18" fill="none" xmlns="http://www.w3.org/2000/svg">
<path d="M2.5 1C1.67157 1 1 1.67157 1 2.5V6.75C1 7.57843 1.67157 8.25 2.5 8.25H6.75C7.57843 8.25 8.25 7.57843 8.25 6.75V2.5C8.25 1.67157 7.57843 1 6.75 1H2.5Z" fill="#364141"/>
<path d="M11.25 1C10.4216 1 9.75 1.67157 9.75 2.5V6.75C9.75 7.57843 10.4216 8.25 11.25 8.25H15.5C16.3284 8.25 17 7.57843 17 6.75V2.5C17 1.67157 16.3284 1 15.5 1H11.25Z" fill="#364141"/>
<path d="M1 11.3C1 10.4716 1.67157 9.79999 2.5 9.79999H6.75C7.57843 9.79999 8.25 10.4716 8.25 11.3V15.55C8.25 16.3784 7.57843 17.05 6.75 17.05H2.5C1.67157 17.05 1 16.3784 1 15.55V11.3Z" fill="#364141"/>
<path d="M11.25 9.79999C10.4216 9.79999 9.75 10.4716 9.75 11.3V15.55C9.75 16.3784 10.4216 17.05 11.25 17.05H15.5C16.3284 17.05 17 16.3784 17 15.55V11.3C17 10.4716 16.3284 9.79999 15.5 9.79999H11.25Z" fill="#364141"/>
</svg>
