<svg width="18" height="18" viewBox="0 0 18 18" fill="none" xmlns="http://www.w3.org/2000/svg">
<path fill-rule="evenodd" clip-rule="evenodd" d="M10.1234 7.81598L11.9697 5.96967L13.0303 7.03033L11.1997 8.86097C11.3912 9.21458 11.5 9.61958 11.5 10.05C11.5 11.4307 10.3807 12.55 9 12.55C7.61929 12.55 6.5 11.4307 6.5 10.05C6.5 8.66928 7.61929 7.54999 9 7.54999C9.404 7.54999 9.78561 7.64582 10.1234 7.81598ZM10 10.05C10 10.6023 9.55228 11.05 9 11.05C8.44772 11.05 8 10.6023 8 10.05C8 9.4977 8.44772 9.04999 9 9.04999C9.55228 9.04999 10 9.4977 10 10.05Z" fill="#364141"/>
<path fill-rule="evenodd" clip-rule="evenodd" d="M14.6573 17C16.6963 15.35 18 12.8273 18 10C18 5.02944 13.9706 1 9 1C4.02944 1 0 5.02944 0 10C0 12.8273 1.30367 15.35 3.34267 17H14.6573ZM14.0991 15.5C15.5779 14.1285 16.5 12.1724 16.5 10C16.5 5.85786 13.1421 2.5 9 2.5C4.85786 2.5 1.5 5.85786 1.5 10C1.5 12.1724 2.42215 14.1285 3.90088 15.5H14.0991Z" fill="#364141"/>
</svg>
