<svg width="18" height="18" viewBox="0 0 18 18" fill="none" xmlns="http://www.w3.org/2000/svg">
<path fill-rule="evenodd" clip-rule="evenodd" d="M18 10C18 12.8273 16.6963 15.35 14.6573 17H3.34267C1.30367 15.35 0 12.8273 0 10C0 5.02944 4.02944 1 9 1C13.9706 1 18 5.02944 18 10ZM11.5 10.0501C11.5 9.61968 11.3912 9.21467 11.1997 8.86105L13.0303 7.03039L11.9697 5.96973L10.1233 7.81608C9.78558 7.64593 9.40398 7.55011 9 7.55011C7.61929 7.55011 6.5 8.66939 6.5 10.0501C6.5 11.4308 7.61929 12.5501 9 12.5501C10.3807 12.5501 11.5 11.4308 11.5 10.0501Z" fill="#364141"/>
</svg>
