<svg width="18" height="18" viewBox="0 0 18 18" fill="none" xmlns="http://www.w3.org/2000/svg">
<path d="M8.0661 8.21875C8.05048 7.28516 7.32391 6.32812 5.78094 6.32812C4.17157 6.32812 3.3161 7.35547 3.3161 8.76172V9.36719C3.3161 10.6953 4.01532 11.8438 5.76923 11.8438C7.42157 11.8438 8.07001 10.8125 8.07001 9.76953V8.75781H5.88641V9.79297H6.62469V9.90234C6.62469 10.25 6.35907 10.6016 5.80829 10.6016C5.07001 10.6016 4.8786 10.0156 4.8786 9.35938V8.78125C4.8786 8.00391 5.18719 7.57031 5.76923 7.57031C6.26141 7.57031 6.53094 7.87891 6.57391 8.21875H8.0661Z" fill="#364141"/>
<path d="M10.2109 11.75V6.41797H8.66798V11.75H10.2109Z" fill="#364141"/>
<path d="M12.5706 9.86328V11.75H11.0277V6.41797H14.7542V7.63281H12.5706V8.69141H14.5472V9.86328H12.5706Z" fill="#364141"/>
<path fill-rule="evenodd" clip-rule="evenodd" d="M0 3.5C0 2.67157 0.671573 2 1.5 2H16.5C17.3284 2 18 2.67157 18 3.5V14.5C18 15.3284 17.3284 16 16.5 16H1.5C0.671573 16 0 15.3284 0 14.5V3.5ZM1.5 3.5H16.5V14.5H1.5L1.5 3.5Z" fill="#364141"/>
</svg>
