<svg width="18" height="18" viewBox="0 0 18 18" fill="none" xmlns="http://www.w3.org/2000/svg">
<path fill-rule="evenodd" clip-rule="evenodd" d="M5.41167 4C4.98851 4 4.61116 4.26635 4.46943 4.66507L3.25967 8.06838C3.49959 8.02348 3.74705 8 4 8C5.48056 8 6.77325 8.8044 7.46487 10H10.5351C11.2267 8.8044 12.5194 8 14 8C14.253 8 14.5004 8.02348 14.7403 8.06838L13.5306 4.66506C13.3888 4.26635 13.0115 4 12.5883 4H11V2H12.5883C13.8578 2 14.9899 2.79904 15.4151 3.99519L17.786 10.6651C17.8081 10.7271 17.8236 10.7899 17.833 10.8527C17.9417 11.2161 18 11.6013 18 12C18 14.2091 16.2091 16 14 16C11.7909 16 10 14.2091 10 12H8C8 14.2091 6.20914 16 4 16C1.79086 16 0 14.2091 0 12C0 11.6012 0.0583676 11.216 0.167027 10.8525C0.176447 10.7898 0.192001 10.7271 0.214039 10.6651L2.58495 3.9952C3.01014 2.79904 4.14219 2 5.41167 2H7V4H5.41167ZM4 14C5.10457 14 6 13.1046 6 12C6 10.8954 5.10457 10 4 10C2.89543 10 2 10.8954 2 12C2 13.1046 2.89543 14 4 14ZM14 14C15.1046 14 16 13.1046 16 12C16 10.8954 15.1046 10 14 10C12.8954 10 12 10.8954 12 12C12 13.1046 12.8954 14 14 14Z" fill="#364141"/>
</svg>
