<svg width="18" height="18" viewBox="0 0 18 18" fill="none" xmlns="http://www.w3.org/2000/svg">
<path fill-rule="evenodd" clip-rule="evenodd" d="M5.37151 3.75C4.85494 3.75 4.39159 4.06775 4.20547 4.54962L2.8023 8.1824C3.18045 8.06388 3.58277 8 4 8C5.58156 8 6.94874 8.91788 7.59788 10.25H10.4021C11.0513 8.91788 12.4184 8 14 8C14.4182 8 14.8214 8.06418 15.2003 8.18322L13.795 4.54914C13.6087 4.06752 13.1455 3.75 12.6291 3.75H11V2.25H12.6291C13.7651 2.25 14.7842 2.94855 15.194 4.00811L17.6564 10.3757C17.7103 10.4967 17.7583 10.621 17.8002 10.7481C17.8055 10.7629 17.8103 10.7778 17.8146 10.7927C17.935 11.1737 18 11.5792 18 12C18 14.2091 16.2091 16 14 16C11.7909 16 10 14.2091 10 12C10 11.916 10.0026 11.8327 10.0077 11.75H7.99231C7.99741 11.8327 8 11.916 8 12C8 14.2091 6.20914 16 4 16C1.79086 16 0 14.2091 0 12C0 11.401 0.131684 10.8327 0.367685 10.3225L2.80622 4.00916C3.21568 2.94904 4.23507 2.25 5.37151 2.25H7V3.75H5.37151ZM16.2746 10.961L16.3822 11.2393C16.4587 11.4791 16.5 11.7347 16.5 12C16.5 13.3807 15.3807 14.5 14 14.5C12.6193 14.5 11.5 13.3807 11.5 12C11.5 10.6193 12.6193 9.5 14 9.5C15.01 9.5 15.8801 10.0989 16.2746 10.961ZM1.60963 11.2702L1.60372 11.2851C1.53624 11.5116 1.5 11.7516 1.5 12C1.5 13.3807 2.61929 14.5 4 14.5C5.38071 14.5 6.5 13.3807 6.5 12C6.5 10.6193 5.38071 9.5 4 9.5C3.00706 9.5 2.14932 10.0789 1.74585 10.9175L1.60963 11.2702Z" fill="#364141"/>
</svg>
