<svg width="18" height="18" viewBox="0 0 18 18" fill="none" xmlns="http://www.w3.org/2000/svg">
<path d="M0.25 3.5V14.5H1.75V9.75H7.25V14.5H8.75V3.5H7.25V8.25H1.75V3.5H0.25Z" fill="#364141"/>
<path d="M11.75 6.25C11.75 5.55964 12.3096 5 13 5H15C15.6904 5 16.25 5.55964 16.25 6.25V6.85126C16.25 7.29584 16.0139 7.70697 15.6298 7.93098L11.6144 10.2733C10.7695 10.7662 10.25 11.6707 10.25 12.6487V14.5H17.75V13H11.75V12.6487C11.75 12.2042 11.9861 11.793 12.3702 11.569L16.3856 9.22665C17.2305 8.73382 17.75 7.82934 17.75 6.85126V6.25C17.75 4.73122 16.5188 3.5 15 3.5H13C11.4812 3.5 10.25 4.73122 10.25 6.25H11.75Z" fill="#364141"/>
</svg>
