<svg width="18" height="18" viewBox="0 0 18 18" fill="none" xmlns="http://www.w3.org/2000/svg">
<path d="M12.5 6.25C12.5 5.69772 12.9477 5.25 13.5 5.25H15C15.5523 5.25 16 5.69772 16 6.25V6.85874C16 7.2124 15.8132 7.53975 15.5087 7.71967L11.9738 9.80848C11.0604 10.3482 10.5 11.3303 10.5 12.3913V14.5H18V12.5H12.5V12.3913C12.5 12.0376 12.6868 11.7102 12.9913 11.5303L16.5262 9.44152C17.4396 8.90177 18 7.91971 18 6.85874V6.25C18 4.59315 16.6569 3.25 15 3.25H13.5C11.8431 3.25 10.5 4.59315 10.5 6.25H12.5Z" fill="#364141"/>
<path d="M0 3.5V14.5H2V10H7V14.5H9V3.5H7V8H2V3.5H0Z" fill="#364141"/>
</svg>
