<svg width="18" height="18" viewBox="0 0 18 18" fill="none" xmlns="http://www.w3.org/2000/svg">
<path d="M14.9565 5.27918C15.0741 6.25082 14.9522 7.23648 14.6015 8.15021L13.1731 7.6019C13.4344 6.92118 13.5252 6.18686 13.4376 5.46299C13.35 4.73911 13.0867 4.04766 12.6705 3.44891C12.2544 2.85016 11.6981 2.36231 11.0502 2.02788C10.4022 1.69345 9.68231 1.52261 8.95319 1.53024C8.22407 1.53788 7.5079 1.72376 6.8671 2.07169C6.22631 2.41961 5.68035 2.91901 5.27684 3.52634C4.87333 4.13367 4.62452 4.83049 4.5521 5.55604C4.47968 6.28159 4.58585 7.01384 4.86136 7.68895L3.44478 8.26704C3.07497 7.36086 2.93246 6.37797 3.02967 5.40408C3.12687 4.43019 3.46085 3.49486 4.00247 2.67965C4.5441 1.86444 5.27692 1.19411 6.13705 0.727097C6.99718 0.260086 7.95849 0.010578 8.93717 0.000329042C9.91585 -0.00991996 10.8822 0.219401 11.7519 0.668297C12.6216 1.11719 13.3683 1.77203 13.9269 2.57572C14.4855 3.37941 14.839 4.30753 14.9565 5.27918Z" fill="#364141"/>
<path d="M10.5 5.5V9.29136C10.5 9.41218 10.5864 9.51571 10.7052 9.53732L14.3999 10.2091C15.2619 10.3658 15.8067 11.2248 15.5809 12.0714L14.2969 16.8865C14.1218 17.5431 13.5271 18 12.8475 18H8.229C7.76871 18 7.3339 17.7887 7.04953 17.4267L2.39184 11.4988C2.17684 11.2251 2.229 10.8282 2.5074 10.6194C3.37948 9.96535 4.58882 10.0047 5.41649 10.7142L7.25233 12.2878C7.34963 12.3712 7.49995 12.302 7.49995 12.1739V5.5C7.49995 4.67157 8.17152 4 8.99995 4C9.82838 4 10.5 4.67157 10.5 5.5Z" fill="#364141"/>
</svg>
