<svg width="18" height="18" viewBox="0 0 18 18" fill="none" xmlns="http://www.w3.org/2000/svg">
<path d="M14.9566 5.27918C15.0742 6.25082 14.9523 7.23648 14.6016 8.15021L13.1732 7.6019C13.4345 6.92118 13.5253 6.18686 13.4377 5.46299C13.3501 4.73911 13.0868 4.04766 12.6706 3.44891C12.2545 2.85016 11.6982 2.36231 11.0503 2.02788C10.4023 1.69345 9.6824 1.52261 8.95328 1.53024C8.22416 1.53788 7.50799 1.72376 6.86719 2.07169C6.22639 2.41961 5.68044 2.91901 5.27693 3.52634C4.87342 4.13367 4.62461 4.83049 4.55219 5.55604C4.47977 6.28159 4.58594 7.01384 4.86145 7.68895L3.44487 8.26704C3.07506 7.36086 2.93255 6.37797 3.02976 5.40408C3.12696 4.43019 3.46094 3.49486 4.00256 2.67965C4.54419 1.86444 5.27701 1.19411 6.13714 0.727097C6.99726 0.260086 7.95858 0.010578 8.93726 0.000329042C9.91594 -0.00991996 10.8823 0.219401 11.752 0.668297C12.6217 1.11719 13.3684 1.77203 13.927 2.57572C14.4856 3.37941 14.8391 4.30753 14.9566 5.27918Z" fill="#364141"/>
<path fill-rule="evenodd" clip-rule="evenodd" d="M9.00009 3.75C7.75745 3.75 6.75009 4.75736 6.75009 6V11.0426L5.61154 10.2294C4.66228 9.55132 3.41598 9.45353 2.37258 9.97523C1.58117 10.3709 1.35611 11.3956 1.90886 12.0865L5.96407 17.1556C6.39106 17.6893 7.03751 18 7.72103 18H12.9052C13.8836 18 14.7499 17.3676 15.0481 16.4357L16.1937 12.8559C16.6077 11.5622 15.7896 10.1994 14.4532 9.95645L11.2501 9.37407V6C11.2501 4.75736 10.2427 3.75 9.00009 3.75ZM8.25009 6C8.25009 5.58579 8.58588 5.25 9.00009 5.25C9.4143 5.25 9.75009 5.58579 9.75009 6V9.79136C9.75009 10.2746 10.0957 10.6888 10.5712 10.7752L14.1849 11.4323C14.6303 11.5133 14.903 11.9675 14.765 12.3987L13.6195 15.9786C13.5201 16.2892 13.2313 16.5 12.9052 16.5H7.72103C7.49319 16.5 7.2777 16.3964 7.13538 16.2185L3.16895 11.2605C3.68757 11.0531 4.2801 11.1217 4.73969 11.45L6.82698 12.9409C7.42266 13.3664 8.25009 12.9406 8.25009 12.2085V6Z" fill="#364141"/>
</svg>
