<svg width="18" height="18" viewBox="0 0 18 18" fill="none" xmlns="http://www.w3.org/2000/svg">
<path d="M6.5 5.625V9.25C6.5 9.94036 7.05964 10.5 7.75 10.5C8.44036 10.5 9 9.94036 9 9.25V7.5H12.5C13.6046 7.5 14.5 8.39543 14.5 9.5L18 7L15 2L12 4H8.125C7.22754 4 6.5 4.72754 6.5 5.625Z" fill="#364141"/>
<path d="M0 12.5L2 11V8.73607C2 7.97852 2.428 7.286 3.10557 6.94721L5 6V9.25C5 10.7688 6.23122 12 7.75 12C9.26878 12 10.5 10.7688 10.5 9.25V9H12C12.5523 9 13 9.44772 13 10V11C13 13.2091 11.2091 15 9 15H6L3 17L0 12.5Z" fill="#364141"/>
</svg>
