<svg width="18" height="18" viewBox="0 0 18 18" fill="none" xmlns="http://www.w3.org/2000/svg">
<path d="M11.8456 3.71201L15.6024 1.36401L16.3974 2.63601L12.6406 4.98401C12.3625 5.15784 12.0411 5.25001 11.7131 5.25001H8.99992C7.75728 5.25001 6.74992 6.25737 6.74992 7.50001V9.75001C6.74992 10.3023 7.19764 10.75 7.74992 10.75C8.30221 10.75 8.74992 10.3023 8.74992 9.75001V7.25001H10.9999C12.0978 7.25001 13.0455 7.89343 13.4864 8.82377L17.1088 6.61005L17.891 7.88997L13.7499 10.4206V11.5C13.7499 13.5711 12.071 15.25 9.99992 15.25H7.8027C7.75334 15.25 7.70509 15.2646 7.66402 15.292L4.91595 17.1241L4.0839 15.876L6.83197 14.0439C7.11944 13.8523 7.4572 13.75 7.8027 13.75H9.99992C11.2426 13.75 12.2499 12.7427 12.2499 11.5V10C12.2499 9.30966 11.6903 8.75001 10.9999 8.75001H10.2499V9.75001C10.2499 11.1307 9.13063 12.25 7.74992 12.25C6.36921 12.25 5.24992 11.1307 5.24992 9.75001V7.71354L4.4409 8.11805C4.01742 8.32979 3.74992 8.76262 3.74992 9.23608V10.4794C3.74992 11.0504 3.4713 11.5855 3.00348 11.913L0.930018 13.3644L0.0698242 12.1356L2.14329 10.6842C2.21012 10.6374 2.24992 10.5609 2.24992 10.4794V9.23608C2.24992 8.19446 2.83843 7.24223 3.77008 6.77641L5.6343 5.8443C6.24582 4.6036 7.52319 3.75001 8.99992 3.75001H11.7131C11.76 3.75001 11.8059 3.73685 11.8456 3.71201Z" fill="#364141"/>
</svg>
