<svg width="18" height="18" viewBox="0 0 18 18" fill="none" xmlns="http://www.w3.org/2000/svg">
<path fill-rule="evenodd" clip-rule="evenodd" d="M1.54416 2.56041C-0.514719 4.64095 -0.514718 8.01417 1.54416 10.0947L7.94491 16.5628C8.52762 17.1517 9.47238 17.1517 10.0551 16.5628L16.4558 10.0947C18.5147 8.01416 18.5147 4.64094 16.4558 2.5604C14.397 0.47986 11.0589 0.479871 9 2.56041C6.94112 0.479871 3.60303 0.479873 1.54416 2.56041ZM6.6504 8.87373L7.5 7.45774L9.83544 11.3501C10.1365 11.8518 10.8635 11.8518 11.1646 11.3501L12.4246 9.25H13.5V7.75H12.0142C11.7419 7.75 11.4897 7.89283 11.3496 8.12627L10.5 9.54226L8.16456 5.64986C7.86354 5.14816 7.13645 5.14817 6.83544 5.64986L5.57536 7.75H4.5V9.25H5.98585C6.25807 9.25 6.51034 9.10717 6.6504 8.87373Z" fill="#364141"/>
</svg>
