<svg width="18" height="18" viewBox="0 0 18 18" fill="none" xmlns="http://www.w3.org/2000/svg">
<path fill-rule="evenodd" clip-rule="evenodd" d="M9 4.69292L7.9338 3.6155C6.46196 2.12817 4.0822 2.12817 2.61035 3.61551C1.12988 5.11155 1.12988 7.54357 2.61035 9.03961L9 15.4965L15.3896 9.0396C16.8701 7.54355 16.8701 5.11154 15.3896 3.61549C13.9178 2.12817 11.538 2.12817 10.0662 3.6155L9 4.69292ZM8.91955 2.4808C6.85507 0.480218 3.57642 0.506758 1.54416 2.56041C-0.514719 4.64095 -0.514718 8.01417 1.54416 10.0947L7.94491 16.5628C8.52762 17.1517 9.47238 17.1517 10.0551 16.5628L16.4558 10.0947C18.5147 8.01416 18.5147 4.64094 16.4558 2.5604C14.4236 0.506743 11.1449 0.480218 9.08044 2.4808C9.05342 2.50699 9.0266 2.53353 9 2.56041C8.97339 2.53352 8.94657 2.50699 8.91955 2.4808Z" fill="#364141"/>
</svg>
