<svg width="18" height="18" viewBox="0 0 18 18" fill="none" xmlns="http://www.w3.org/2000/svg">
<path d="M6.6075 8.94L7.5 7.75L9.88 10.9233C10.19 11.3367 10.81 11.3367 11.12 10.9233L12.375 9.25H13.5V7.75H12.0125C11.7686 7.75 11.5389 7.86485 11.3925 8.06L10.5 9.25L8.12 6.07667C7.81 5.66333 7.19 5.66333 6.88 6.07667L5.625 7.75H4.5V9.25H5.9875C6.23143 9.25 6.46114 9.13515 6.6075 8.94Z" fill="#364141"/>
<path fill-rule="evenodd" clip-rule="evenodd" d="M1.54416 2.56041C3.57642 0.506758 6.85507 0.480218 8.91955 2.4808C8.94657 2.50699 8.97339 2.53352 9 2.56041C9.0266 2.53353 9.05342 2.50699 9.08044 2.4808C11.1449 0.480218 14.4236 0.506743 16.4558 2.5604C18.5147 4.64094 18.5147 8.01416 16.4558 10.0947L10.0551 16.5628C9.47238 17.1517 8.52762 17.1517 7.94491 16.5628L1.54416 10.0947C-0.514718 8.01417 -0.514719 4.64095 1.54416 2.56041ZM7.9338 3.6155L9 4.69292L10.0662 3.6155C11.538 2.12817 13.9178 2.12817 15.3896 3.61549C16.8701 5.11154 16.8701 7.54355 15.3896 9.0396L9 15.4965L2.61035 9.03961C1.12988 7.54357 1.12988 5.11155 2.61035 3.61551C4.0822 2.12817 6.46196 2.12817 7.9338 3.6155Z" fill="#364141"/>
</svg>
