<svg width="18" height="18" viewBox="0 0 18 18" fill="none" xmlns="http://www.w3.org/2000/svg">
<path d="M9 11.5L8.27906 12.5814C8.0971 12.8544 8 13.175 8 13.5031C8 14.0537 8.44941 14.5 9 14.5C9.55059 14.5 10 14.0537 10 13.5031C10 13.175 9.9029 12.8544 9.72094 12.5814L9 11.5Z" fill="#364141"/>
<path fill-rule="evenodd" clip-rule="evenodd" d="M2 1.5H2.75V5.10955C2.75 5.93293 3.19975 6.69054 3.92258 7.08482L7.43375 9L3.92258 10.9152C3.19975 11.3095 2.75 12.0671 2.75 12.8904V16.5H2V18H16V16.5H15.25V12.8904C15.25 12.0671 14.8003 11.3095 14.0774 10.9152L10.5662 9L14.0774 7.08482C14.8003 6.69054 15.25 5.93292 15.25 5.10955V1.5H16V0H2V1.5ZM13.75 16.5V12.8904C13.75 12.616 13.6001 12.3635 13.3591 12.232L9 9.85432L4.64086 12.232C4.39992 12.3635 4.25 12.616 4.25 12.8904V16.5H13.75ZM9 8.14569L13.3591 5.76797C13.6001 5.63655 13.75 5.38401 13.75 5.10955V4.75H4.25V5.10955C4.25 5.38401 4.39992 5.63655 4.64086 5.76797L9 8.14569ZM4.25 3.25H13.75V1.5H4.25V3.25Z" fill="#364141"/>
</svg>
