<svg width="18" height="18" viewBox="0 0 18 18" fill="none" xmlns="http://www.w3.org/2000/svg">
<path fill-rule="evenodd" clip-rule="evenodd" d="M2 2H2.5V5.10955C2.5 6.02441 2.99972 6.86621 3.80287 7.30429L6.91167 9L3.80287 10.6957C2.99972 11.1338 2.5 11.9756 2.5 12.8904V16H2V18H16V16H15.5V12.8904C15.5 11.9756 15.0003 11.1338 14.1971 10.6957L11.0883 9L14.1971 7.30429C15.0003 6.86621 15.5 6.02441 15.5 5.10955V2H16V0H2V2ZM13.5 16V12.8904C13.5 12.7075 13.4001 12.5391 13.2394 12.4515L9 10.1391L4.76057 12.4515C4.59994 12.5391 4.5 12.7075 4.5 12.8904V16H13.5ZM13.5 3.5H4.5V2H13.5V3.5ZM9 11.5L8.27906 12.5814C8.0971 12.8544 8 13.175 8 13.5031C8 14.0537 8.44941 14.5 9 14.5C9.55059 14.5 10 14.0537 10 13.5031C10 13.175 9.9029 12.8544 9.72094 12.5814L9 11.5Z" fill="#364141"/>
<path d="M9 11.5L8.27906 12.5814C8.0971 12.8544 8 13.175 8 13.5031C8 14.0537 8.44941 14.5 9 14.5C9.55059 14.5 10 14.0537 10 13.5031C10 13.175 9.9029 12.8544 9.72094 12.5814L9 11.5Z" fill="#364141"/>
<path fill-rule="evenodd" clip-rule="evenodd" d="M2 2H2.5V5.10955C2.5 6.02441 2.99972 6.86621 3.80287 7.30429L6.91167 9L3.80287 10.6957C2.99972 11.1338 2.5 11.9756 2.5 12.8904V16H2V18H16V16H15.5V12.8904C15.5 11.9756 15.0003 11.1338 14.1971 10.6957L11.0883 9L14.1971 7.30429C15.0003 6.86621 15.5 6.02441 15.5 5.10955V2H16V0H2V2ZM13.5 16V12.8904C13.5 12.7075 13.4001 12.5391 13.2394 12.4515L9 10.1391L4.76057 12.4515C4.59994 12.5391 4.5 12.7075 4.5 12.8904V16H13.5ZM13.5 3.5H4.5V2H13.5V3.5Z" fill="#364141"/>
</svg>
