<svg width="18" height="18" viewBox="0 0 18 18" fill="none" xmlns="http://www.w3.org/2000/svg">
<path d="M6 7C6.55228 7 7 6.55228 7 6C7 5.44772 6.55228 5 6 5C5.44772 5 5 5.44772 5 6C5 6.55228 5.44772 7 6 7Z" fill="#364141"/>
<path fill-rule="evenodd" clip-rule="evenodd" d="M0 3.5C0 2.67157 0.671573 2 1.5 2H16.5C17.3284 2 18 2.67157 18 3.5V14.5C18 15.3284 17.3284 16 16.5 16H1.5C0.671573 16 0 15.3284 0 14.5V3.5ZM1.5 3.5H16.5V10.2345L11.9848 7.07388L8.33333 9.8125L6.01518 8.07388L1.5 11.2345L1.5 3.5ZM5.98482 9.92612L7.08333 10.75L5.55 11.9L6.45 13.1L12.0152 8.92612L16.5 12.0655V14.5H1.5V13.0655L5.98482 9.92612Z" fill="#364141"/>
</svg>
