<svg width="18" height="18" viewBox="0 0 18 18" fill="none" xmlns="http://www.w3.org/2000/svg">
<path fill-rule="evenodd" clip-rule="evenodd" d="M1.5 2C0.671573 2 0 2.67157 0 3.5V14.5C0 15.3284 0.671573 16 1.5 16H16.5C17.3284 16 18 15.3284 18 14.5V3.5C18 2.67157 17.3284 2 16.5 2H1.5ZM6 6C6.55228 6 7 5.55228 7 5C7 4.44772 6.55228 4 6 4C5.44771 4 5 4.44772 5 5C5 5.55228 5.44771 6 6 6ZM2 11.091V13.1091L5.97286 9.53348L7.00276 10.5634L5.4932 11.9471L6.50678 13.0529L12.0047 8.01319L16 11.609V9.59097L11.9954 5.98681L8.10954 9.54884L6.02722 7.46652L2 11.091Z" fill="#364141"/>
</svg>
