<svg width="18" height="18" viewBox="0 0 18 18" fill="none" xmlns="http://www.w3.org/2000/svg">
<path d="M8.25 5.5C8.25 5.91421 7.91421 6.25 7.5 6.25C7.08579 6.25 6.75 5.91421 6.75 5.5C6.75 5.08579 7.08579 4.75 7.5 4.75C7.91421 4.75 8.25 5.08579 8.25 5.5Z" fill="#364141"/>
<path fill-rule="evenodd" clip-rule="evenodd" d="M4.5 2C3.67157 2 3 2.67157 3 3.5V12.5C3 13.3284 3.67157 14 4.5 14H16.5C17.3284 14 18 13.3284 18 12.5V3.5C18 2.67157 17.3284 2 16.5 2H4.5ZM16.5 3.5H4.5V9.58362L7.53923 6.97857L9.16677 8.60611L12.9935 5.54477L16.5 8.27208V3.5ZM7.98826 9.54892L7.46077 9.02143L4.5 11.5592V12.5H16.5V10.1724L13.0065 7.45523L8.46852 11.0857L7.53148 9.91435L7.98826 9.54892Z" fill="#364141"/>
<path d="M0 6.99998C0 6.06806 0.637386 5.28501 1.5 5.06299V14C1.5 14.8284 2.17157 15.5 3 15.5H12.7915C12.4054 16.3827 11.5241 16.9994 10.499 16.9989L1.99917 16.9954C0.894924 16.9949 0 16.0997 0 14.9954V6.99998Z" fill="#364141"/>
</svg>
