<svg width="18" height="18" viewBox="0 0 18 18" fill="none" xmlns="http://www.w3.org/2000/svg">
<path fill-rule="evenodd" clip-rule="evenodd" d="M3 3.5C3 2.67157 3.67157 2 4.5 2H16.5C17.3284 2 18 2.67157 18 3.5V12.5C18 13.3284 17.3284 14 16.5 14H4.5C3.67157 14 3 13.3284 3 12.5V3.5ZM7.5 5.5C7.91421 5.5 8.25 5.16421 8.25 4.75C8.25 4.33579 7.91421 4 7.5 4C7.08579 4 6.75 4.33579 6.75 4.75C6.75 5.16421 7.08579 5.5 7.5 5.5ZM16 7.88319V9.78349L13.0488 7.48811L8.51655 11.7937L7.48343 10.7063L8.33582 9.89648L7.5 9.06066L5 11.5607V9.43933L7.5 6.93934L9.42367 8.86302L12.9512 5.51189L16 7.88319Z" fill="#364141"/>
<path d="M1.5 5.06299C0.637386 5.28501 0 6.06806 0 6.99998V14.9954C0 16.0997 0.894924 16.9949 1.99917 16.9954L10.499 16.9989C11.5241 16.9994 12.4054 16.3827 12.7915 15.5H3C2.17157 15.5 1.5 14.8284 1.5 14V5.06299Z" fill="#364141"/>
</svg>
