<svg width="18" height="18" viewBox="0 0 18 18" fill="none" xmlns="http://www.w3.org/2000/svg">
<path fill-rule="evenodd" clip-rule="evenodd" d="M0 9.2111C0 8.4214 0.233752 7.64937 0.671798 6.9923L3.40627 2.8906C3.7772 2.3342 4.40166 2 5.07037 2H12.9296C13.5983 2 14.2228 2.3342 14.5937 2.8906L17.3282 6.9923C17.7662 7.64937 18 8.4214 18 9.2111V14.5C18 15.3284 17.3284 16 16.5 16H1.5C1.39645 16 1.29534 15.9895 1.1977 15.9695C0.514173 15.8297 0 15.2249 0 14.5V9.2111ZM1.91987 7.82435L4.65434 3.72265C4.74708 3.58355 4.90319 3.5 5.07037 3.5H12.9296C13.0968 3.5 13.2529 3.58355 13.3457 3.72265L16.0801 7.82435C16.1183 7.88156 16.1539 7.94017 16.1871 8H13.4142C13.149 8 12.8946 8.10536 12.7071 8.29289L11.0732 9.92678C11.0263 9.97366 10.9628 10 10.8964 10H7.10355C7.03725 10 6.97366 9.97366 6.92678 9.92678L5.29289 8.29289C5.10536 8.10536 4.851 8 4.58579 8H1.81294C1.84607 7.94017 1.88173 7.88156 1.91987 7.82435Z" fill="#364141"/>
</svg>
