<svg width="18" height="18" viewBox="0 0 18 18" fill="none" xmlns="http://www.w3.org/2000/svg">
<path d="M8.25 8.99999V2.81065L5.53033 5.53032L4.46967 4.46966L9 -0.0606689L13.5303 4.46966L12.4697 5.53032L9.75 2.81065V8.99999H8.25Z" fill="#364141"/>
<path fill-rule="evenodd" clip-rule="evenodd" d="M0.367038 9.06847L2.3501 5.62565L3.6499 6.37433L2.13752 8.99999H4.58579C4.851 8.99999 5.10536 9.10535 5.29289 9.29288L6.92678 10.9268C6.97366 10.9737 7.03725 11 7.10355 11H10.8964C10.9628 11 11.0263 10.9737 11.0732 10.9268L12.7071 9.29288C12.8946 9.10535 13.149 8.99999 13.4142 8.99999H15.827L14.3463 6.36769L15.6537 5.6323L17.6468 9.17568C17.863 9.56001 17.9834 9.99028 17.9984 10.4301C17.9995 10.4532 18 10.4766 18 10.5V15.5C18 16.3284 17.3284 17 16.5 17H1.5C0.671573 17 0 16.3284 0 15.5V10.4411C0 9.95927 0.12657 9.48595 0.367038 9.06847ZM1.5 10.5H4.37868L5.86612 11.9874C6.19431 12.3156 6.63943 12.5 7.10355 12.5H10.8964C11.3606 12.5 11.8057 12.3156 12.1339 11.9874L13.6213 10.5H16.4998L16.5 10.5239V15.5H1.5L1.5 10.5Z" fill="#364141"/>
</svg>
