<svg width="18" height="18" viewBox="0 0 18 18" fill="none" xmlns="http://www.w3.org/2000/svg">
<path fill-rule="evenodd" clip-rule="evenodd" d="M1 4.9797C1 4.02485 1.34157 3.1015 1.96297 2.37653L3.40136 0.698417C3.78132 0.255125 4.33602 0 4.91987 0H13.0801C13.664 0 14.2187 0.255125 14.5986 0.698417L16.037 2.37653C16.6584 3.1015 17 4.02485 17 4.9797V8.5C17 9.32843 16.3284 10 15.5 10H2.5C1.67157 10 1 9.32843 1 8.5V4.9797ZM3.10186 3.35272L4.54024 1.6746C4.63523 1.56378 4.77391 1.5 4.91987 1.5H13.0801C13.2261 1.5 13.3648 1.56378 13.4598 1.6746L14.8981 3.35272C14.9391 3.40048 14.9781 3.44961 15.0151 3.5H12.9142C12.649 3.5 12.3946 3.60536 12.2071 3.79289L10.5732 5.42678C10.5263 5.47366 10.4628 5.5 10.3964 5.5H7.60355C7.53725 5.5 7.47366 5.47366 7.42678 5.42678L5.79289 3.79289C5.60536 3.60536 5.351 3.5 5.08579 3.5H2.98493C3.02193 3.44961 3.06092 3.40048 3.10186 3.35272ZM2.5 5V8.5H15.5V5H13.1213L11.6339 6.48744C11.3057 6.81563 10.8606 7 10.3964 7H7.60355C7.13943 7 6.69431 6.81563 6.36612 6.48744L4.87868 5H2.5Z" fill="#364141"/>
<path fill-rule="evenodd" clip-rule="evenodd" d="M1 11.5V16.5C1 17.3284 1.67157 18 2.5 18H15.5C16.3284 18 17 17.3284 17 16.5V11.5H12.9142C12.649 11.5 12.3946 11.6054 12.2071 11.7929L10.5732 13.4268C10.5263 13.4737 10.4628 13.5 10.3964 13.5H7.60355C7.53725 13.5 7.47366 13.4737 7.42678 13.4268L5.79289 11.7929C5.60536 11.6054 5.351 11.5 5.08579 11.5H1ZM15.5 16.5V13H13.1213L11.6339 14.4874C11.3057 14.8156 10.8606 15 10.3964 15H7.60355C7.13943 15 6.69431 14.8156 6.36612 14.4874L4.87868 13H2.5V16.5H15.5Z" fill="#364141"/>
</svg>
