<svg width="18" height="18" viewBox="0 0 18 18" fill="none" xmlns="http://www.w3.org/2000/svg">
<path d="M8 6.75H10V5.25H8V6.75Z" fill="#364141"/>
<path d="M14.5 6.75H12.5V5.25H14.5V6.75Z" fill="#364141"/>
<path d="M3.5 6.75H5.5V5.25H3.5V6.75Z" fill="#364141"/>
<path d="M10 9.75H8V8.25H10V9.75Z" fill="#364141"/>
<path d="M12.5 9.75H14.5V8.25H12.5V9.75Z" fill="#364141"/>
<path d="M5.5 9.75H3.5V8.25H5.5V9.75Z" fill="#364141"/>
<path d="M3.5 12.75H14.5V11.25H3.5V12.75Z" fill="#364141"/>
<path fill-rule="evenodd" clip-rule="evenodd" d="M0 3.5C0 2.67157 0.671573 2 1.5 2H16.5C17.3284 2 18 2.67157 18 3.5V14.5C18 15.3284 17.3284 16 16.5 16H1.5C0.671573 16 0 15.3284 0 14.5V3.5ZM1.5 3.5H16.5V14.5H1.5L1.5 3.5Z" fill="#364141"/>
</svg>
