<svg width="18" height="18" viewBox="0 0 18 18" fill="none" xmlns="http://www.w3.org/2000/svg">
<path d="M3.5 2C2.67157 2 2 2.67157 2 3.5V12.5H0C0 13.3284 0.671573 14 1.5 14H9.5V6.5C9.5 4.84315 10.8431 3.5 12.5 3.5H16C16 2.67157 15.3284 2 14.5 2H3.5Z" fill="#364141"/>
<path fill-rule="evenodd" clip-rule="evenodd" d="M11 6.5C11 5.67157 11.6716 5 12.5 5H16.5C17.3284 5 18 5.67157 18 6.5V14.5C18 15.3284 17.3284 16 16.5 16H12.5C11.6716 16 11 15.3284 11 14.5V6.5ZM15.25 13.75C15.25 14.1642 14.9142 14.5 14.5 14.5C14.0858 14.5 13.75 14.1642 13.75 13.75C13.75 13.3358 14.0858 13 14.5 13C14.9142 13 15.25 13.3358 15.25 13.75Z" fill="#364141"/>
</svg>
