<svg width="18" height="18" viewBox="0 0 18 18" fill="none" xmlns="http://www.w3.org/2000/svg">
<path d="M3.5 3.5H16C16 2.67157 15.3284 2 14.5 2H3.5C2.67157 2 2 2.67157 2 3.5V12.5H0C0 13.3284 0.671573 14 1.5 14H9.5V12.5H3.5V3.5Z" fill="#364141"/>
<path d="M15 13C15 13.2761 14.7761 13.5 14.5 13.5C14.2239 13.5 14 13.2761 14 13C14 12.7239 14.2239 12.5 14.5 12.5C14.7761 12.5 15 12.7239 15 13Z" fill="#364141"/>
<path fill-rule="evenodd" clip-rule="evenodd" d="M12.5 5C11.6716 5 11 5.67157 11 6.5V14.5C11 15.3284 11.6716 16 12.5 16H16.5C17.3284 16 18 15.3284 18 14.5V6.5C18 5.67157 17.3284 5 16.5 5H12.5ZM16.5 14.5V6.5H12.5V14.5H16.5Z" fill="#364141"/>
</svg>
