<svg width="18" height="18" viewBox="0 0 18 18" fill="none" xmlns="http://www.w3.org/2000/svg">
<path d="M15 5C16.1046 5 17 4.10457 17 3C17 1.89543 16.1046 1 15 1C13.8954 1 13 1.89543 13 3C13 4.10457 13.8954 5 15 5Z" fill="#364141"/>
<path fill-rule="evenodd" clip-rule="evenodd" d="M14 11C14 14.866 10.866 18 7 18C3.13401 18 0 14.866 0 11C0 7.13401 3.13401 4 7 4C10.866 4 14 7.13401 14 11ZM12.5 11C12.5 14.0376 10.0376 16.5 7 16.5C3.96243 16.5 1.5 14.0376 1.5 11C1.5 7.96243 3.96243 5.5 7 5.5C10.0376 5.5 12.5 7.96243 12.5 11Z" fill="#364141"/>
</svg>
