<svg width="18" height="18" viewBox="0 0 18 18" fill="none" xmlns="http://www.w3.org/2000/svg">
<path fill-rule="evenodd" clip-rule="evenodd" d="M12.43 13.1035C14.5608 11.9034 16 9.61978 16 7C16 3.13401 12.866 0 9 0C5.13401 0 2 3.13401 2 7C2 9.6295 3.44985 11.9204 5.59375 13.1168V14.5819C5.59375 16.4697 7.1241 18 9.01188 18C10.8997 18 12.43 16.4697 12.43 14.5819V13.1035ZM14.5 7C14.5 9.02327 13.4078 10.7938 11.7749 11.75H6.22507C4.59224 10.7938 3.5 9.02327 3.5 7C3.5 3.96243 5.96243 1.5 9 1.5C12.0376 1.5 14.5 3.96243 14.5 7ZM7.09375 13.25V14.5819C7.09375 15.6412 7.95252 16.5 9.01188 16.5C10.0712 16.5 10.93 15.6412 10.93 14.5819V13.25H7.09375Z" fill="#364141"/>
</svg>
