<svg width="24" height="24" viewBox="0 0 24 24" fill="none" xmlns="http://www.w3.org/2000/svg">
<path d="M9.79278 14.2072C11.564 15.9785 14.4358 15.9785 16.207 14.2072L19.207 11.2072C20.9782 9.436 20.9782 6.56426 19.207 4.79303C17.4358 3.02179 14.564 3.02179 12.7928 4.79303L11.7928 5.79303L13.207 7.20724L14.207 6.20724C15.1972 5.21705 16.8026 5.21705 17.7928 6.20724C18.783 7.19743 18.783 8.80284 17.7928 9.79303L14.7928 12.793C13.8026 13.7832 12.1972 13.7832 11.207 12.793L9.79278 14.2072Z" fill="#364141"/>
<path d="M14.207 9.79303C12.4358 8.02179 9.56402 8.02179 7.79278 9.79303L4.79278 12.793C3.02155 14.5643 3.02155 17.436 4.79278 19.2072C6.56402 20.9785 9.43576 20.9785 11.207 19.2072L12.207 18.2072L10.7928 16.793L9.79279 17.793C8.8026 18.7832 7.19718 18.7832 6.207 17.793C5.21681 16.8028 5.21681 15.1974 6.207 14.2072L9.207 11.2072C10.1972 10.2171 11.8026 10.2171 12.7928 11.2072L14.207 9.79303Z" fill="#364141"/>
<path d="M6.99989 7.00012V4.00012H8.99989V7.00012H6.99989Z" fill="#364141"/>
<path d="M6.99989 7.00012L6.99989 9.00012H3.99989L3.99989 7.00012L6.99989 7.00012Z" fill="#364141"/>
<path d="M14.9999 20.0001V17.0001H16.9999V20.0001H14.9999Z" fill="#364141"/>
<path d="M16.9999 17.0001V15.0001H19.9999V17.0001H16.9999Z" fill="#364141"/>
</svg>
