<svg width="24" height="24" viewBox="0 0 24 24" fill="none" xmlns="http://www.w3.org/2000/svg">
<path d="M9.79278 14.207C11.564 15.9782 14.4358 15.9782 16.207 14.207L19.207 11.207C20.9782 9.43576 20.9782 6.56402 19.207 4.79278C17.4358 3.02154 14.564 3.02155 12.7928 4.79278L11.7928 5.79278L13.207 7.207L14.207 6.207C15.1972 5.21681 16.8026 5.21681 17.7928 6.207C18.783 7.19718 18.783 8.80259 17.7928 9.79278L14.7928 12.7928C13.8026 13.783 12.1972 13.783 11.207 12.7928L9.79278 14.207Z" fill="#364141"/>
<path d="M14.207 9.79278C12.4358 8.02154 9.56402 8.02155 7.79278 9.79278L4.79278 12.7928C3.02155 14.564 3.02155 17.4358 4.79278 19.207C6.56402 20.9782 9.43576 20.9782 11.207 19.207L12.207 18.207L10.7928 16.7928L9.79279 17.7928C8.8026 18.783 7.19718 18.783 6.207 17.7928C5.21681 16.8026 5.21681 15.1972 6.207 14.207L9.207 11.207C10.1972 10.2168 11.8026 10.2168 12.7928 11.207L14.207 9.79278Z" fill="#364141"/>
</svg>
