<svg width="24" height="24" viewBox="0 0 24 24" fill="none" xmlns="http://www.w3.org/2000/svg">
<path d="M9.96956 14.0302C11.6432 15.7038 14.3566 15.7038 16.0302 14.0302L19.0302 11.0302C20.7038 9.35661 20.7038 6.64316 19.0302 4.96956C17.3566 3.29595 14.6432 3.29596 12.9696 4.96956L11.9696 5.96956L13.0302 7.03022L14.0302 6.03022C15.118 4.9424 16.8817 4.9424 17.9696 6.03022C19.0574 7.11804 19.0574 8.88174 17.9696 9.96956L14.9696 12.9696C13.8817 14.0574 12.118 14.0574 11.0302 12.9696L9.96956 14.0302Z" fill="#364141"/>
<path d="M14.0302 9.96956C12.3566 8.29595 9.64316 8.29596 7.96956 9.96956L4.96956 12.9696C3.29595 14.6432 3.29595 17.3566 4.96956 19.0302C6.64317 20.7038 9.35662 20.7038 11.0302 19.0302L12.0302 18.0302L10.9696 16.9696L9.96956 17.9696C8.88174 19.0574 7.11804 19.0574 6.03022 17.9696C4.9424 16.8817 4.9424 15.118 6.03022 14.0302L9.03022 11.0302C10.118 9.9424 11.8817 9.9424 12.9696 11.0302L14.0302 9.96956Z" fill="#364141"/>
</svg>
