<svg width="18" height="18" viewBox="0 0 18 18" fill="none" xmlns="http://www.w3.org/2000/svg">
<path d="M9 7C9.55228 7 10 6.55228 10 6C10 5.44772 9.55228 5 9 5C8.44772 5 8 5.44772 8 6C8 6.55228 8.44772 7 9 7Z" fill="#364141"/>
<path fill-rule="evenodd" clip-rule="evenodd" d="M16 7C16 10.866 11 18 9 18C7 18 2 10.866 2 7C2 3.13401 5.13401 0 9 0C12.866 0 16 3.13401 16 7ZM14.5 7C14.5 7.6838 14.2681 8.64456 13.8008 9.77786C13.3435 10.8868 12.7047 12.0556 11.9991 13.122C11.2907 14.1925 10.5447 15.1147 9.89184 15.7495C9.56393 16.0683 9.29123 16.2834 9.08688 16.4096C9.05342 16.4303 9.02452 16.4469 9 16.4602C8.97549 16.4469 8.94658 16.4303 8.91312 16.4096C8.70877 16.2834 8.43607 16.0683 8.10816 15.7495C7.45533 15.1147 6.70932 14.1925 6.00091 13.122C5.29525 12.0556 4.65653 10.8868 4.19922 9.77786C3.73186 8.64456 3.5 7.6838 3.5 7C3.5 3.96243 5.96243 1.5 9 1.5C12.0376 1.5 14.5 3.96243 14.5 7Z" fill="#364141"/>
</svg>
