<svg width="18" height="18" viewBox="0 0 18 18" fill="none" xmlns="http://www.w3.org/2000/svg">
<path fill-rule="evenodd" clip-rule="evenodd" d="M4.5 8V4.25C4.5 1.76472 6.51472 -0.25 9 -0.25C11.4853 -0.25 13.5 1.76472 13.5 4.25V8H14.5C15.3284 8 16 8.67157 16 9.5V16.5C16 17.3284 15.3284 18 14.5 18H3.5C2.67157 18 2 17.3284 2 16.5V9.5C2 8.67157 2.67157 8 3.5 8H4.5ZM6.5 4.25C6.5 2.86929 7.61929 1.75 9 1.75C10.3807 1.75 11.5 2.86929 11.5 4.25V8H6.5V4.25ZM10 12C10 12.5523 9.55228 13 9 13C8.44772 13 8 12.5523 8 12C8 11.4477 8.44772 11 9 11C9.55228 11 10 11.4477 10 12Z" fill="#364141"/>
</svg>
