<svg width="18" height="18" viewBox="0 0 18 18" fill="none" xmlns="http://www.w3.org/2000/svg">
<path d="M9 13C9.55228 13 10 12.5523 10 12C10 11.4477 9.55228 11 9 11C8.44772 11 8 11.4477 8 12C8 12.5523 8.44772 13 9 13Z" fill="#364141"/>
<path fill-rule="evenodd" clip-rule="evenodd" d="M4.75 4.25V8H3.5C2.67157 8 2 8.67157 2 9.5V16.5C2 17.3284 2.67157 18 3.5 18H14.5C15.3284 18 16 17.3284 16 16.5V9.5C16 8.67157 15.3284 8 14.5 8H13.25V4.25C13.25 1.90279 11.3472 0 9 0C6.65279 0 4.75 1.90279 4.75 4.25ZM9 1.5C7.48122 1.5 6.25 2.73122 6.25 4.25V8H11.75V4.25C11.75 2.73122 10.5188 1.5 9 1.5ZM3.5 9.5L3.5 16.5H14.5V9.5H3.5Z" fill="#364141"/>
</svg>
