<svg width="24" height="24" viewBox="0 0 24 24" fill="none" xmlns="http://www.w3.org/2000/svg">
<path fill-rule="evenodd" clip-rule="evenodd" d="M10.5713 4.24505C10.6693 3.87918 10.9664 3.60339 11.3443 3.5766C12.2459 3.51269 14.1166 3.51989 16.7856 4.23506C19.4547 4.95022 21.0783 5.87931 21.8272 6.38549C22.141 6.5976 22.2604 6.98501 22.1624 7.35087L20.547 13.3794C20.2009 14.6713 19.232 15.7047 17.9651 16.1332L13.7937 17.5444C13.4113 17.6738 12.9886 17.5605 12.7221 17.2573L9.81504 13.9494C8.93217 12.9448 8.60979 11.5655 8.95594 10.2736L10.5713 4.24505ZM14.7024 9.11194C14.8811 8.4451 14.4853 7.75968 13.8185 7.581C13.1517 7.40233 12.4663 7.79806 12.2876 8.46489L14.7024 9.11194ZM18.5661 10.1472C18.7448 9.48038 18.3491 8.79496 17.6822 8.61628C17.0154 8.4376 16.33 8.83333 16.1513 9.50016L18.5661 10.1472ZM14.346 13.343C12.8825 12.9509 11.9183 11.6254 11.9222 10.1786L13.4704 10.5935C13.616 11.2053 14.084 11.7199 14.7342 11.8941C15.3843 12.0683 16.047 11.8567 16.479 11.3996L18.0272 11.8145C17.3072 13.0694 15.8095 13.7351 14.346 13.343Z" fill="#364141"/>
<path fill-rule="evenodd" clip-rule="evenodd" d="M6.02757 7.62447C6.84472 7.40552 7.58341 7.25614 8.23825 7.15625L7.50703 9.88521C7.15555 11.1969 7.30536 12.5743 7.89663 13.7613C7.77919 13.7794 7.66156 13.804 7.54414 13.8355C6.08065 14.2276 5.11647 15.5531 5.12037 16.9999L6.66854 16.585C6.81416 15.9732 7.28221 15.4586 7.93237 15.2844C8.31766 15.1811 8.70734 15.2134 9.05082 15.3519L11.539 18.1832L9.92357 20.0213C9.65707 20.3246 9.23438 20.4378 8.85197 20.3085L4.99637 19.0042C3.72948 18.5756 2.7606 17.5422 2.41446 16.2504L0.906821 10.6238C0.808787 10.2579 0.928205 9.87062 1.24273 9.65957C1.9672 9.17344 3.50964 8.29915 6.02757 7.62447ZM3.50001 12.1821C3.67869 12.8489 4.36411 13.2446 5.03094 13.0659C5.69778 12.8873 6.0935 12.2018 5.91483 11.535L3.50001 12.1821Z" fill="#364141"/>
</svg>
