<svg width="22" height="18" viewBox="0 0 22 18" fill="none" xmlns="http://www.w3.org/2000/svg">
<path fill-rule="evenodd" clip-rule="evenodd" d="M9.57129 1.24505C9.66932 0.87918 9.96644 0.603385 10.3443 0.576602C11.2459 0.512685 13.1166 0.519893 15.7856 1.23506C18.4547 1.95022 20.0783 2.87931 20.8272 3.38549C21.141 3.5976 21.2604 3.98501 21.1624 4.35087L19.547 10.3794C19.2009 11.6713 18.232 12.7047 16.9651 13.1332L12.7937 14.5444C12.4113 14.6738 11.9886 14.5605 11.7221 14.2573L8.81504 10.9494C7.93217 9.94482 7.60979 8.56545 7.95594 7.27361L9.57129 1.24505ZM13.7024 6.11194C13.8811 5.4451 13.4853 4.75968 12.8185 4.581C12.1517 4.40233 11.4663 4.79806 11.2876 5.46489L13.7024 6.11194ZM17.5661 7.14721C17.7448 6.48038 17.3491 5.79496 16.6822 5.61628C16.0154 5.4376 15.33 5.83333 15.1513 6.50016L17.5661 7.14721ZM13.346 10.343C11.8825 9.95085 10.9183 8.62542 10.9222 7.17862L12.4704 7.59345C12.616 8.20532 13.084 8.7199 13.7342 8.8941C14.3843 9.06831 15.047 8.8567 15.479 8.39962L17.0272 8.81445C16.3072 10.0694 14.8095 10.7351 13.346 10.343Z" fill="#364141"/>
<path fill-rule="evenodd" clip-rule="evenodd" d="M5.02757 4.62447C5.84472 4.40552 6.58341 4.25614 7.23825 4.15625L6.50703 6.88521C6.15555 8.19693 6.30536 9.57429 6.89663 10.7613C6.77919 10.7794 6.66156 10.804 6.54414 10.8355C5.08065 11.2276 4.11647 12.5531 4.12037 13.9999L5.66854 13.585C5.81416 12.9732 6.28221 12.4586 6.93237 12.2844C7.31766 12.1811 7.70734 12.2134 8.05082 12.3519L10.539 15.1832L8.92357 17.0213C8.65707 17.3246 8.23438 17.4378 7.85197 17.3085L3.99637 16.0042C2.72948 15.5756 1.7606 14.5422 1.41446 13.2504L-0.0931791 7.62381C-0.191213 7.25795 -0.0717951 6.87062 0.242729 6.65957C0.967196 6.17344 2.50964 5.29915 5.02757 4.62447ZM2.50001 9.18205C2.67869 9.84889 3.36411 10.2446 4.03094 10.0659C4.69778 9.88726 5.0935 9.20184 4.91483 8.53501L2.50001 9.18205Z" fill="#364141"/>
</svg>
