<svg width="18" height="18" viewBox="0 0 18 18" fill="none" xmlns="http://www.w3.org/2000/svg">
<path d="M7.5 6.00012L14.2647 2.39228C14.5978 2.21465 15 2.45599 15 2.83345V15.1668C15 15.5442 14.5978 15.7856 14.2647 15.608L7.5 12.0001H6.50477C6.57251 13.3874 7.35704 14.6464 8.58459 15.316L8.72885 15.3947L7.77115 17.1505L7.62689 17.0718C5.75673 16.0517 4.57209 14.1196 4.50318 12.0001H1.5C0.671573 12.0001 0 11.3285 0 10.5001V7.50012C0 6.67169 0.671573 6.00012 1.5 6.00012H7.5Z" fill="#364141"/>
<path d="M16.5 6.50012V11.5001C17.3284 11.5001 18 10.8285 18 10.0001V8.00012C18 7.17169 17.3284 6.50012 16.5 6.50012Z" fill="#364141"/>
</svg>
