<svg width="18" height="18" viewBox="0 0 18 18" fill="none" xmlns="http://www.w3.org/2000/svg">
<path fill-rule="evenodd" clip-rule="evenodd" d="M1.5 12.0001H4.75332C4.82213 14.0281 5.95677 15.876 7.7466 16.8523L7.89086 16.931L8.60914 15.6142L8.46488 15.5355C7.15699 14.8221 6.32244 13.4789 6.25449 12.0001H7.5L14.2647 15.608C14.5978 15.7856 15 15.5442 15 15.1668V2.83345C15 2.45599 14.5978 2.21465 14.2647 2.39228L7.5 6.00012H1.5C0.671573 6.00012 0 6.67169 0 7.50012V10.5001C0 11.3285 0.671573 12.0001 1.5 12.0001ZM7.875 7.50012H6.25V10.5001H7.875L13.5 13.5001V4.50012L7.875 7.50012ZM1.5 7.50012H4.75V10.5001H1.5L1.5 7.50012Z" fill="#364141"/>
<path d="M16.5 6.50012V11.5001C17.3284 11.5001 18 10.8285 18 10.0001V8.00012C18 7.17169 17.3284 6.50012 16.5 6.50012Z" fill="#364141"/>
</svg>
