<svg width="18" height="18" viewBox="0 0 18 18" fill="none" xmlns="http://www.w3.org/2000/svg">
<path fill-rule="evenodd" clip-rule="evenodd" d="M5 4C5 1.79086 6.79086 0 9 0C11.2091 0 13 1.79086 13 4V7C13 9.20914 11.2091 11 9 11C6.79086 11 5 9.20914 5 7V4ZM11.5 4V7C11.5 8.38071 10.3807 9.5 9 9.5C7.61929 9.5 6.5 8.38071 6.5 7V4C6.5 2.61929 7.61929 1.5 9 1.5C10.3807 1.5 11.5 2.61929 11.5 4Z" fill="#364141"/>
<path d="M2.25 7C2.25 10.4744 4.87504 13.3357 8.25 13.7088V16.5H6.5C5.67157 16.5 5 17.1716 5 18H13C13 17.1716 12.3284 16.5 11.5 16.5H9.75V13.7088C13.125 13.3357 15.75 10.4744 15.75 7H14.25C14.25 9.8995 11.8995 12.25 9 12.25C6.10051 12.25 3.75 9.8995 3.75 7H2.25Z" fill="#364141"/>
</svg>
