<svg width="18" height="18" viewBox="0 0 18 18" fill="none" xmlns="http://www.w3.org/2000/svg">
<path fill-rule="evenodd" clip-rule="evenodd" d="M3.5 0C2.67157 0 2 0.671573 2 1.5V16.5C2 17.3284 2.67157 18 3.5 18H14.5C15.3284 18 16 17.3284 16 16.5V1.5C16 0.671573 15.3284 0 14.5 0H3.5ZM5.58541 3.17082L5 2H13L12.4146 3.17082C12.1605 3.679 11.6411 4 11.0729 4H6.92705C6.35889 4 5.8395 3.679 5.58541 3.17082ZM10 15C10 15.5523 9.55228 16 9 16C8.44772 16 8 15.5523 8 15C8 14.4477 8.44772 14 9 14C9.55228 14 10 14.4477 10 15Z" fill="#364141"/>
</svg>
