<svg width="18" height="18" viewBox="0 0 18 18" fill="none" xmlns="http://www.w3.org/2000/svg">
<path d="M10 14C10 14.5523 9.55228 15 9 15C8.44772 15 8 14.5523 8 14C8 13.4477 8.44772 13 9 13C9.55228 13 10 13.4477 10 14Z" fill="#364141"/>
<path fill-rule="evenodd" clip-rule="evenodd" d="M3.5 0C2.67157 0 2 0.671573 2 1.5V16.5C2 17.3284 2.67157 18 3.5 18H14.5C15.3284 18 16 17.3284 16 16.5V1.5C16 0.671573 15.3284 0 14.5 0H3.5ZM6.25 1.5H3.5L3.5 16.5H14.5V1.5H11.75L11.4146 2.17082C11.1605 2.679 10.6411 3 10.0729 3H7.92705C7.35889 3 6.8395 2.679 6.58541 2.17082L6.25 1.5Z" fill="#364141"/>
</svg>
