<svg width="18" height="18" viewBox="0 0 18 18" fill="none" xmlns="http://www.w3.org/2000/svg">
<path fill-rule="evenodd" clip-rule="evenodd" d="M2.5 1C1.67157 1 1 1.67157 1 2.5V15.5C1 16.3284 1.67157 17 2.5 17H6.75C7.57843 17 8.25 16.3284 8.25 15.5V2.5C8.25 1.67157 7.57843 1 6.75 1H2.5ZM6.75 2.5H2.5L2.5 15.5H6.75V2.5Z" fill="#364141"/>
<path fill-rule="evenodd" clip-rule="evenodd" d="M11.25 1C10.4216 1 9.75 1.67157 9.75 2.5V5.5C9.75 6.32843 10.4216 7 11.25 7H15.5C16.3284 7 17 6.32843 17 5.5V2.5C17 1.67157 16.3284 1 15.5 1H11.25ZM15.5 2.5H11.25V5.5H15.5V2.5Z" fill="#364141"/>
<path fill-rule="evenodd" clip-rule="evenodd" d="M9.75 10C9.75 9.17157 10.4216 8.5 11.25 8.5H15.5C16.3284 8.5 17 9.17157 17 10V15.5C17 16.3284 16.3284 17 15.5 17H11.25C10.4216 17 9.75 16.3284 9.75 15.5V10ZM11.25 10H15.5V15.5H11.25V10Z" fill="#364141"/>
</svg>
