<svg width="18" height="18" viewBox="0 0 18 18" fill="none" xmlns="http://www.w3.org/2000/svg">
<path d="M1 2.5C1 1.67157 1.67157 1 2.5 1H6.5C7.32843 1 8 1.67157 8 2.5V15.5C8 16.3284 7.32843 17 6.5 17H2.5C1.67157 17 1 16.3284 1 15.5V2.5Z" fill="#364141"/>
<path d="M10 2.5C10 1.67157 10.6716 1 11.5 1H15.5C16.3284 1 17 1.67157 17 2.5V5C17 5.82843 16.3284 6.5 15.5 6.5H11.5C10.6716 6.5 10 5.82843 10 5V2.5Z" fill="#364141"/>
<path d="M11.5 8.5C10.6716 8.5 10 9.17157 10 10V15.5C10 16.3284 10.6716 17 11.5 17H15.5C16.3284 17 17 16.3284 17 15.5V10C17 9.17157 16.3284 8.5 15.5 8.5H11.5Z" fill="#364141"/>
</svg>
