<svg width="18" height="18" viewBox="0 0 18 18" fill="none" xmlns="http://www.w3.org/2000/svg">
<path fill-rule="evenodd" clip-rule="evenodd" d="M6 5.25V9.75H10.5V5.25H6ZM9 6.75H7.5V8.25H9V6.75Z" fill="#364141"/>
<path d="M12 6.75H15V5.25H12V6.75Z" fill="#364141"/>
<path d="M15 9.75H12V8.25H15V9.75Z" fill="#364141"/>
<path d="M6 11.25V12.75L15 12.75V11.25L6 11.25Z" fill="#364141"/>
<path fill-rule="evenodd" clip-rule="evenodd" d="M3 3.5C3 2.67157 3.67157 2 4.5 2H16.5C17.3284 2 18 2.67157 18 3.5V14.5C18 15.3284 17.3284 16 16.5 16H3V3.5ZM4.5 3.5H16.5V14.5H4.5V3.5Z" fill="#364141"/>
<path d="M0 5.5H1.5V16C0.671573 16 0 15.3284 0 14.5V5.5Z" fill="#364141"/>
</svg>
