<svg width="18" height="18" viewBox="0 0 18 18" fill="none" xmlns="http://www.w3.org/2000/svg">
<path fill-rule="evenodd" clip-rule="evenodd" d="M1 2.5C1 1.67157 1.67157 1 2.5 1H15.5C16.3284 1 17 1.67157 17 2.5V7C17 12.5228 12.5228 17 7 17H2.5C1.67157 17 1 16.3284 1 15.5V2.5ZM7 15.5H2.5V2.5H15.5V7C15.5 7.27614 15.2761 7.5 15 7.5H11C9.067 7.5 7.5 9.067 7.5 11V15C7.5 15.2761 7.27614 15.5 7 15.5ZM15.2676 8.98225C15.1801 8.99396 15.0907 9 15 9H11C9.89543 9 9 9.89543 9 11V15C9 15.0907 8.99396 15.1801 8.98225 15.2676C12.0846 14.5265 14.5265 12.0846 15.2676 8.98225Z" fill="#364141"/>
</svg>
