<svg width="18" height="18" viewBox="0 0 18 18" fill="none" xmlns="http://www.w3.org/2000/svg">
<path d="M2.56152 1.47705V4.3042H3.39648V5H0.811035V4.3042H1.68994V2.28516H1.64355L0.811035 2.85889V2.0874L1.68994 1.47705H2.56152Z" fill="#364141"/>
<path d="M17 3.75H5V2.25H17V3.75Z" fill="#364141"/>
<path d="M5 9.75H17V8.25H5V9.75Z" fill="#364141"/>
<path d="M5 15.75H17V14.25H5V15.75Z" fill="#364141"/>
<path d="M0.62793 8.33057V8.34521H1.44824V8.32812C1.44824 8.0376 1.6582 7.83252 1.96094 7.83252C2.24902 7.83252 2.44189 8.00586 2.44189 8.26465C2.44189 8.47705 2.30273 8.66016 1.79248 9.12891L0.679199 10.1519V10.75H3.35742V10.0518H1.87305V10.0054L2.4541 9.49512C3.07422 8.95068 3.30859 8.59668 3.30859 8.20117C3.30859 7.57617 2.77881 7.15625 1.99268 7.15625C1.17725 7.15625 0.62793 7.62744 0.62793 8.33057Z" fill="#364141"/>
<path d="M2.00488 15.2583H1.57031V14.6406H2.00488C2.32227 14.6406 2.51514 14.4868 2.51514 14.2329C2.51514 13.979 2.32227 13.8252 2.00488 13.8252C1.69238 13.8252 1.48486 14.001 1.4751 14.272H0.696289C0.708496 13.5786 1.21387 13.1562 2.0293 13.1562C2.80811 13.1562 3.32324 13.5347 3.32324 14.106C3.32324 14.5137 3.07422 14.8213 2.68115 14.8921V14.9385C3.16455 14.9897 3.45264 15.2949 3.45264 15.7515C3.45264 16.3936 2.88379 16.8208 2.0293 16.8208C1.2041 16.8208 0.662109 16.3838 0.630371 15.6929H1.45068C1.46289 15.9492 1.67285 16.1079 2.00488 16.1079C2.34424 16.1079 2.56641 15.9395 2.56641 15.6831C2.56641 15.4268 2.34424 15.2583 2.00488 15.2583Z" fill="#364141"/>
</svg>
