<svg width="18" height="18" viewBox="0 0 18 18" fill="none" xmlns="http://www.w3.org/2000/svg">
<path d="M0.710999 3.04915L1.5899 2.44345V4.2041H0.710999V5.0999H3.49645V4.2041H2.66149V1.37695H1.65859L0.710999 2.035V3.04915Z" fill="#364141"/>
<path d="M17 4H5.99997V2H17V4Z" fill="#364141"/>
<path d="M5.99997 10H17V8H5.99997V10Z" fill="#364141"/>
<path d="M5.99997 16H17V14H5.99997V16Z" fill="#364141"/>
<path fill-rule="evenodd" clip-rule="evenodd" d="M0.527893 8.44512V8.33047C0.527893 7.95099 0.677022 7.62928 0.939289 7.40381C1.20024 7.17947 1.56614 7.05615 1.99264 7.05615C2.40264 7.05615 2.75521 7.16563 3.00756 7.36591C3.26182 7.5677 3.40856 7.85761 3.40856 8.20107C3.40856 8.64443 3.14135 9.02469 2.52005 9.57016L2.08561 9.95166H3.45739V10.8499H0.579163V10.1078L1.72478 9.05517C1.98016 8.82057 2.13619 8.66315 2.22861 8.5404C2.31831 8.42126 2.34186 8.343 2.34186 8.26455C2.34186 8.16143 2.30418 8.08118 2.24257 8.02582C2.18001 7.96961 2.08512 7.93242 1.9609 7.93242C1.83253 7.93242 1.73027 7.97556 1.66064 8.04307C1.59121 8.11039 1.54821 8.20769 1.54821 8.32803V8.44512H0.527893ZM1.69657 7.17838C1.04704 7.27916 0.627899 7.71638 0.627899 8.33057C0.627899 8.30172 0.628818 8.27317 0.630647 8.24512C0.667773 7.67595 1.07755 7.2744 1.69657 7.17838Z" fill="#364141"/>
<path fill-rule="evenodd" clip-rule="evenodd" d="M1.47028 14.5405V15.3582H2.00485C2.15914 15.3582 2.27642 15.3966 2.35251 15.4542C2.42615 15.51 2.46637 15.587 2.46637 15.683C2.46637 15.7791 2.42615 15.8561 2.35251 15.9118C2.27642 15.9694 2.15914 16.0078 2.00485 16.0078C1.85364 16.0078 1.74128 15.9716 1.66785 15.9165C1.59686 15.8632 1.55526 15.7873 1.55053 15.688L1.546 15.5928H0.525635L0.530439 15.6974C0.54755 16.0699 0.703377 16.3791 0.969483 16.5937C1.23396 16.8069 1.59969 16.9207 2.02926 16.9207C2.47204 16.9207 2.85075 16.8101 3.12143 16.6068C3.39444 16.4017 3.5526 16.1053 3.5526 15.7514C3.5526 15.5013 3.47321 15.285 3.32072 15.1241C3.2262 15.0244 3.10667 14.9491 2.9672 14.8998C3.25224 14.7507 3.4232 14.4596 3.4232 14.1059C3.4232 13.7866 3.27775 13.5199 3.02746 13.3362C2.77969 13.1543 2.43362 13.0562 2.02926 13.0562C1.60518 13.0562 1.24995 13.166 0.997379 13.3773C0.742915 13.5902 0.602823 13.8978 0.596267 14.2701L0.594476 14.3719H1.57152L1.575 14.2755C1.57893 14.1663 1.62171 14.0817 1.69094 14.0233C1.76139 13.9638 1.86692 13.9251 2.00485 13.9251C2.14871 13.9251 2.25171 13.9601 2.31659 14.0119C2.37872 14.0615 2.4151 14.1336 2.4151 14.2328C2.4151 14.332 2.37872 14.4041 2.31659 14.4537C2.25171 14.5056 2.14871 14.5405 2.00485 14.5405H1.47028ZM2.68964 14.9393C2.73447 14.9444 2.77759 14.9516 2.81894 14.961C3.05023 15.0134 3.22596 15.1321 3.33302 15.3024C3.2056 15.0997 2.98092 14.9703 2.68112 14.9385L2.68964 14.9393ZM1.50861 13.2241C1.03608 13.3601 0.74464 13.6946 0.701581 14.1719C0.698634 14.2045 0.696857 14.238 0.696259 14.272C0.7056 13.7414 1.00373 13.3695 1.50861 13.2241Z" fill="#364141"/>
</svg>
