<svg width="18" height="18" viewBox="0 0 18 18" fill="none" xmlns="http://www.w3.org/2000/svg">
<path fill-rule="evenodd" clip-rule="evenodd" d="M11.3033 11.0001H2.12134L6.71233 15.591L11.3033 11.0001ZM0.560677 9.4394L4.46969 5.53039L1.96969 3.03039L3.03035 1.96973L5.53035 4.46973L7.64646 2.35361C7.84173 2.15835 8.15831 2.15835 8.35357 2.35361L14.8588 8.85882C15.054 9.05408 15.054 9.37066 14.8588 9.56592L7.77299 16.6517C7.1872 17.2375 6.23746 17.2375 5.65167 16.6517L0.560678 11.5607C-0.025108 10.9749 -0.0251095 10.0252 0.560677 9.4394ZM15 11.7501L13.549 13.3824C13.1954 13.7803 13 14.2941 13 14.8265V15.0001C13 16.1046 13.8954 17.0001 15 17.0001C16.1046 17.0001 17 16.1046 17 15.0001V14.8265C17 14.2941 16.8047 13.7803 16.451 13.3824L15 11.7501Z" fill="#364141"/>
</svg>
