<svg width="18" height="18" viewBox="0 0 18 18" fill="none" xmlns="http://www.w3.org/2000/svg">
<path fill-rule="evenodd" clip-rule="evenodd" d="M0.560677 9.4394L4.46969 5.53039L1.96969 3.03039L3.03035 1.96973L5.53035 4.46973L7.64646 2.35361C7.84173 2.15835 8.15831 2.15835 8.35357 2.35361L14.8588 8.85882C15.054 9.05408 15.054 9.37066 14.8588 9.56592L7.77299 16.6517C7.1872 17.2375 6.23746 17.2375 5.65167 16.6517L0.560678 11.5607C-0.0251079 10.9749 -0.0251094 10.0252 0.560677 9.4394ZM6.96969 8.03039L5.53035 6.59105L1.62134 10.5001H11.8033L13.091 9.21237L8.00002 4.12138L6.59101 5.53039L8.03035 6.96973L6.96969 8.03039Z" fill="#364141"/>
<path fill-rule="evenodd" clip-rule="evenodd" d="M15.25 10.8611L13.3852 12.9923C12.9757 13.4603 12.75 14.061 12.75 14.6828V14.7501C12.75 16.1308 13.8693 17.2501 15.25 17.2501C16.6307 17.2501 17.75 16.1308 17.75 14.7501V14.6828C17.75 14.061 17.5243 13.4603 17.1148 12.9923L15.25 10.8611ZM14.5141 13.9801L15.25 13.139L15.986 13.9801C16.1562 14.1746 16.25 14.4243 16.25 14.6828V14.7501C16.25 15.3023 15.8023 15.7501 15.25 15.7501C14.6977 15.7501 14.25 15.3023 14.25 14.7501V14.6828C14.25 14.4243 14.3438 14.1746 14.5141 13.9801Z" fill="#364141"/>
</svg>
