<svg width="18" height="18" viewBox="0 0 18 18" fill="none" xmlns="http://www.w3.org/2000/svg">
<path fill-rule="evenodd" clip-rule="evenodd" d="M16 16.5C16 17.3284 15.3284 18 14.5 18H3.5C2.67157 18 2 17.3284 2 16.5V1.5C2 0.72335 2.59025 0.0845594 3.34663 0.00774434C3.39706 0.00262333 3.44822 0 3.5 0H8.75C12.7541 0 16 3.24594 16 7.25V16.5ZM3.5 1.5L3.5 16.5H14.5V8C14.5 7.72386 14.2761 7.5 14 7.5H11.5C9.84315 7.5 8.5 6.15685 8.5 4.5V2C8.5 1.72386 8.27614 1.5 8 1.5H3.5ZM9.96561 1.62874C9.98819 1.74904 10 1.87314 10 2V4.5C10 5.32843 10.6716 6 11.5 6H14C14.1269 6 14.251 6.01181 14.3713 6.0344C13.8978 3.83443 12.1656 2.10223 9.96561 1.62874Z" fill="#364141"/>
</svg>
