<svg width="18" height="18" viewBox="0 0 18 18" fill="none" xmlns="http://www.w3.org/2000/svg">
<path fill-rule="evenodd" clip-rule="evenodd" d="M7.4409 1.38295C9.33872 -0.570685 12.4753 -0.570685 14.3731 1.38295C16.1947 3.25812 16.1947 6.24196 14.3731 8.11714L9.72367 12.9034C8.50998 14.1527 6.50406 14.1528 5.29037 12.9034C4.12543 11.7042 4.12543 9.79593 5.29037 8.59673L9.70403 4.05326L11.1386 5.44683L6.72493 9.9903C6.31391 10.4134 6.31391 11.0867 6.72493 11.5098C7.15315 11.9506 7.86089 11.9506 8.28911 11.5098L12.9386 6.72356C14.0063 5.62449 14.0063 3.8756 12.9386 2.77652C11.8262 1.63146 9.98781 1.63146 8.87545 2.77652L3.74027 8.06275C2.01594 9.83779 2.01594 12.6623 3.74027 14.4373C5.53675 16.2867 8.50587 16.2867 10.3024 14.4373L15.0469 9.55326L16.4814 10.9468L11.7369 15.8309C9.15496 18.4888 4.88766 18.4888 2.30571 15.8309C-0.172541 13.2798 -0.17254 9.22032 2.30571 6.66918L7.4409 1.38295Z" fill="#364141"/>
</svg>
