<svg width="18" height="18" viewBox="0 0 18 18" fill="none" xmlns="http://www.w3.org/2000/svg">
<path fill-rule="evenodd" clip-rule="evenodd" d="M2 16.5C2 17.3284 2.67157 18 3.5 18H14.5C15.3284 18 16 17.3284 16 16.5V9C16 8.17157 15.3284 7.5 14.5 7.5H12.25C10.4551 7.5 9 6.04493 9 4.25V1.5C9 0.671573 8.32843 0 7.5 0H3.5C2.67157 0 2 0.671573 2 1.5V16.5ZM9.75 15.5V10H8.25V15.5H9.75ZM12.75 15.5V11.5H11.25V15.5H12.75ZM5.25 13V15.5H6.75V13H5.25Z" fill="#364141"/>
<path d="M10.5 0.161133V3.75004C10.5 4.99268 11.5074 6.00004 12.75 6.00004H15.9291C15.5147 3.10303 13.3265 0.778233 10.5 0.161133Z" fill="#364141"/>
</svg>
