<svg width="18" height="18" viewBox="0 0 18 18" fill="none" xmlns="http://www.w3.org/2000/svg">
<path fill-rule="evenodd" clip-rule="evenodd" d="M16.4162 0.329077L0.726724 5.28366C0.0342689 5.50233 -0.201586 6.36287 0.282615 6.90403L3.50004 10.5V13.5C3.50004 14.0523 3.94775 14.5 4.50004 14.5H7.50004L8.50006 15.3947V13.5C8.50006 10.7386 10.7386 8.5 13.5001 8.5H15.4869L17.6709 1.58379C17.9147 0.811872 17.1881 0.0853134 16.4162 0.329077ZM5.00004 9.99998L13.042 4.25572C13.2917 4.07735 13.5811 4.41893 13.3641 4.63593L5.00004 13V9.99998Z" fill="#364141"/>
<path d="M11.5001 17.0855V17.9999H10.0001V14.2499H13.5001V15.7499H12.2558C12.7212 16.2137 13.363 16.4999 14.0709 16.4999C15.1597 16.4999 16.0921 15.8228 16.4666 14.8639L17.8638 15.4096C17.2722 16.9246 15.798 17.9999 14.0709 17.9999C13.0954 17.9999 12.2007 17.657 11.5001 17.0855Z" fill="#364141"/>
<path d="M16.5001 10.9144V9.99994H18.0001V13.7499H14.5001V12.2499H15.7443C15.2789 11.7862 14.6371 11.4999 13.9293 11.4999C12.8405 11.4999 11.908 12.1771 11.5335 13.136L10.1363 12.5903C10.7279 11.0753 12.2021 9.99994 13.9293 9.99994C14.9047 9.99994 15.7994 10.3429 16.5001 10.9144Z" fill="#364141"/>
</svg>
