<svg width="18" height="18" viewBox="0 0 18 18" fill="none" xmlns="http://www.w3.org/2000/svg">
<path fill-rule="evenodd" clip-rule="evenodd" d="M2 16.5C2 17.3284 2.67157 18 3.5 18H14.5C15.3284 18 16 17.3284 16 16.5V9C16 8.17157 15.3284 7.5 14.5 7.5H12.25C10.4551 7.5 9 6.04493 9 4.25V1.5C9 0.671573 8.32843 0 7.5 0H3.5C2.67157 0 2 0.671573 2 1.5V16.5ZM6 13.7379V15.2707H7.53281C7.59911 15.2707 7.6627 15.2444 7.70959 15.1975L10.2146 12.6925L8.57827 11.0561L6.07322 13.5611C6.02634 13.608 6 13.6716 6 13.7379ZM11.1818 11.7253L10.9217 11.9853L9.28537 10.349L9.54545 10.0889C9.99732 9.63703 10.7299 9.63703 11.1818 10.0889C11.6337 10.5408 11.6337 11.2734 11.1818 11.7253Z" fill="#364141"/>
<path d="M10.5 0.161133V3.75004C10.5 4.99268 11.5074 6.00004 12.75 6.00004H15.9291C15.5147 3.10303 13.3265 0.778233 10.5 0.161133Z" fill="#364141"/>
</svg>
