<svg width="24" height="24" viewBox="0 0 24 24" fill="none" xmlns="http://www.w3.org/2000/svg">
<path fill-rule="evenodd" clip-rule="evenodd" d="M19.4162 3.32908L3.72672 8.28366C3.03427 8.50233 2.79841 9.36287 3.28261 9.90403L6.50004 13.5V16.5C6.50004 17.0523 6.94775 17.5 7.50004 17.5H10.5L11.5001 18.3947V16.5C11.5001 13.7386 13.7386 11.5 16.5001 11.5H18.4869L20.6709 4.58379C20.9147 3.81187 20.1881 3.08531 19.4162 3.32908ZM8.00004 13L16.042 7.25572C16.2917 7.07735 16.5811 7.41893 16.3641 7.63593L8.00004 16V13Z" fill="#364141"/>
<path d="M14.5001 20.0855V20.9999H13.0001V17.2499H16.5001V18.7499H15.2558C15.7212 19.2137 16.363 19.4999 17.0709 19.4999C18.1597 19.4999 19.0921 18.8228 19.4666 17.8639L20.8638 18.4096C20.2722 19.9246 18.798 20.9999 17.0709 20.9999C16.0954 20.9999 15.2007 20.657 14.5001 20.0855Z" fill="#364141"/>
<path d="M19.5001 13.9144V12.9999H21.0001V16.7499H17.5001V15.2499H18.7443C18.2789 14.7862 17.6371 14.4999 16.9293 14.4999C15.8405 14.4999 14.908 15.1771 14.5335 16.136L13.1363 15.5903C13.7279 14.0753 15.2021 12.9999 16.9293 12.9999C17.9047 12.9999 18.7994 13.3429 19.5001 13.9144Z" fill="#364141"/>
</svg>
