<svg width="18" height="18" viewBox="0 0 18 18" fill="none" xmlns="http://www.w3.org/2000/svg">
<path d="M1.881 6.37938L15.8739 2.12622L13.9366 8.50006H15.5043L17.5815 1.66624C17.814 0.901129 17.099 0.186096 16.3339 0.41865L0.702895 5.1697C0.00757611 5.38105 -0.237239 6.24001 0.242169 6.78617L3.75007 10.7825V13.35C3.75007 13.8471 4.15302 14.25 4.65007 14.25H7.2176L8.50006 15.3758V13.3799L7.78255 12.75H5.25007L12.4811 5.51898C12.6971 5.30302 12.4112 4.96225 12.161 5.1374L5.11821 10.0673L1.881 6.37938Z" fill="#364141"/>
<path d="M11.9878 18.0001H11.7535C11.8317 18.0093 11.9104 18.0091 11.9878 18.0001Z" fill="#364141"/>
<path d="M11.5001 17.0856V18H10.0001V14.25H13.5001V15.75H12.2558C12.7212 16.2138 13.363 16.5 14.0709 16.5C15.1597 16.5 16.0921 15.8228 16.4666 14.864L17.8638 15.4096C17.2722 16.9246 15.798 18 14.0709 18C13.0954 18 12.2007 17.657 11.5001 17.0856Z" fill="#364141"/>
<path d="M16.5001 10.9144V10H18.0001V13.75H14.5001V12.25H15.7443C15.2789 11.7862 14.6371 11.5 13.9293 11.5C12.8405 11.5 11.908 12.1772 11.5335 13.136L10.1363 12.5904C10.7279 11.0754 12.2021 10 13.9293 10C14.9047 10 15.7994 10.343 16.5001 10.9144Z" fill="#364141"/>
</svg>
