<svg width="24" height="24" viewBox="0 0 24 24" fill="none" xmlns="http://www.w3.org/2000/svg">
<path d="M4.881 9.37938L18.8739 5.12622L16.9366 11.5001H18.5043L20.5815 4.66624C20.814 3.90113 20.099 3.1861 19.3339 3.41865L3.70289 8.1697C3.00758 8.38105 2.76276 9.24001 3.24217 9.78617L6.75007 13.7825V16.35C6.75007 16.8471 7.15302 17.25 7.65007 17.25H10.2176L11.5001 18.3758V16.3799L10.7825 15.75H8.25007L15.4811 8.51898C15.6971 8.30302 15.4112 7.96225 15.161 8.1374L8.11821 13.0673L4.881 9.37938Z" fill="#364141"/>
<path d="M14.9878 21.0001H14.7535C14.8317 21.0093 14.9104 21.0091 14.9878 21.0001Z" fill="#364141"/>
<path d="M14.5001 20.0856V21H13.0001V17.25H16.5001V18.75H15.2558C15.7212 19.2138 16.363 19.5 17.0709 19.5C18.1597 19.5 19.0921 18.8228 19.4666 17.864L20.8638 18.4096C20.2722 19.9246 18.798 21 17.0709 21C16.0954 21 15.2007 20.657 14.5001 20.0856Z" fill="#364141"/>
<path d="M19.5001 13.9144V13H21.0001V16.75H17.5001V15.25H18.7443C18.2789 14.7862 17.6371 14.5 16.9293 14.5C15.8405 14.5 14.908 15.1772 14.5335 16.136L13.1363 15.5904C13.7279 14.0754 15.2021 13 16.9293 13C17.9047 13 18.7994 13.343 19.5001 13.9144Z" fill="#364141"/>
</svg>
