<svg width="18" height="18" viewBox="0 0 18 18" fill="none" xmlns="http://www.w3.org/2000/svg">
<path d="M9.75 14.5V9H8.25V14.5H9.75Z" fill="#364141"/>
<path d="M12.75 14.5V10.5H11.25V14.5H12.75Z" fill="#364141"/>
<path d="M5.25 12V14.5H6.75V12H5.25Z" fill="#364141"/>
<path fill-rule="evenodd" clip-rule="evenodd" d="M16 16.5V7.25C16 3.24594 12.7541 0 8.75 0H3.5C3.44822 0 3.39706 0.00262333 3.34663 0.00774434C2.59025 0.0845594 2 0.72335 2 1.5V16.5C2 17.3284 2.67157 18 3.5 18H14.5C15.3284 18 16 17.3284 16 16.5ZM3.5 16.5L3.5 1.5H8C8.27614 1.5 8.5 1.72386 8.5 2V4.5C8.5 6.15685 9.84315 7.5 11.5 7.5H14C14.2761 7.5 14.5 7.72386 14.5 8V16.5H3.5ZM10 2C10 1.87314 9.98819 1.74904 9.96561 1.62874C12.1656 2.10223 13.8978 3.83443 14.3713 6.0344C14.251 6.01181 14.1269 6 14 6H11.5C10.6716 6 10 5.32843 10 4.5V2Z" fill="#364141"/>
</svg>
