<svg width="18" height="18" viewBox="0 0 18 18" fill="none" xmlns="http://www.w3.org/2000/svg">
<path fill-rule="evenodd" clip-rule="evenodd" d="M1 2.5C1 1.67157 1.67157 1 2.5 1H6.5C7.32843 1 8 1.67157 8 2.5V15.5C8 16.3284 7.32843 17 6.5 17H2.5C1.67157 17 1 16.3284 1 15.5V2.5ZM2.5 2.5H6.5V15.5H2.5L2.5 2.5Z" fill="#364141"/>
<path fill-rule="evenodd" clip-rule="evenodd" d="M10 2.5C10 1.67157 10.6716 1 11.5 1H15.5C16.3284 1 17 1.67157 17 2.5V15.5C17 16.3284 16.3284 17 15.5 17H11.5C10.6716 17 10 16.3284 10 15.5V2.5ZM11.5 2.5H15.5V15.5H11.5V2.5Z" fill="#364141"/>
</svg>
