<svg width="18" height="18" viewBox="0 0 18 18" fill="none" xmlns="http://www.w3.org/2000/svg">
<path fill-rule="evenodd" clip-rule="evenodd" d="M16.0251 2.02509L15.9749 1.97483C14.608 0.607998 12.392 0.607999 11.0251 1.97483L1.43934 11.5606C1.15804 11.8419 1 12.2235 1 12.6213V17H5.37868C5.7765 17 6.15804 16.8419 6.43934 16.5606L16.0251 6.97483C17.392 5.608 17.392 3.39192 16.0251 2.02509ZM14.9142 3.03549L14.9645 3.08575C15.7455 3.86679 15.7455 5.13312 14.9645 5.91417L13.9698 6.90889L11.0911 4.03021L12.0858 3.03549C12.8668 2.25444 14.1332 2.25445 14.9142 3.03549ZM10.0304 5.09087L2.5 12.6213L2.5 15.5L5.37868 15.5L12.9091 7.96955L10.0304 5.09087Z" fill="#364141"/>
</svg>
