<svg width="18" height="18" viewBox="0 0 18 18" fill="none" xmlns="http://www.w3.org/2000/svg">
<path d="M10.4576 4.99151C11.7412 4.88602 12.75 3.81082 12.75 2.5C12.75 1.11929 11.6307 0 10.25 0C8.8693 0 7.75001 1.11929 7.75001 2.5C7.75001 3.46558 8.29741 4.3033 9.09882 4.71976L8.78937 4.65787C8.32851 4.5657 7.86566 4.80689 7.67719 5.23742L7.6177 5.3733L5.06451 5.13927C4.1672 5.05703 3.32569 5.58498 3.0093 6.42868L2.30446 8.30825C2.15028 8.7194 2.28235 9.18303 2.63005 9.45121L9.50001 14.75V16.75C9.50001 17.4404 10.0597 18 10.75 18C11.4404 18 12 17.4404 12 16.75V13.9628C12 13.5117 11.7971 13.0847 11.4474 12.7998L9.54505 11.25L10.5451 8.75L12.188 10.1876C12.4182 10.389 12.7136 10.5 13.0195 10.5H14.1701C14.3951 10.5 14.6075 10.4459 14.795 10.3501V18H16.295V5H14.795V7.89991C14.6075 7.80406 14.3951 7.75 14.1701 7.75H13.5451L10.5 5L10.4576 4.99151Z" fill="#364141"/>
<path d="M2.81054 16.0536L4.79505 12.25L5.48489 13.2615C6.10963 14.1776 6.17814 15.3636 5.66302 16.3455L5.16886 17.2874C4.93903 17.7256 4.48513 18 3.9904 18C2.99107 18 2.34829 16.9396 2.81054 16.0536Z" fill="#364141"/>
</svg>
