<svg width="18" height="18" viewBox="0 0 18 18" fill="none" xmlns="http://www.w3.org/2000/svg">
<path fill-rule="evenodd" clip-rule="evenodd" d="M11.8746 4.54945C12.2923 4.06716 12.545 3.43809 12.545 2.75C12.545 1.23122 11.3138 0 9.79498 0C8.2762 0 7.04498 1.23122 7.04498 2.75C7.04498 3.30365 7.20859 3.81908 7.4901 4.25059C7.30827 4.34588 7.13726 4.46138 6.98057 4.59506L5.46353 4.21148C4.10548 3.86811 2.70636 4.6004 2.21452 5.91199L1.61156 7.51986C1.33397 8.26012 1.58716 9.09456 2.22931 9.55574L7.10751 13.0592L7.11076 13.0547L8.80003 14.3671V15.8775C8.80003 17.0497 9.7503 18 10.9225 18C12.0947 18 13.045 17.0497 13.045 15.8775V13.2638C13.045 12.544 12.7006 11.8676 12.1184 11.4442L10.4581 10.2367L10.8481 9.26176L11.6941 10.002C12.061 10.323 12.5319 10.5 13.0195 10.5H14.17C14.3875 10.5 14.5974 10.4673 14.795 10.4066V18H16.295V5H14.795V6.3434C14.5974 6.28268 14.3875 6.25 14.17 6.25H13.826L11.8746 4.54945ZM9.79498 4C10.4853 4 11.045 3.44036 11.045 2.75C11.045 2.05964 10.4853 1.5 9.79498 1.5C9.10463 1.5 8.54498 2.05964 8.54498 2.75C8.54498 3.44036 9.10463 4 9.79498 4ZM4.68121 9.46989C4.70713 9.36614 4.74069 9.26327 4.78211 9.16205L6.10799 5.92163L5.09583 5.66572C4.47854 5.50964 3.84258 5.8425 3.61901 6.43868L3.01606 8.04655C2.9764 8.1523 3.01257 8.2715 3.10431 8.33739L4.68121 9.46989ZM14.795 8.375C14.795 8.02982 14.5152 7.75 14.17 7.75H13.2641L10.9273 5.71361L8.93151 5.4475C8.36797 5.37236 7.82471 5.68698 7.60941 6.21317L6.17039 9.73009C6.04293 10.0416 6.1386 10.3999 6.4044 10.6064L10.3 13.6329V15.8775C10.3 16.2213 10.5787 16.5 10.9225 16.5C11.2663 16.5 11.545 16.2213 11.545 15.8775V13.2638C11.545 13.0239 11.4302 12.7984 11.2361 12.6573L8.63192 10.7633L10.2419 6.73824L12.6818 8.87313C12.7753 8.95492 12.8953 9 13.0195 9H14.17C14.5152 9 14.795 8.72018 14.795 8.375Z" fill="#364141"/>
<path d="M4.11436 12.3214C4.48915 12.4978 4.65 12.9446 4.47363 13.3193L3.39116 15.6196C3.19843 16.0291 3.49724 16.5 3.94986 16.5C4.18375 16.5 4.39756 16.3679 4.50215 16.1587L5.37419 14.4146C5.55943 14.0441 6.00994 13.8939 6.38042 14.0792C6.75091 14.2644 6.90107 14.7149 6.71583 15.0854L5.84379 16.8295C5.48511 17.5469 4.7519 18 3.94986 18C2.39772 18 1.37303 16.3853 2.03393 14.9809L3.1164 12.6807C3.29277 12.3059 3.73957 12.145 4.11436 12.3214Z" fill="#364141"/>
</svg>
