<svg width="24" height="24" viewBox="0 0 24 24" fill="none" xmlns="http://www.w3.org/2000/svg">
<path fill-rule="evenodd" clip-rule="evenodd" d="M8.60998 3.54934C8.02012 2.95947 7.09591 2.86796 6.40182 3.33068L4.44287 4.63665C4.02303 4.91654 3.75677 5.37535 3.72206 5.87874C3.17787 13.7695 9.73048 20.3221 17.6212 19.7779C18.1246 19.7432 18.5834 19.4769 18.8633 19.0571L20.1693 17.0981C20.632 16.404 20.5405 15.4798 19.9506 14.89L18.11 13.0493C17.5201 12.4595 16.5959 12.368 15.9018 12.8307L13.9036 14.1628L12.8169 13.7553C11.3972 13.2229 10.277 12.1027 9.7446 10.683L9.3371 9.59635L10.6693 7.59812C11.132 6.90403 11.0405 5.97982 10.4506 5.38996L8.60998 3.54934ZM7.54932 4.61C7.46505 4.52573 7.33302 4.51266 7.23387 4.57876L6.71894 4.92204L5.27492 5.88472C5.24206 5.90663 5.22122 5.94254 5.2185 5.98194C4.73695 12.9645 10.5354 18.763 17.518 18.2814C17.5574 18.2787 17.5933 18.2579 17.6152 18.225L18.9212 16.2661C18.9873 16.1669 18.9742 16.0349 18.8899 15.9506L17.0493 14.11C16.9651 14.0257 16.833 14.0127 16.7339 14.0788L14.0963 15.8371L12.2902 15.1598C10.4649 14.4753 9.02462 13.0351 8.34011 11.2097L7.66282 9.4036L9.42118 6.76607C9.48728 6.66691 9.47421 6.53488 9.38994 6.45062L8.02515 5.08583L7.54932 4.61Z" fill="#364141"/>
</svg>
