<svg width="18" height="18" viewBox="0 0 18 18" fill="none" xmlns="http://www.w3.org/2000/svg">
<path fill-rule="evenodd" clip-rule="evenodd" d="M6 0C6.41421 0 6.75 0.335786 6.75 0.75V4.25H11.25V0.75C11.25 0.335786 11.5858 0 12 0C12.4142 0 12.75 0.335786 12.75 0.75V4.25H15.2983L14.9243 10.2339C14.8008 12.2103 13.1619 13.75 11.1816 13.75H9.75V14.25C9.75 16.3211 8.07107 18 6 18H4V16.5H6C7.24264 16.5 8.25 15.4926 8.25 14.25V13.75H6.81835C4.83811 13.75 3.19918 12.2103 3.07566 10.2339L2.70166 4.25H5.25V0.75C5.25 0.335786 5.58578 0 6 0ZM4.29834 5.75L4.57273 10.1404C4.64685 11.3262 5.63021 12.25 6.81835 12.25H11.1816C12.3698 12.25 13.3531 11.3262 13.4273 10.1404L13.7017 5.75H4.29834Z" fill="#364141"/>
</svg>
