<svg width="24" height="24" viewBox="0 0 24 24" fill="none" xmlns="http://www.w3.org/2000/svg">
<path fill-rule="evenodd" clip-rule="evenodd" d="M9 3C9.41421 3 9.75 3.33579 9.75 3.75V7.25H14.25V3.75C14.25 3.33579 14.5858 3 15 3C15.4142 3 15.75 3.33579 15.75 3.75V7.25H18.2983L17.9243 13.2339C17.8008 15.2103 16.1619 16.75 14.1816 16.75H12.75V17.25C12.75 19.3211 11.0711 21 9 21H7V19.5H9C10.2426 19.5 11.25 18.4926 11.25 17.25V16.75H9.81835C7.83811 16.75 6.19918 15.2103 6.07566 13.2339L5.70166 7.25H8.25V3.75C8.25 3.33579 8.58578 3 9 3ZM7.29834 8.75L7.57273 13.1404C7.64685 14.3262 8.63021 15.25 9.81835 15.25H14.1816C15.3698 15.25 16.3531 14.3262 16.4273 13.1404L16.7017 8.75H7.29834Z" fill="#364141"/>
</svg>
