<svg width="18" height="18" viewBox="0 0 18 18" fill="none" xmlns="http://www.w3.org/2000/svg">
<path fill-rule="evenodd" clip-rule="evenodd" d="M8 1.5C7.30964 1.5 6.75 2.05964 6.75 2.75V4.75H2.5V7.25H3C4.51878 7.25 5.75 8.48122 5.75 10C5.75 11.5188 4.51878 12.75 3 12.75H2.5V15.5H5.25V15C5.25 13.4812 6.48122 12.25 8 12.25C9.51878 12.25 10.75 13.4812 10.75 15V15.5H13.25V11.25H15.25C15.9404 11.25 16.5 10.6904 16.5 10C16.5 9.30964 15.9404 8.75 15.25 8.75H13.25V4.75H9.25V2.75C9.25 2.05964 8.69036 1.5 8 1.5ZM5.25 2.75C5.25 1.23122 6.48122 0 8 0C9.51878 0 10.75 1.23122 10.75 2.75V3.25H13.5C14.1904 3.25 14.75 3.80964 14.75 4.5V7.25H15.25C16.7688 7.25 18 8.48122 18 10C18 11.5188 16.7688 12.75 15.25 12.75H14.75V15.75C14.75 16.4404 14.1904 17 13.5 17H9.25V15C9.25 14.3096 8.69036 13.75 8 13.75C7.30964 13.75 6.75 14.3096 6.75 15V17H2.25C1.55964 17 1 16.4404 1 15.75V11.25H3C3.69036 11.25 4.25 10.6904 4.25 10C4.25 9.30964 3.69036 8.75 3 8.75H1V4.5C1 3.80964 1.55964 3.25 2.25 3.25H5.25V2.75Z" fill="#364141"/>
</svg>
