<svg width="18" height="18" viewBox="0 0 18 18" fill="none" xmlns="http://www.w3.org/2000/svg">
<path d="M9.75 4H12.5C13.3284 4 14 4.67157 14 5.5V8H15C16.2426 8 17.25 9.00736 17.25 10.25C17.25 11.4926 16.2426 12.5 15 12.5H14V15.5C14 16.3284 13.3284 17 12.5 17H9.5V15.5C9.5 14.3954 8.60457 13.5 7.5 13.5C6.39543 13.5 5.5 14.3954 5.5 15.5V17H2.5C1.67157 17 1 16.3284 1 15.5V12.5H2.5C3.60457 12.5 4.5 11.6046 4.5 10.5C4.5 9.39543 3.60457 8.5 2.5 8.5H1V5.5C1 4.67157 1.67157 4 2.5 4H5.25V3H5.26373C5.38809 1.87501 6.34186 1 7.5 1C8.65814 1 9.61191 1.87501 9.73627 3H9.75V4Z" fill="#364141"/>
</svg>
