<svg width="18" height="18" viewBox="0 0 18 18" fill="none" xmlns="http://www.w3.org/2000/svg">
<path fill-rule="evenodd" clip-rule="evenodd" d="M2.5 1C1.67157 1 1 1.67157 1 2.5V6.75C1 7.57843 1.67157 8.25 2.5 8.25H6.75C7.57843 8.25 8.25 7.57843 8.25 6.75V2.5C8.25 1.67157 7.57843 1 6.75 1H2.5ZM5.7 5.25H3.5V3.75H5.7V5.25Z" fill="#364141"/>
<path fill-rule="evenodd" clip-rule="evenodd" d="M11.25 1C10.4216 1 9.75 1.67157 9.75 2.5V6.75C9.75 7.57843 10.4216 8.25 11.25 8.25H15.5C16.3284 8.25 17 7.57843 17 6.75V2.5C17 1.67157 16.3284 1 15.5 1H11.25ZM12.3 5.25H14.5V3.75H12.3V5.25Z" fill="#364141"/>
<path d="M17 11.25H15.5V9.75H17V11.25Z" fill="#364141"/>
<path fill-rule="evenodd" clip-rule="evenodd" d="M2.5 9.75C1.67157 9.75 1 10.4216 1 11.25V15.5C1 16.3284 1.67157 17 2.5 17H6.75C7.57843 17 8.25 16.3284 8.25 15.5V11.25C8.25 10.4216 7.57843 9.75 6.75 9.75H2.5ZM3.5 14.25H5.7V12.75H3.5V14.25Z" fill="#364141"/>
<path d="M10 11.25C10 10.4216 10.6716 9.75 11.5 9.75H14.25V11.25H11.5V14.1172H10V11.25Z" fill="#364141"/>
<path d="M10 17H14.25V15.5H10V17Z" fill="#364141"/>
<path d="M12.75 12.6016H15.5C16.3284 12.6016 17 13.2731 17 14.1016V17H15.5V14.1016H12.75V12.6016Z" fill="#364141"/>
</svg>
