<svg width="18" height="18" viewBox="0 0 18 18" fill="none" xmlns="http://www.w3.org/2000/svg">
<path d="M5.2 5.25H4V3.75H5.2V5.25Z" fill="#364141"/>
<path fill-rule="evenodd" clip-rule="evenodd" d="M1 2.5C1 1.67157 1.67157 1 2.5 1H6.75C7.57843 1 8.25 1.67157 8.25 2.5V6.75C8.25 7.57843 7.57843 8.25 6.75 8.25H2.5C1.67157 8.25 1 7.57843 1 6.75V2.5ZM2.5 2.5H6.75V6.75H2.5L2.5 2.5Z" fill="#364141"/>
<path d="M14 5.25H12.8V3.75H14V5.25Z" fill="#364141"/>
<path fill-rule="evenodd" clip-rule="evenodd" d="M9.75 2.5C9.75 1.67157 10.4216 1 11.25 1H15.5C16.3284 1 17 1.67157 17 2.5V6.75C17 7.57843 16.3284 8.25 15.5 8.25H11.25C10.4216 8.25 9.75 7.57843 9.75 6.75V2.5ZM11.25 2.5H15.5V6.75H11.25V2.5Z" fill="#364141"/>
<path d="M17 11.25H15.5V9.75H17V11.25Z" fill="#364141"/>
<path d="M4 14.25H5.2V12.75H4V14.25Z" fill="#364141"/>
<path fill-rule="evenodd" clip-rule="evenodd" d="M1 11.25C1 10.4216 1.67157 9.75 2.5 9.75H6.75C7.57843 9.75 8.25 10.4216 8.25 11.25V15.5C8.25 16.3284 7.57843 17 6.75 17H2.5C1.67157 17 1 16.3284 1 15.5V11.25ZM2.5 11.25H6.75V15.5H2.5L2.5 11.25Z" fill="#364141"/>
<path d="M11.5 9.75C10.6716 9.75 10 10.4216 10 11.25V14.1406H11.5V11.25H14.25V9.75H11.5Z" fill="#364141"/>
<path d="M14.25 17H10V15.5H14.25V17Z" fill="#364141"/>
<path d="M15.5 12.63H12.75V14.13H15.5V17H17V14.13C17 13.3016 16.3284 12.63 15.5 12.63Z" fill="#364141"/>
</svg>
