<svg width="18" height="18" viewBox="0 0 18 18" fill="none" xmlns="http://www.w3.org/2000/svg">
<path d="M7.33333 0.25C4.52589 0.25 2.25 2.52589 2.25 5.33333H3.75C3.75 3.35431 5.35431 1.75 7.33333 1.75H10.6667C12.6457 1.75 14.25 3.35431 14.25 5.33333C14.25 7.31235 12.6457 8.91667 10.6667 8.91667H9.85714C8.96954 8.91667 8.25 9.63621 8.25 10.5238V13.5H9.75V10.5238C9.75 10.4646 9.79797 10.4167 9.85714 10.4167H10.6667C13.4741 10.4167 15.75 8.14078 15.75 5.33333C15.75 2.52589 13.4741 0.25 10.6667 0.25H7.33333Z" fill="#364141"/>
<path d="M9 18C9.55228 18 10 17.5523 10 17C10 16.4477 9.55228 16 9 16C8.44772 16 8 16.4477 8 17C8 17.5523 8.44772 18 9 18Z" fill="#364141"/>
</svg>
