<svg width="18" height="18" viewBox="0 0 18 18" fill="none" xmlns="http://www.w3.org/2000/svg">
<path d="M7.33333 0C4.38781 0 2 2.38781 2 5.33333H4C4 3.49238 5.49238 2 7.33333 2H10.6667C12.5076 2 14 3.49238 14 5.33333C14 7.17428 12.5076 8.66667 10.6667 8.66667H9.85714C8.83147 8.66667 8 9.49814 8 10.5238V13.5H10V10.6667H10.6667C13.6122 10.6667 16 8.27885 16 5.33333C16 2.38781 13.6122 0 10.6667 0H7.33333Z" fill="#364141"/>
<path d="M9 18C9.55228 18 10 17.5523 10 17C10 16.4477 9.55228 16 9 16C8.44772 16 8 16.4477 8 17C8 17.5523 8.44772 18 9 18Z" fill="#364141"/>
</svg>
