<svg width="18" height="18" viewBox="0 0 18 18" fill="none" xmlns="http://www.w3.org/2000/svg">
<path d="M3 0.25C1.48122 0.25 0.25 1.48122 0.25 3V7C0.25 7.69036 0.809644 8.25 1.5 8.25H3.5C4.19036 8.25 4.75 7.69036 4.75 7V4.5C4.75 3.80964 4.19036 3.25 3.5 3.25H1.75V3C1.75 2.30964 2.30964 1.75 3 1.75H4V0.25H3Z" fill="#364141"/>
<path d="M8 0.25C6.48122 0.25 5.25 1.48122 5.25 3V7C5.25 7.69036 5.80964 8.25 6.5 8.25H8.5C9.19036 8.25 9.75 7.69036 9.75 7V4.5C9.75 3.80964 9.19036 3.25 8.5 3.25H6.75V3C6.75 2.30964 7.30964 1.75 8 1.75H9V0.25H8Z" fill="#364141"/>
<path d="M17.75 15C17.75 16.5188 16.5188 17.75 15 17.75H14V16.25H15C15.6904 16.25 16.25 15.6904 16.25 15V14.75H14.5C13.8096 14.75 13.25 14.1904 13.25 13.5L13.25 11C13.25 10.3096 13.8096 9.75 14.5 9.75H16.5C17.1904 9.75 17.75 10.3096 17.75 11V15Z" fill="#364141"/>
<path d="M10 17.75C11.5188 17.75 12.75 16.5188 12.75 15L12.75 11C12.75 10.3096 12.1904 9.75 11.5 9.75H9.5C8.80964 9.75 8.25 10.3096 8.25 11L8.25 13.5C8.25 14.1904 8.80964 14.75 9.5 14.75H11.25V15C11.25 15.6904 10.6904 16.25 10 16.25H9V17.75H10Z" fill="#364141"/>
</svg>
