<svg width="24" height="24" viewBox="0 0 24 24" fill="none" xmlns="http://www.w3.org/2000/svg">
<path d="M6 3.25C4.48122 3.25 3.25 4.48122 3.25 6V10C3.25 10.6904 3.80964 11.25 4.5 11.25H6.5C7.19036 11.25 7.75 10.6904 7.75 10V7.5C7.75 6.80964 7.19036 6.25 6.5 6.25H4.75V6C4.75 5.30964 5.30964 4.75 6 4.75H7V3.25H6Z" fill="#364141"/>
<path d="M11 3.25C9.48122 3.25 8.25 4.48122 8.25 6V10C8.25 10.6904 8.80964 11.25 9.5 11.25H11.5C12.1904 11.25 12.75 10.6904 12.75 10V7.5C12.75 6.80964 12.1904 6.25 11.5 6.25H9.75V6C9.75 5.30964 10.3096 4.75 11 4.75H12V3.25H11Z" fill="#364141"/>
<path d="M20.75 18C20.75 19.5188 19.5188 20.75 18 20.75H17V19.25H18C18.6904 19.25 19.25 18.6904 19.25 18V17.75H17.5C16.8096 17.75 16.25 17.1904 16.25 16.5L16.25 14C16.25 13.3096 16.8096 12.75 17.5 12.75H19.5C20.1904 12.75 20.75 13.3096 20.75 14V18Z" fill="#364141"/>
<path d="M13 20.75C14.5188 20.75 15.75 19.5188 15.75 18L15.75 14C15.75 13.3096 15.1904 12.75 14.5 12.75H12.5C11.8096 12.75 11.25 13.3096 11.25 14L11.25 16.5C11.25 17.1904 11.8096 17.75 12.5 17.75H14.25V18C14.25 18.6904 13.6904 19.25 13 19.25H12V20.75H13Z" fill="#364141"/>
</svg>
