<svg width="18" height="18" viewBox="0 0 18 18" fill="none" xmlns="http://www.w3.org/2000/svg">
<path d="M12.5 1.75C13.7426 1.75 14.75 2.75736 14.75 4V9.18934L16.9696 6.96967L18.0303 8.03033L14 12.0607L9.96965 8.03033L11.0303 6.96967L13.25 9.18934V4C13.25 3.58579 12.9142 3.25 12.5 3.25H3.49998V1.75H12.5Z" fill="#364141"/>
<path d="M14.5001 16.25L5.50006 16.25C4.25742 16.25 3.25006 15.2426 3.25006 14L3.25006 8.81066L1.03039 11.0303L-0.0302734 9.96967L4.00006 5.93934L8.03039 9.96967L6.96973 11.0303L4.75006 8.81066L4.75006 14C4.75006 14.4142 5.08584 14.75 5.50006 14.75L14.5001 14.75V16.25Z" fill="#364141"/>
</svg>
