<svg width="18" height="18" viewBox="0 0 18 18" fill="none" xmlns="http://www.w3.org/2000/svg">
<path d="M12.25 1.5C13.6307 1.5 14.75 2.61929 14.75 4V8.58579L16.5428 6.79289L17.9571 8.20711L13.75 12.4142L9.54285 8.20711L10.9571 6.79289L12.75 8.58579V4C12.75 3.72386 12.5261 3.5 12.25 3.5H3.00008V1.5H12.25Z" fill="#364141"/>
<path d="M15.0001 16.5L5.74995 16.5C4.36924 16.5 3.24995 15.3807 3.24995 14L3.24995 9.41421L1.45706 11.2071L0.0428467 9.79289L4.24995 5.58578L8.45706 9.79289L7.04285 11.2071L5.24995 9.41421L5.24995 14C5.24995 14.2761 5.47381 14.5 5.74995 14.5L15.0001 14.5V16.5Z" fill="#364141"/>
</svg>
