<svg width="24" height="24" viewBox="0 0 24 24" fill="none" xmlns="http://www.w3.org/2000/svg">
<path d="M15.25 4.5C16.6307 4.5 17.75 5.61929 17.75 7V11.5858L19.5428 9.79289L20.9571 11.2071L16.75 15.4142L12.5428 11.2071L13.9571 9.79289L15.75 11.5858V7C15.75 6.72386 15.5261 6.5 15.25 6.5H6.00008V4.5H15.25Z" fill="#364141"/>
<path d="M18.0001 19.5L8.74995 19.5C7.36924 19.5 6.24995 18.3807 6.24995 17L6.24995 12.4142L4.45706 14.2071L3.04285 12.7929L7.24995 8.58578L11.4571 12.7929L10.0428 14.2071L8.24995 12.4142L8.24995 17C8.24995 17.2761 8.47381 17.5 8.74995 17.5L18.0001 17.5V19.5Z" fill="#364141"/>
</svg>
