<svg width="19" height="18" viewBox="0 0 19 18" fill="none" xmlns="http://www.w3.org/2000/svg">
<path fill-rule="evenodd" clip-rule="evenodd" d="M13.5 2H10.25V0H8.75V2H5.5C3.84315 2 2.5 3.34315 2.5 5V13C2.5 14.6569 3.84315 16 5.5 16H13.5C15.1569 16 16.5 14.6569 16.5 13V5C16.5 3.34315 15.1569 2 13.5 2ZM7 8C7.55228 8 8 7.55228 8 7C8 6.44772 7.55228 6 7 6C6.44772 6 6 6.44772 6 7C6 7.55228 6.44772 8 7 8ZM12 8C12.5523 8 13 7.55228 13 7C13 6.44772 12.5523 6 12 6C11.4477 6 11 6.44772 11 7C11 7.55228 11.4477 8 12 8ZM5.88477 10C6.32239 11.5856 7.77519 12.75 9.49996 12.75C11.2247 12.75 12.6775 11.5856 13.1151 10H11.5161C11.1479 10.7409 10.3834 11.25 9.49996 11.25C8.61653 11.25 7.85201 10.7409 7.48384 10H5.88477Z" fill="#364141"/>
<path d="M19 7.5V10.5C19 11.3284 18.3284 12 17.5 12V6C18.3284 6 19 6.67157 19 7.5Z" fill="#364141"/>
<path d="M0 10.5V7.5C0 6.67157 0.671573 6 1.5 6V12C0.671573 12 0 11.3284 0 10.5Z" fill="#364141"/>
</svg>
