<svg width="19" height="18" viewBox="0 0 19 18" fill="none" xmlns="http://www.w3.org/2000/svg">
<path d="M8 7C8 7.55228 7.55228 8 7 8C6.44772 8 6 7.55228 6 7C6 6.44772 6.44772 6 7 6C7.55228 6 8 6.44772 8 7Z" fill="#364141"/>
<path d="M12 8C12.5523 8 13 7.55228 13 7C13 6.44772 12.5523 6 12 6C11.4477 6 11 6.44772 11 7C11 7.55228 11.4477 8 12 8Z" fill="#364141"/>
<path d="M9.49999 12.75C7.77522 12.75 6.32242 11.5856 5.8848 10H7.48387C7.85204 10.7409 8.61656 11.25 9.49999 11.25C10.3834 11.25 11.1479 10.7409 11.5161 10H13.1152C12.6776 11.5856 11.2248 12.75 9.49999 12.75Z" fill="#364141"/>
<path fill-rule="evenodd" clip-rule="evenodd" d="M13.5 2H10.25V0H8.75V2H5.5C3.84315 2 2.5 3.34315 2.5 5V13C2.5 14.6569 3.84315 16 5.5 16H13.5C15.1569 16 16.5 14.6569 16.5 13V5C16.5 3.34315 15.1569 2 13.5 2ZM13.5 3.5H5.5C4.67157 3.5 4 4.17157 4 5V13C4 13.8284 4.67157 14.5 5.5 14.5H13.5C14.3284 14.5 15 13.8284 15 13V5C15 4.17157 14.3284 3.5 13.5 3.5Z" fill="#364141"/>
<path d="M19 7.5V10.5C19 11.3284 18.3284 12 17.5 12V6C18.3284 6 19 6.67157 19 7.5Z" fill="#364141"/>
<path d="M0 10.5V7.5C0 6.67157 0.671573 6 1.5 6V12C0.671573 12 0 11.3284 0 10.5Z" fill="#364141"/>
</svg>
