<svg width="18" height="18" viewBox="0 0 18 18" fill="none" xmlns="http://www.w3.org/2000/svg">
<path d="M17.6778 17C17.8888 16.0335 18 15.0297 18 14C18 6.26801 11.732 0 4 0C2.97025 0 1.96647 0.111176 1 0.32218V2.37805C1.95886 2.13126 2.9641 2 4 2C10.6274 2 16 7.37258 16 14C16 15.0359 15.8687 16.0411 15.6219 17H17.6778Z" fill="#364141"/>
<path d="M12.8 17C12.9311 16.3538 13 15.6849 13 15C13 9.47716 8.52285 5.00001 3 5.00001C2.31507 5.00001 1.64622 5.06887 1 5.20004V7.25204C1.63924 7.08751 2.3094 7.00001 3 7.00001C7.41828 7.00001 11 10.5817 11 15C11 15.6906 10.9125 16.3608 10.748 17H12.8Z" fill="#364141"/>
<path d="M7 14C7 15.6569 5.65685 17 4 17C2.34315 17 1 15.6569 1 14C1 12.3431 2.34315 11 4 11C5.65685 11 7 12.3431 7 14Z" fill="#364141"/>
</svg>
