<svg width="18" height="18" viewBox="0 0 18 18" fill="none" xmlns="http://www.w3.org/2000/svg">
<path d="M17.6778 17C17.8888 16.0335 18 15.0297 18 14C18 6.26801 11.732 0 4 0C2.97025 0 1.96647 0.111176 1 0.32218V1.86232C1.96106 1.62558 2.96586 1.5 4 1.5C10.9036 1.5 16.5 7.09644 16.5 14C16.5 15.0341 16.3744 16.0389 16.1377 17H17.6778Z" fill="#364141"/>
<path d="M12.8 17C12.9311 16.3538 13 15.6849 13 15C13 9.47716 8.52285 5.00001 3 5.00001C2.31507 5.00001 1.64622 5.06887 1 5.20004V6.73664C1.64138 6.58195 2.31112 6.50001 3 6.50001C7.69442 6.50001 11.5 10.3056 11.5 15C11.5 15.6889 11.4181 16.3586 11.2634 17H12.8Z" fill="#364141"/>
<path fill-rule="evenodd" clip-rule="evenodd" d="M4 17C5.65685 17 7 15.6569 7 14C7 12.3431 5.65685 11 4 11C2.34315 11 1 12.3431 1 14C1 15.6569 2.34315 17 4 17ZM4 15.5C4.82843 15.5 5.5 14.8284 5.5 14C5.5 13.1716 4.82843 12.5 4 12.5C3.17157 12.5 2.5 13.1716 2.5 14C2.5 14.8284 3.17157 15.5 4 15.5Z" fill="#364141"/>
</svg>
