<svg width="18" height="18" viewBox="0 0 18 18" fill="none" xmlns="http://www.w3.org/2000/svg">
<path d="M6 0H4L2.5 6H4.25V10C3.42157 10 2.75 10.6716 2.75 11.5V16.5C2.75 17.3284 3.42157 18 4.25 18H5.75C6.57843 18 7.25 17.3284 7.25 16.5V11.5C7.25 10.6716 6.57843 10 5.75 10V6H7.5L6 0Z" fill="#364141"/>
<path d="M10 4.5V1C10 0.723858 10.2239 0.5 10.5 0.5H12.5C12.7761 0.5 13 0.723858 13 1V1.06635C13 1.31518 13.183 1.52614 13.4293 1.56133L14.7828 1.75469C15.7681 1.89545 16.5 2.73929 16.5 3.73459V6H15.5L15.4257 5.7772C15.1948 5.08429 14.4282 4.72874 13.75 5V10C14.5784 10 15.25 10.6716 15.25 11.5V16.5C15.25 17.3284 14.5784 18 13.75 18H12.25C11.4216 18 10.75 17.3284 10.75 16.5V11.5C10.75 10.6716 11.4216 10 12.25 10V5H10.5C10.2239 5 10 4.77614 10 4.5Z" fill="#364141"/>
</svg>
