<svg width="18" height="18" viewBox="0 0 18 18" fill="none" xmlns="http://www.w3.org/2000/svg">
<path fill-rule="evenodd" clip-rule="evenodd" d="M7.5 6H5.75V10C6.57843 10 7.25 10.6716 7.25 11.5V16.5C7.25 17.3284 6.57843 18 5.75 18H4.25C3.42157 18 2.75 17.3284 2.75 16.5V11.5C2.75 10.6716 3.42157 10 4.25 10V6H2.5L4 0H6L7.5 6ZM5 2.18466L4.42116 4.5H5.57884L5 2.18466ZM4.25 16.5V11.5H5.75V16.5H4.25Z" fill="#364141"/>
<path fill-rule="evenodd" clip-rule="evenodd" d="M16.7494 6.5H15.2494L15.25 5.54057L14.8953 5.42233C14.6387 5.3368 14.3613 5.3368 14.1047 5.42233L13.75 5.54057V10C14.5784 10 15.25 10.6716 15.25 11.5V16.5C15.25 17.3284 14.5784 18 13.75 18H12.25C11.4216 18 10.75 17.3284 10.75 16.5V11.5C10.75 10.6716 11.4216 10 12.25 10V5.75H10.5C9.80964 5.75 9.25 5.19036 9.25 4.5V1.5C9.25 0.809644 9.80964 0.25 10.5 0.25H12.5C13.1047 0.25 13.6092 0.67944 13.725 1.25H14C15.5188 1.25 16.75 2.48122 16.75 4L16.7494 6.5ZM10.75 1.75V4.25H12.8783L13.6304 3.99931C14.155 3.82443 14.7192 3.81208 15.2494 3.96227C15.2295 3.28937 14.6777 2.75 14 2.75H13.5C12.8953 2.75 12.3908 2.32056 12.275 1.75H10.75ZM12.25 16.5V11.5H13.75V16.5H12.25Z" fill="#364141"/>
</svg>
