<svg width="18" height="18" viewBox="0 0 18 18" fill="none" xmlns="http://www.w3.org/2000/svg">
<path fill-rule="evenodd" clip-rule="evenodd" d="M4.75 4.75V4.25C4.75 1.90279 6.65279 0 9 0C11.3472 0 13.25 1.90279 13.25 4.25V4.75H15.5C16.1904 4.75 16.75 5.30964 16.75 6V13.25C16.75 15.8734 14.6234 18 12 18H6C3.37665 18 1.25 15.8734 1.25 13.25V6C1.25 5.30964 1.80964 4.75 2.5 4.75H4.75ZM6.25 4.25C6.25 2.73122 7.48122 1.5 9 1.5C10.5188 1.5 11.75 2.73122 11.75 4.25V4.75H6.25V4.25ZM2.75 13.25V6.25H15.25V13.25C15.25 15.0449 13.7949 16.5 12 16.5H6C4.20507 16.5 2.75 15.0449 2.75 13.25Z" fill="#364141"/>
</svg>
