<svg width="18" height="18" viewBox="0 0 18 18" fill="none" xmlns="http://www.w3.org/2000/svg">
<path d="M14.9767 0.23558C14.8869 0.0432176 14.6134 0.0432182 14.5236 0.235581L13.6749 2.0541C13.6501 2.10731 13.6073 2.15008 13.5541 2.17492L11.7356 3.02363C11.5432 3.1134 11.5432 3.38693 11.7356 3.47671L13.5541 4.32542C13.6073 4.35025 13.6501 4.39302 13.6749 4.44623L14.5236 6.26476C14.6134 6.45712 14.8869 6.45712 14.9767 6.26476L15.8254 4.44623C15.8502 4.39302 15.893 4.35025 15.9462 4.32542L17.7647 3.47671C17.9571 3.38693 17.9571 3.1134 17.7647 3.02363L15.9462 2.17492C15.893 2.15008 15.8502 2.10731 15.8254 2.0541L14.9767 0.23558Z" fill="#364141"/>
<path d="M8.67307 2.36564C8.39814 1.80756 7.60241 1.80756 7.32748 2.36564L5.09777 6.89179C5.02 7.04964 4.8892 7.17513 4.72826 7.24629L0.0516981 9.31398C-0.543925 9.57733 -0.543925 10.4225 0.0516981 10.6859L4.72826 12.7536C4.8892 12.8247 5.02 12.9502 5.09777 13.1081L7.32748 17.6342C7.60241 18.1923 8.39814 18.1923 8.67307 17.6342L10.9028 13.1081C10.9805 12.9502 11.1113 12.8247 11.2723 12.7536L15.9488 10.6859C16.5445 10.4225 16.5445 9.57733 15.9488 9.31398L11.2723 7.24629C11.1113 7.17513 10.9805 7.04964 10.9028 6.89179L8.67307 2.36564Z" fill="#364141"/>
</svg>
