<svg width="18" height="18" viewBox="0 0 18 18" fill="none" xmlns="http://www.w3.org/2000/svg">
<path d="M14.9767 0.23558C14.8869 0.0432176 14.6134 0.0432182 14.5236 0.235581L13.6749 2.0541C13.65 2.10731 13.6073 2.15008 13.5541 2.17492L11.7355 3.02363C11.5432 3.1134 11.5432 3.38693 11.7355 3.47671L13.5541 4.32542C13.6073 4.35025 13.65 4.39302 13.6749 4.44623L14.5236 6.26476C14.6134 6.45712 14.8869 6.45712 14.9767 6.26476L15.8254 4.44623C15.8502 4.39302 15.893 4.35025 15.9462 4.32542L17.7647 3.47671C17.9571 3.38693 17.9571 3.1134 17.7647 3.02363L15.9462 2.17492C15.893 2.15008 15.8502 2.10731 15.8254 2.0541L14.9767 0.23558Z" fill="#364141"/>
<path fill-rule="evenodd" clip-rule="evenodd" d="M7.10314 2.82105C7.46972 2.07694 8.53069 2.07694 8.89726 2.82105L10.8626 6.8105C10.9663 7.02098 11.1407 7.1883 11.3553 7.28318L15.4316 9.0855C16.2258 9.43663 16.2258 10.5636 15.4316 10.9147L11.3553 12.717C11.1407 12.8119 10.9663 12.9792 10.8626 13.1897L8.89726 17.1791C8.53069 17.9232 7.46972 17.9232 7.10314 17.1791L5.13782 13.1897C5.03413 12.9792 4.85974 12.8119 4.64514 12.717L0.568768 10.9147C-0.225397 10.5636 -0.225397 9.43663 0.568768 9.0855L4.64514 7.28318C4.85974 7.1883 5.03413 7.02098 5.13782 6.8105L7.10314 2.82105ZM6.48341 7.47338L8.0002 4.3944L9.517 7.47338C9.77622 7.99957 10.2122 8.41787 10.7487 8.65507L13.7908 10.0001L10.7487 11.3451C10.2122 11.5823 9.77622 12.0006 9.517 12.5268L8.0002 15.6058L6.48341 12.5268C6.22419 12.0006 5.78819 11.5823 5.25171 11.3451L2.20962 10.0001L5.25171 8.65507C5.78819 8.41787 6.22419 7.99957 6.48341 7.47338Z" fill="#364141"/>
</svg>
