<svg width="20" height="18" viewBox="0 0 20 18" fill="none" xmlns="http://www.w3.org/2000/svg">
<path d="M11 4.25C11 6.0248 11.8807 7.59391 13.2289 8.54416C13.3537 8.64707 13.4913 8.73512 13.6388 8.80561C14.4079 9.24738 15.2994 9.5 16.25 9.5C16.3803 9.5 16.5096 9.49525 16.6375 9.48592C17.4578 10.0213 18 10.9473 18 12V14H2V12C2 10.3431 3.34315 9 5 9H5.5C6.60457 9 7.5 8.10457 7.5 7V2.5H6V1H12.1266C11.4211 1.89393 11 3.02279 11 4.25Z" fill="#364141"/>
<path d="M3 15.5C3.00033 16.3278 3.67142 16.9987 4.49925 16.9988L15.4999 16.9999C16.3283 16.9999 17 16.3284 17 15.5H3Z" fill="#364141"/>
<path d="M15.8002 7.04812L13.0017 4.56056L13.9983 3.43944L15.6998 4.95188L18.4504 1.98966L19.5496 3.01034L15.8002 7.04812Z" fill="#364141"/>
</svg>
