<svg width="20" height="18" viewBox="0 0 20 18" fill="none" xmlns="http://www.w3.org/2000/svg">
<path d="M5.5 1H12.25V2.5H8.5V6.75C8.5 8.26878 7.26878 9.5 5.75 9.5C4.50736 9.5 3.5 10.5074 3.5 11.75V12.5H16.5V11.75C16.5 10.5074 15.4926 9.5 14.25 9.5H12.25V8H14.25C16.3211 8 18 9.67893 18 11.75V14H2V11.75C2 9.67893 3.67893 8 5.75 8C6.44036 8 7 7.44036 7 6.75V2.5H5.5V1Z" fill="#364141"/>
<path d="M3 15.5H17C17 16.3284 16.3283 16.9999 15.4999 16.9999L4.49925 16.9988C3.67142 16.9987 3.00033 16.3278 3 15.5Z" fill="#364141"/>
<path d="M16.3002 6.54812L13.5017 4.06056L14.4983 2.93944L16.1998 4.45188L18.9504 1.48966L20.0496 2.51034L16.3002 6.54812Z" fill="#364141"/>
</svg>
