<svg width="18" height="18" viewBox="0 0 18 18" fill="none" xmlns="http://www.w3.org/2000/svg">
<path fill-rule="evenodd" clip-rule="evenodd" d="M6 2.5V6C6 7.10457 5.10457 8 4 8C2.34315 8 1 9.34315 1 11V14H17V11C17 9.34315 15.6569 8 14 8C12.8954 8 12 7.10457 12 6V2.5H13.5V1H4.5V2.5H6ZM7.5 2.5V6C7.5 7.933 5.933 9.5 4 9.5C3.17157 9.5 2.5 10.1716 2.5 11V12.5H15.5V11C15.5 10.1716 14.8284 9.5 14 9.5C12.067 9.5 10.5 7.933 10.5 6V2.5H7.5Z" fill="#364141"/>
<path d="M16 15.5H2C2.00033 16.3278 2.67142 16.9987 3.49925 16.9988L14.4999 16.9999C15.3283 16.9999 16 16.3284 16 15.5Z" fill="#364141"/>
</svg>
