<svg width="24" height="24" viewBox="0 0 24 24" fill="none" xmlns="http://www.w3.org/2000/svg">
<path fill-rule="evenodd" clip-rule="evenodd" d="M12 4.98038L10.2852 7.92462C9.93191 8.53113 9.33997 8.96119 8.65399 9.10974L5.32393 9.83085L7.59415 12.3716C8.0618 12.895 8.2879 13.5909 8.2172 14.2892L7.87397 17.6791L10.9919 16.3051C11.6342 16.0221 12.3659 16.0221 13.0082 16.3051L16.1261 17.6791L15.7829 14.2892C15.7122 13.5909 15.9383 12.895 16.4059 12.3716L18.6761 9.83085L15.3461 9.10974C14.6601 8.96119 14.0682 8.53112 13.7149 7.92462L12 4.98038ZM12.8641 3.48364C12.4784 2.82137 11.5217 2.82137 11.1359 3.48364L8.989 7.16967C8.8477 7.41227 8.61092 7.5843 8.33653 7.64372L4.16747 8.54651C3.41842 8.70872 3.12276 9.61865 3.63342 10.1902L6.47561 13.371C6.66267 13.5804 6.75311 13.8587 6.72483 14.1381L6.29513 18.3821C6.21792 19.1446 6.99195 19.7069 7.69329 19.3979L11.5968 17.6777C11.8537 17.5645 12.1464 17.5645 12.4033 17.6777L16.3068 19.3979C17.0081 19.7069 17.7821 19.1446 17.7049 18.3821L17.2752 14.1381C17.247 13.8587 17.3374 13.5804 17.5245 13.371L20.3666 10.1902C20.8773 9.61865 20.5816 8.70872 19.8326 8.54651L15.6635 7.64372C15.3891 7.5843 15.1524 7.41227 15.0111 7.16967L12.8641 3.48364Z" fill="#364141"/>
</svg>
