<svg width="24" height="24" viewBox="0 0 24 24" fill="none" xmlns="http://www.w3.org/2000/svg">
<path d="M11.1359 3.48364C11.5217 2.82137 12.4784 2.82137 12.8641 3.48364L15.0111 7.16967C15.1524 7.41227 15.3891 7.5843 15.6635 7.64372L19.8326 8.54651C20.5816 8.70872 20.8773 9.61865 20.3666 10.1902L17.5245 13.371C17.3374 13.5804 17.247 13.8587 17.2752 14.1381L17.7049 18.3821C17.7821 19.1446 17.0081 19.7069 16.3068 19.3979L12.4033 17.6777C12.1464 17.5645 11.8537 17.5645 11.5968 17.6777L7.69329 19.3979C6.99195 19.7069 6.21792 19.1446 6.29513 18.3821L6.72483 14.1381C6.75311 13.8587 6.66267 13.5804 6.47561 13.371L3.63342 10.1902C3.12276 9.61865 3.41842 8.70872 4.16747 8.54651L8.33653 7.64372C8.61092 7.5843 8.8477 7.41227 8.989 7.16967L11.1359 3.48364Z" fill="#364141"/>
</svg>
