<svg width="18" height="18" viewBox="0 0 18 18" fill="none" xmlns="http://www.w3.org/2000/svg">
<path fill-rule="evenodd" clip-rule="evenodd" d="M8.99991 -0.0131836C9.33554 -0.0131933 9.67118 0.152373 9.86405 0.483516L12.011 4.16955C12.1523 4.41215 12.389 4.58418 12.6634 4.6436L16.8325 5.54639C17.5816 5.7086 17.8772 6.61852 17.3666 7.19003L14.5244 10.3709C14.3373 10.5803 14.2469 10.8586 14.2751 11.1379L14.7048 15.3819C14.782 16.1445 14.008 16.7068 13.3067 16.3978L9.40319 14.6776C9.27472 14.621 9.13732 14.5927 8.99991 14.5927C8.99133 14.5927 8.98275 14.5928 8.97418 14.593C8.89893 14.595 8.82384 14.6054 8.75039 14.6243C8.69815 14.6378 8.64674 14.6556 8.59669 14.6776L4.6932 16.3978C4.60553 16.4364 4.51673 16.4614 4.4286 16.4741C4.2123 16.5053 4.00003 16.4624 3.81846 16.3648C3.48214 16.1839 3.25114 15.8152 3.29501 15.3819L3.72471 11.1379C3.75299 10.8586 3.66255 10.5803 3.47549 10.3709L0.633296 7.19003C0.122641 6.61852 0.418294 5.7086 1.16735 5.54639L5.33641 4.6436C5.6108 4.58418 5.84758 4.41215 5.98888 4.16955L8.1358 0.483517C8.3249 0.158846 8.65124 -0.00665804 8.98026 -0.0129945M8.99994 1.98026L10.7148 4.9245C11.0681 5.531 11.66 5.96107 12.346 6.10962L15.676 6.83073L13.4058 9.37148C12.9382 9.89487 12.7121 10.5907 12.7828 11.289L13.126 14.679L10.0081 13.305C9.68691 13.1635 9.34341 13.0927 8.99991 13.0927L8.99994 1.98026Z" fill="#364141"/>
</svg>
