<svg width="24" height="24" viewBox="0 0 24 24" fill="none" xmlns="http://www.w3.org/2000/svg">
<path fill-rule="evenodd" clip-rule="evenodd" d="M12 5.97383L10.7172 8.17627C10.2933 8.90408 9.58299 9.42016 8.75981 9.59841L6.26875 10.1378L7.96699 12.0385C8.52818 12.6665 8.7995 13.5016 8.71466 14.3395L8.45791 16.8754L10.7903 15.8476C11.561 15.5079 12.439 15.5079 13.2098 15.8476L15.5422 16.8754L15.2854 14.3395C15.2006 13.5016 15.4719 12.6665 16.0331 12.0385L17.7313 10.1378L15.2403 9.59841C14.4171 9.42016 13.7067 8.90408 13.2828 8.17627L12 5.97383ZM12.8641 3.48364C12.4784 2.82137 11.5217 2.82137 11.1359 3.48364L8.989 7.16967C8.8477 7.41227 8.61092 7.5843 8.33653 7.64372L4.16747 8.54651C3.41842 8.70872 3.12276 9.61865 3.63342 10.1902L6.47561 13.371C6.66267 13.5804 6.75311 13.8587 6.72483 14.1381L6.29513 18.3821C6.21792 19.1446 6.99195 19.7069 7.69329 19.3979L11.5968 17.6777C11.8537 17.5645 12.1464 17.5645 12.4033 17.6777L16.3068 19.3979C17.0081 19.7069 17.7821 19.1446 17.7049 18.3821L17.2752 14.1381C17.247 13.8587 17.3374 13.5804 17.5245 13.371L20.3666 10.1902C20.8773 9.61865 20.5816 8.70872 19.8326 8.54651L15.6635 7.64372C15.3891 7.5843 15.1524 7.41227 15.0111 7.16967L12.8641 3.48364Z" fill="#364141"/>
</svg>
