<svg width="18" height="18" viewBox="0 0 18 18" fill="none" xmlns="http://www.w3.org/2000/svg">
<path fill-rule="evenodd" clip-rule="evenodd" d="M9.00003 2.97383L7.71722 5.17627C7.29332 5.90408 6.58299 6.42016 5.75981 6.59841L3.26875 7.13784L4.96699 9.03846C5.52818 9.66652 5.7995 10.5016 5.71466 11.3395L5.45791 13.8754L7.79028 12.8476C8.56102 12.5079 9.43904 12.5079 10.2098 12.8476L12.5422 13.8754L12.2854 11.3395C12.2006 10.5016 12.4719 9.66652 13.0331 9.03846L14.7313 7.13784L12.2403 6.59841C11.4171 6.42016 10.7067 5.90408 10.2828 5.17627L9.00003 2.97383ZM9.86414 0.483639C9.47841 -0.178628 8.52166 -0.178628 8.13592 0.483639L5.989 4.16967C5.8477 4.41227 5.61092 4.5843 5.33653 4.64372L1.16747 5.54651C0.418416 5.70872 0.122763 6.61865 0.633418 7.19015L3.47561 10.371C3.66267 10.5804 3.75311 10.8587 3.72483 11.1381L3.29513 15.3821C3.21792 16.1446 3.99195 16.7069 4.69329 16.3979L8.59678 14.6777C8.8537 14.5645 9.14637 14.5645 9.40328 14.6777L13.3068 16.3979C14.0081 16.7069 14.7821 16.1446 14.7049 15.3821L14.2752 11.1381C14.247 10.8587 14.3374 10.5804 14.5245 10.371L17.3666 7.19015C17.8773 6.61865 17.5816 5.70872 16.8326 5.54651L12.6635 4.64372C12.3891 4.5843 12.1524 4.41227 12.0111 4.16967L9.86414 0.483639Z" fill="#364141"/>
</svg>
