<svg width="24" height="24" viewBox="0 0 24 24" fill="none" xmlns="http://www.w3.org/2000/svg">
<path fill-rule="evenodd" clip-rule="evenodd" d="M11.9999 2.98682C12.3355 2.98681 12.6712 3.15237 12.8641 3.48352L15.011 7.16955C15.1523 7.41215 15.389 7.58418 15.6634 7.6436L19.8325 8.54639C20.5816 8.7086 20.8772 9.61852 20.3666 10.19L17.5244 13.3709C17.3373 13.5803 17.2469 13.8586 17.2751 14.1379L17.7048 18.3819C17.782 19.1445 17.008 19.7068 16.3067 19.3978L12.4032 17.6776C12.2747 17.621 12.1373 17.5927 11.9999 17.5927C11.9913 17.5927 11.9828 17.5928 11.9742 17.593C11.8989 17.595 11.8238 17.6054 11.7504 17.6243C11.6982 17.6378 11.6467 17.6556 11.5967 17.6776L7.6932 19.3978C7.60553 19.4364 7.51673 19.4614 7.4286 19.4741C7.2123 19.5053 7.00003 19.4624 6.81846 19.3648C6.48214 19.1839 6.25114 18.8152 6.29501 18.3819L6.72471 14.1379C6.75299 13.8586 6.66255 13.5803 6.47549 13.3709L3.6333 10.19C3.12264 9.61852 3.41829 8.7086 4.16735 8.54639L8.33641 7.6436C8.6108 7.58418 8.84758 7.41215 8.98888 7.16955L11.1358 3.48352C11.3249 3.15885 11.6512 2.99334 11.9803 2.98701M11.9999 4.98026L13.7148 7.9245C14.0681 8.531 14.66 8.96107 15.346 9.10962L18.676 9.83073L16.4058 12.3715C15.9382 12.8949 15.7121 13.5907 15.7828 14.289L16.126 17.679L13.0081 16.305C12.6869 16.1635 12.3434 16.0927 11.9999 16.0927L11.9999 4.98026Z" fill="#364141"/>
</svg>
