<svg width="18" height="18" viewBox="0 0 18 18" fill="none" xmlns="http://www.w3.org/2000/svg">
<path fill-rule="evenodd" clip-rule="evenodd" d="M9.00003 1.98038L7.28517 4.92462C6.93191 5.53113 6.33997 5.96119 5.65399 6.10974L2.32393 6.83085L4.59415 9.37161C5.0618 9.89499 5.2879 10.5909 5.2172 11.2892L4.87397 14.6791L7.99191 13.3051C8.63419 13.0221 9.36587 13.0221 10.0082 13.3051L13.1261 14.6791L12.7829 11.2892C12.7122 10.5909 12.9383 9.89499 13.4059 9.37161L15.6761 6.83085L12.3461 6.10974C11.6601 5.96119 11.0682 5.53112 10.7149 4.92462L9.00003 1.98038ZM9.86414 0.483639C9.47841 -0.178628 8.52166 -0.178628 8.13592 0.483639L5.989 4.16967C5.8477 4.41227 5.61092 4.5843 5.33653 4.64372L1.16747 5.54651C0.418416 5.70872 0.122763 6.61865 0.633418 7.19015L3.47561 10.371C3.66267 10.5804 3.75311 10.8587 3.72483 11.1381L3.29513 15.3821C3.21792 16.1446 3.99195 16.7069 4.69329 16.3979L8.59678 14.6777C8.8537 14.5645 9.14637 14.5645 9.40328 14.6777L13.3068 16.3979C14.0081 16.7069 14.7821 16.1446 14.7049 15.3821L14.2752 11.1381C14.247 10.8587 14.3374 10.5804 14.5245 10.371L17.3666 7.19015C17.8773 6.61865 17.5816 5.70872 16.8326 5.54651L12.6635 4.64372C12.3891 4.5843 12.1524 4.41227 12.0111 4.16967L9.86414 0.483639Z" fill="#364141"/>
</svg>
