<svg width="18" height="18" viewBox="0 0 18 18" fill="none" xmlns="http://www.w3.org/2000/svg">
<path d="M8.13592 0.483639C8.52166 -0.178628 9.47841 -0.178628 9.86414 0.483639L12.0111 4.16967C12.1524 4.41227 12.3891 4.5843 12.6635 4.64372L16.8326 5.54651C17.5816 5.70872 17.8773 6.61865 17.3666 7.19015L14.5245 10.371C14.3374 10.5804 14.247 10.8587 14.2752 11.1381L14.7049 15.3821C14.7821 16.1446 14.0081 16.7069 13.3068 16.3979L9.40328 14.6777C9.14637 14.5645 8.8537 14.5645 8.59678 14.6777L4.69329 16.3979C3.99195 16.7069 3.21792 16.1446 3.29513 15.3821L3.72483 11.1381C3.75311 10.8587 3.66267 10.5804 3.47561 10.371L0.633418 7.19015C0.122763 6.61865 0.418416 5.70872 1.16747 5.54651L5.33653 4.64372C5.61092 4.5843 5.8477 4.41227 5.989 4.16967L8.13592 0.483639Z" fill="#364141"/>
</svg>
