<svg width="18" height="18" viewBox="0 0 18 18" fill="none" xmlns="http://www.w3.org/2000/svg">
<path d="M3.5 4.80614C3.5 2.566 5.316 0.75 7.55614 0.75H9.25C11.5972 0.75 13.5 2.65279 13.5 5H11.5C11.5 3.75736 10.4926 2.75 9.25 2.75H7.55614C6.42057 2.75 5.5 3.67057 5.5 4.80614C5.5 5.51508 5.86521 6.17401 6.46639 6.54975L10.7868 9.25H17V10.75H1V9.25H7.0132L5.40639 8.24574C4.22045 7.50453 3.5 6.20466 3.5 4.80614Z" fill="#364141"/>
<path d="M11.2706 12.25C11.419 12.5373 11.5 12.86 11.5 13.1939C11.5 14.3294 10.5794 15.25 9.44386 15.25H7.75C6.50736 15.25 5.5 14.2426 5.5 13H3.5C3.5 15.3472 5.40279 17.25 7.75 17.25H9.44386C11.684 17.25 13.5 15.434 13.5 13.1939C13.5 12.8722 13.4619 12.5557 13.3887 12.25H11.2706Z" fill="#364141"/>
</svg>
