<svg width="18" height="18" viewBox="0 0 18 18" fill="none" xmlns="http://www.w3.org/2000/svg">
<path d="M3.75 4.80614C3.75 2.70407 5.45407 1 7.55614 1H9.25C11.4591 1 13.25 2.79086 13.25 5H11.75C11.75 3.61929 10.6307 2.5 9.25 2.5H7.55614C6.28249 2.5 5.25 3.53249 5.25 4.80614C5.25 5.60128 5.65962 6.34032 6.33389 6.76174L10.3151 9.25H17V10.75H1V9.25H7.4849L5.53889 8.03374C4.42605 7.33821 3.75 6.11846 3.75 4.80614Z" fill="#364141"/>
<path d="M11.548 12.25C11.6792 12.5424 11.75 12.8633 11.75 13.1939C11.75 14.4675 10.7175 15.5 9.44386 15.5H7.75C6.36929 15.5 5.25 14.3807 5.25 13H3.75C3.75 15.2091 5.54086 17 7.75 17H9.44386C11.5459 17 13.25 15.2959 13.25 13.1939C13.25 12.8715 13.2092 12.5548 13.1312 12.25H11.548Z" fill="#364141"/>
</svg>
