<svg width="18" height="18" viewBox="0 0 18 18" fill="none" xmlns="http://www.w3.org/2000/svg">
<path fill-rule="evenodd" clip-rule="evenodd" d="M-0.25 9C-0.25 3.89137 3.89137 -0.25 9 -0.25H9.17188C14.1856 -0.25 18.25 3.81441 18.25 8.82812V9.875C18.25 11.877 16.627 13.5 14.625 13.5C13.5363 13.5 12.5596 13.02 11.8951 12.2601C11.1666 13.024 10.1389 13.5 9 13.5C6.79086 13.5 5 11.7091 5 9.5V8.5C5 6.29086 6.79086 4.5 9 4.5C11.2091 4.5 13 6.29086 13 8.5V9.875C13 10.7725 13.7275 11.5 14.625 11.5C15.5225 11.5 16.25 10.7725 16.25 9.875V8.82812C16.25 4.91898 13.081 1.75 9.17188 1.75H9C4.99594 1.75 1.75 4.99594 1.75 9C1.75 13.0041 4.99594 16.25 9 16.25C10.23 16.25 11.3884 15.9437 12.4032 15.4032L13.8673 16.8673C12.4535 17.7439 10.7858 18.25 9 18.25C3.89137 18.25 -0.25 14.1086 -0.25 9ZM9 6.5C10.1046 6.5 11 7.39543 11 8.5V9.5C11 10.6046 10.1046 11.5 9 11.5C7.89543 11.5 7 10.6046 7 9.5V8.5C7 7.39543 7.89543 6.5 9 6.5Z" fill="#364141"/>
</svg>
