<svg width="18" height="18" viewBox="0 0 18 18" fill="none" xmlns="http://www.w3.org/2000/svg">
<path d="M6 7C6.55228 7 7 6.55228 7 6C7 5.44772 6.55228 5 6 5C5.44772 5 5 5.44772 5 6C5 6.55228 5.44772 7 6 7Z" fill="#364141"/>
<path fill-rule="evenodd" clip-rule="evenodd" d="M1.43934 10.4393L8.33579 17.3358C9.11684 18.1168 10.3832 18.1168 11.1642 17.3358L17.3358 11.1642C18.1168 10.3832 18.1168 9.11683 17.3358 8.33579L10.4393 1.43934C10.158 1.15804 9.7765 1 9.37868 1H3C1.89543 1 1 1.89543 1 3V9.37868C1 9.7765 1.15804 10.158 1.43934 10.4393ZM9.37868 2.5L16.2751 9.39645C16.4704 9.59171 16.4704 9.90829 16.2751 10.1036L10.1036 16.2751C9.90829 16.4704 9.59171 16.4704 9.39645 16.2751L2.5 9.37868L2.5 3C2.5 2.72386 2.72386 2.5 3 2.5L9.37868 2.5Z" fill="#364141"/>
</svg>
