<svg width="18" height="18" viewBox="0 0 18 18" fill="none" xmlns="http://www.w3.org/2000/svg">
<path fill-rule="evenodd" clip-rule="evenodd" d="M10.4393 1.43934L17.3358 8.33579C18.1168 9.11683 18.1168 10.3832 17.3358 11.1642L11.1642 17.3358C10.3832 18.1168 9.11684 18.1168 8.33579 17.3358L1.43934 10.4393C1.15804 10.158 1 9.7765 1 9.37868V3C1 1.89543 1.89543 1 3 1H9.37868C9.7765 1 10.158 1.15804 10.4393 1.43934ZM6 7C6.55228 7 7 6.55228 7 6C7 5.44772 6.55228 5 6 5C5.44772 5 5 5.44772 5 6C5 6.55228 5.44772 7 6 7Z" fill="#364141"/>
</svg>
