<svg width="18" height="18" viewBox="0 0 18 18" fill="none" xmlns="http://www.w3.org/2000/svg">
<path fill-rule="evenodd" clip-rule="evenodd" d="M16.0858 6.58579L9.93934 0.43934C9.65804 0.158035 9.2765 0 8.87868 0H3.5C2.39543 0 1.5 0.895431 1.5 2V7.37868C1.5 7.7765 1.65804 8.15804 1.93934 8.43934L8.08579 14.5858C8.86684 15.3668 10.1332 15.3668 10.9142 14.5858L16.0858 9.41421C16.8668 8.63317 16.8668 7.36684 16.0858 6.58579ZM6.5 4C6.5 4.55228 6.05228 5 5.5 5C4.94772 5 4.5 4.55228 4.5 4C4.5 3.44772 4.94772 3 5.5 3C6.05228 3 6.5 3.44772 6.5 4Z" fill="#364141"/>
<path d="M7.62814 17.2451L1.97409 11.9445C1.67161 11.6609 1.5 11.2648 1.5 10.8502V10L8.13865 16.2237C8.90528 16.9424 10.0974 16.9453 10.8674 16.2302L16.5 11V11.8459C16.5 12.263 16.3263 12.6613 16.0207 12.9451L11.3802 17.2541C10.3214 18.2373 8.68226 18.2334 7.62814 17.2451Z" fill="#364141"/>
</svg>
