<svg width="18" height="18" viewBox="0 0 18 18" fill="none" xmlns="http://www.w3.org/2000/svg">
<path d="M6.5 4C6.5 4.55228 6.05228 5 5.5 5C4.94772 5 4.5 4.55228 4.5 4C4.5 3.44772 4.94772 3 5.5 3C6.05228 3 6.5 3.44772 6.5 4Z" fill="#364141"/>
<path fill-rule="evenodd" clip-rule="evenodd" d="M9.93934 0.43934L16.0858 6.58579C16.8668 7.36684 16.8668 8.63317 16.0858 9.41421L10.9142 14.5858C10.1332 15.3668 8.86684 15.3668 8.08579 14.5858L1.93934 8.43934C1.65804 8.15804 1.5 7.7765 1.5 7.37868V2C1.5 0.895431 2.39543 0 3.5 0H8.87868C9.2765 0 9.65804 0.158035 9.93934 0.43934ZM15.0251 7.64645L8.87868 1.5L3.5 1.5C3.22386 1.5 3 1.72386 3 2L3 7.37868L9.14645 13.5251C9.34171 13.7204 9.65829 13.7204 9.85355 13.5251L15.0251 8.35355C15.2204 8.15829 15.2204 7.84171 15.0251 7.64645Z" fill="#364141"/>
<path d="M7.62814 17.2451L1.97409 11.9445C1.67161 11.6609 1.5 11.2648 1.5 10.8502V10L8.13865 16.2237C8.90528 16.9424 10.0974 16.9453 10.8674 16.2302L16.5 11V11.8459C16.5 12.263 16.3263 12.6613 16.0207 12.9451L11.3802 17.2541C10.3214 18.2373 8.68226 18.2334 7.62814 17.2451Z" fill="#364141"/>
</svg>
