<svg width="18" height="18" viewBox="0 0 18 18" fill="none" xmlns="http://www.w3.org/2000/svg">
<path fill-rule="evenodd" clip-rule="evenodd" d="M4 5.5C4.82843 5.5 5.5 4.82843 5.5 4C5.5 3.17157 4.82843 2.5 4 2.5C3.17157 2.5 2.5 3.17157 2.5 4C2.5 4.82843 3.17157 5.5 4 5.5ZM4.75 6.90549C6.04392 6.57245 7 5.39788 7 4C7 2.34315 5.65685 1 4 1C2.34315 1 1 2.34315 1 4C1 5.39788 1.95608 6.57245 3.25 6.90549V11.0945C1.95608 11.4275 1 12.6021 1 14C1 15.6569 2.34315 17 4 17C5.65685 17 7 15.6569 7 14C7 12.6021 6.04392 11.4275 4.75 11.0945V6.90549ZM4 15.5C4.82843 15.5 5.5 14.8284 5.5 14C5.5 13.1716 4.82843 12.5 4 12.5C3.17157 12.5 2.5 13.1716 2.5 14C2.5 14.8284 3.17157 15.5 4 15.5ZM9 3.25H17V1.75H9V3.25ZM9 6.25H13V4.75H9V6.25ZM13 16.25H9V14.75H13V16.25ZM17 13.25H9V11.75H17V13.25Z" fill="#364141"/>
</svg>
