<svg width="18" height="18" viewBox="0 0 18 18" fill="none" xmlns="http://www.w3.org/2000/svg">
<path d="M4.75 6.90549C6.04392 6.57245 7 5.39788 7 4C7 2.34315 5.65685 1 4 1C2.34315 1 1 2.34315 1 4C1 5.39788 1.95608 6.57245 3.25 6.90549V11.0945C1.95608 11.4275 1 12.6021 1 14C1 15.6569 2.34315 17 4 17C5.65685 17 7 15.6569 7 14C7 12.6021 6.04392 11.4275 4.75 11.0945V6.90549Z" fill="#364141"/>
<path d="M9 3.5H17V1.5H9V3.5Z" fill="#364141"/>
<path d="M9 6.5H13V4.5H9V6.5Z" fill="#364141"/>
<path d="M9 13.5V11.5H17V13.5H9Z" fill="#364141"/>
<path d="M13 16.5H9V14.5H13V16.5Z" fill="#364141"/>
</svg>
