<svg width="18" height="18" viewBox="0 0 18 18" fill="none" xmlns="http://www.w3.org/2000/svg">
<path fill-rule="evenodd" clip-rule="evenodd" d="M3.75746 8.87781L5.53942 1.75H4V0.25H14V1.75H12.4606L14.2425 8.87781C14.4441 9.68426 15.1687 10.25 16 10.25V11.75H9.75V17L9.21215 17.8628C9.11429 18.0198 8.88571 18.0198 8.78785 17.8628L8.25 17V11.75H2V10.25C2.83126 10.25 3.55585 9.68426 3.75746 8.87781ZM7.08558 1.75H10.9144L12.7873 9.24162C12.8789 9.60796 13.0295 9.94712 13.2275 10.25H4.77249C4.7962 10.2137 4.81922 10.177 4.84154 10.1397C5.00569 9.86552 5.13206 9.5641 5.21268 9.24162L7.08558 1.75Z" fill="#364141"/>
</svg>
