<svg width="18" height="18" viewBox="0 0 18 18" fill="none" xmlns="http://www.w3.org/2000/svg">
<path d="M12 0.25V1.75H7.08558L5.21268 9.24162C5.12109 9.60796 4.97047 9.94712 4.77249 10.25H13.2275C13.0295 9.94712 12.8789 9.60796 12.7873 9.24162L12.5224 8.1819L13.9776 7.8181L14.2425 8.87781C14.4441 9.68426 15.1687 10.25 16 10.25V11.75H9.75V17L9.21215 17.8628C9.11429 18.0198 8.88571 18.0198 8.78785 17.8628L8.25 17V11.75H2V10.25C2.83126 10.25 3.55585 9.68426 3.75746 8.87781L5.53942 1.75H4V0.25H12Z" fill="#364141"/>
<path d="M15.3002 6.54812L12.5017 4.06056L13.4983 2.93944L15.1998 4.45188L17.9504 1.48966L19.0496 2.51034L15.3002 6.54812Z" fill="#364141"/>
</svg>
