<svg width="18" height="18" viewBox="0 0 18 18" fill="none" xmlns="http://www.w3.org/2000/svg">
<path fill-rule="evenodd" clip-rule="evenodd" d="M0 3.5C0 2.67157 0.671573 2 1.5 2H10.25V5.5H11.75V2H16.5C17.3284 2 18 2.67157 18 3.5V7.5H16.5C15.6716 7.5 15 8.17157 15 9C15 9.82843 15.6716 10.5 16.5 10.5H18V14.5C18 15.3284 17.3284 16 16.5 16H11.75V12.5H10.25V16H1.5C0.671573 16 0 15.3284 0 14.5V10.5H1.5C2.32843 10.5 3 9.82843 3 9C3 8.17157 2.32843 7.5 1.5 7.5H0V3.5ZM11.75 11H10.25V7H11.75V11Z" fill="#364141"/>
</svg>
