<svg width="18" height="18" viewBox="0 0 18 18" fill="none" xmlns="http://www.w3.org/2000/svg">
<path d="M11.75 10.5H10.25V7.5H11.75V10.5Z" fill="#364141"/>
<path fill-rule="evenodd" clip-rule="evenodd" d="M1.5 16C0.671573 16 0 15.3284 0 14.5V10.5H1.5C2.32843 10.5 3 9.82843 3 9C3 8.17157 2.32843 7.5 1.5 7.5H0V3.5C0 2.67157 0.671573 2 1.5 2H16.5C17.3284 2 18 2.67157 18 3.5V7.5H16.5C15.6716 7.5 15 8.17157 15 9C15 9.82843 15.6716 10.5 16.5 10.5H18V14.5C18 15.3284 17.3284 16 16.5 16H1.5ZM1.5 6V3.5L10.25 3.5V6H11.75V3.5H16.5V6C14.8431 6 13.5 7.34315 13.5 9C13.5 10.6569 14.8431 12 16.5 12V14.5H11.75V12H10.25V14.5H1.5V12C3.15685 12 4.5 10.6569 4.5 9C4.5 7.34315 3.15685 6 1.5 6Z" fill="#364141"/>
</svg>
