<svg width="18" height="18" viewBox="0 0 18 18" fill="none" xmlns="http://www.w3.org/2000/svg">
<path d="M8 0C6.89543 0 6 0.895431 6 2H3.4994C2.6713 2 2 2.6713 2 3.4994L16 3.5C16 2.67161 15.3285 2 14.5001 2H12C12 0.895431 11.1046 0 10 0H8Z" fill="#364141"/>
<path fill-rule="evenodd" clip-rule="evenodd" d="M2 5L3.7911 15.7466C3.91165 16.4699 4.53743 17 5.27069 17H12.7293C13.4626 17 14.0884 16.4699 14.2089 15.7466L16 5H2ZM3.77069 6.5L5.27069 15.5H12.7293L14.2293 6.5H3.77069Z" fill="#364141"/>
</svg>
