<svg width="24" height="24" viewBox="0 0 24 24" fill="none" xmlns="http://www.w3.org/2000/svg">
<path d="M12.75 13.5L13.25 10V8.5H10.75V10L11.25 13.5H12.75Z" fill="#364141"/>
<path d="M12 17C12.5523 17 13 16.5523 13 16C13 15.4477 12.5523 15 12 15C11.4477 15 11 15.4477 11 16C11 16.5523 11.4477 17 12 17Z" fill="#364141"/>
<path fill-rule="evenodd" clip-rule="evenodd" d="M12.0001 3.0022C6.6465 6.21224 3.05094 12.0532 3.00061 18.7377C5.67926 20.181 8.74398 21 12 21C15.256 21 18.3208 20.181 20.9995 18.7377C20.9491 12.0531 17.3536 6.21224 12.0001 3.0022ZM4.53187 17.8314C6.79546 18.9013 9.32603 19.5 12 19.5C14.674 19.5 17.2046 18.9013 19.4682 17.8314C19.1378 12.3985 16.256 7.65314 12.0001 4.77982C7.74414 7.65315 4.86233 12.3985 4.53187 17.8314Z" fill="#364141"/>
</svg>
