<svg width="18" height="18" viewBox="0 0 18 18" fill="none" xmlns="http://www.w3.org/2000/svg">
<path fill-rule="evenodd" clip-rule="evenodd" d="M6.5 4.25C6.5 2.86929 7.61929 1.75 9 1.75C10.3807 1.75 11.5 2.86929 11.5 4.25V4.5H13.5V4.25C13.5 1.76472 11.4853 -0.25 9 -0.25C6.51472 -0.25 4.5 1.76472 4.5 4.25V8H3.5C2.67157 8 2 8.67157 2 9.5V16.5C2 17.3284 2.67157 18 3.5 18H14.5C15.3284 18 16 17.3284 16 16.5V9.5C16 8.67157 15.3284 8 14.5 8H6.5V4.25ZM10 12C10 12.5523 9.55228 13 9 13C8.44772 13 8 12.5523 8 12C8 11.4477 8.44772 11 9 11C9.55228 11 10 11.4477 10 12Z" fill="#364141"/>
</svg>
