<svg width="18" height="18" viewBox="0 0 18 18" fill="none" xmlns="http://www.w3.org/2000/svg">
<path d="M9 13C9.55228 13 10 12.5523 10 12C10 11.4477 9.55228 11 9 11C8.44772 11 8 11.4477 8 12C8 12.5523 8.44772 13 9 13Z" fill="#364141"/>
<path fill-rule="evenodd" clip-rule="evenodd" d="M9 1.5C7.48122 1.5 6.25 2.73122 6.25 4.25V8H14.5C15.3284 8 16 8.67157 16 9.5V16.5C16 17.3284 15.3284 18 14.5 18H3.5C2.67157 18 2 17.3284 2 16.5V9.5C2 8.67157 2.67157 8 3.5 8H4.75V4.25C4.75 1.90279 6.65279 0 9 0C11.3472 0 13.25 1.90279 13.25 4.25V4.5H11.75V4.25C11.75 2.73122 10.5188 1.5 9 1.5ZM3.5 9.5L3.5 16.5H14.5V9.5H3.5Z" fill="#364141"/>
</svg>
