<svg width="18" height="18" viewBox="0 0 18 18" fill="none" xmlns="http://www.w3.org/2000/svg">
<path d="M2 4C2.55228 4 3 3.55228 3 3C3 2.44772 2.55228 2 2 2C1.44772 2 1 2.44772 1 3C1 3.55228 1.44772 4 2 4Z" fill="#364141"/>
<path d="M2 10C2.55228 10 3 9.55228 3 9C3 8.44772 2.55228 8 2 8C1.44772 8 1 8.44772 1 9C1 9.55228 1.44772 10 2 10Z" fill="#364141"/>
<path d="M3 15C3 15.5523 2.55228 16 2 16C1.44772 16 1 15.5523 1 15C1 14.4477 1.44772 14 2 14C2.55228 14 3 14.4477 3 15Z" fill="#364141"/>
<path d="M5 15.75H17V14.25H5V15.75Z" fill="#364141"/>
<path d="M17 9.75H5V8.25H17V9.75Z" fill="#364141"/>
<path d="M5 3.75H17V2.25H5V3.75Z" fill="#364141"/>
</svg>
