<svg width="18" height="18" viewBox="0 0 18 18" fill="none" xmlns="http://www.w3.org/2000/svg">
<path d="M2.25 4.25C2.94036 4.25 3.5 3.69036 3.5 3C3.5 2.30964 2.94036 1.75 2.25 1.75C1.55964 1.75 1 2.30964 1 3C1 3.69036 1.55964 4.25 2.25 4.25Z" fill="#364141"/>
<path d="M2.25 10.25C2.94036 10.25 3.5 9.69036 3.5 9C3.5 8.30964 2.94036 7.75 2.25 7.75C1.55964 7.75 1 8.30964 1 9C1 9.69036 1.55964 10.25 2.25 10.25Z" fill="#364141"/>
<path d="M3.5 15C3.5 15.6904 2.94036 16.25 2.25 16.25C1.55964 16.25 1 15.6904 1 15C1 14.3096 1.55964 13.75 2.25 13.75C2.94036 13.75 3.5 14.3096 3.5 15Z" fill="#364141"/>
<path d="M6 16H17V14H6V16Z" fill="#364141"/>
<path d="M17 10H6V8H17V10Z" fill="#364141"/>
<path d="M6 4H17V2H6V4Z" fill="#364141"/>
</svg>
