<svg width="18" height="18" viewBox="0 0 18 18" fill="none" xmlns="http://www.w3.org/2000/svg">
<path fill-rule="evenodd" clip-rule="evenodd" d="M13.5 4.5C13.5 6.98528 11.4853 9 8.99998 9C6.5147 9 4.49998 6.98528 4.49998 4.5C4.49998 2.01472 6.5147 0 8.99998 0C11.4853 0 13.5 2.01472 13.5 4.5ZM12 4.5C12 6.15685 10.6568 7.5 8.99998 7.5C7.34313 7.5 5.99998 6.15685 5.99998 4.5C5.99998 2.84315 7.34313 1.5 8.99998 1.5C10.6568 1.5 12 2.84315 12 4.5Z" fill="#364141"/>
<path fill-rule="evenodd" clip-rule="evenodd" d="M8.98201 10.25C7.21609 10.25 5.33033 10.25 3.2494 10.5471C1.51169 10.7953 0.518994 12.7494 1.70975 14.2343C3.03662 15.8889 5.43007 18 8.99998 18C12.5699 18 14.9633 15.8889 16.2902 14.2343C17.481 12.7494 16.4883 10.7953 14.7506 10.5471C12.6696 10.25 10.7839 10.25 9.01795 10.25H8.98201ZM3.46144 12.0321C5.42972 11.751 7.22051 11.75 8.99998 11.75C10.7795 11.75 12.5702 11.751 14.5385 12.0321C14.9058 12.0845 15.1431 12.2973 15.2448 12.5293C15.3428 12.7527 15.3333 13.03 15.12 13.2959C13.9288 14.7813 11.9206 16.5 8.99998 16.5C6.07931 16.5 4.07115 14.7813 2.87995 13.2959C2.6667 13.03 2.65719 12.7527 2.75516 12.5293C2.85684 12.2973 3.09418 12.0845 3.46144 12.0321Z" fill="#364141"/>
</svg>
