<svg width="18" height="18" viewBox="0 0 18 18" fill="none" xmlns="http://www.w3.org/2000/svg">
<path fill-rule="evenodd" clip-rule="evenodd" d="M6 8C7.933 8 9.5 6.433 9.5 4.5C9.5 2.567 7.933 1 6 1C4.067 1 2.5 2.567 2.5 4.5C2.5 6.433 4.067 8 6 8ZM14 8C15.6569 8 17 6.65685 17 5C17 3.34315 15.6569 2 14 2C12.3431 2 11 3.34315 11 5C11 6.65685 12.3431 8 14 8ZM12.75 15C12.5901 15 12.4337 14.9939 12.2807 14.9821C12.5068 14.7512 12.7104 14.5227 12.8915 14.3044C13.9529 13.025 14.137 11.3613 13.5265 9.96692C13.4559 9.80565 13.3757 9.65003 13.2866 9.50065C14.1941 9.504 15.16 9.52464 16.1962 9.65172C16.9607 9.74548 17.564 10.1891 17.8396 10.7852C18.1188 11.389 18.0437 12.1144 17.5338 12.6962C16.5993 13.7625 15.0235 15 12.75 15ZM6.01705 9.25H5.98298H5.98297C4.80042 9.25 3.52847 9.24999 2.1443 9.42931C1.28899 9.54011 0.614043 10.0644 0.30564 10.7689C-0.00671038 11.4825 0.0773659 12.3398 0.647795 13.0273C1.69329 14.2875 3.45642 15.75 6.00001 15.75C8.54361 15.75 10.3067 14.2875 11.3522 13.0273C11.9227 12.3398 12.0067 11.4825 11.6944 10.7689C11.386 10.0644 10.711 9.54011 9.85573 9.42931C8.47156 9.24999 7.19961 9.25 6.01706 9.25H6.01705Z" fill="#364141"/>
</svg>
