<svg width="24" height="24" viewBox="0 0 24 24" fill="none" xmlns="http://www.w3.org/2000/svg">
<path d="M11.9999 12C14.4852 12 16.4999 9.98528 16.4999 7.5C16.4999 5.01472 14.4852 3 11.9999 3C9.51463 3 7.49991 5.01472 7.49991 7.5C7.49991 9.98528 9.51463 12 11.9999 12Z" fill="#364141"/>
<path d="M11.9999 21C16.1616 21 18.6835 18.2945 19.9595 16.3479C20.6089 15.357 20.0052 14.1279 18.8378 13.9267C16.362 13.5 14.1385 13.5 11.9999 13.5C9.86135 13.5 7.63784 13.5 5.16206 13.9267C3.99458 14.1279 3.3909 15.357 4.04035 16.3479C5.31628 18.2945 7.83823 21 11.9999 21Z" fill="#364141"/>
</svg>
