<svg width="21" height="18" viewBox="0 0 21 18" fill="none" xmlns="http://www.w3.org/2000/svg">
<path fill-rule="evenodd" clip-rule="evenodd" d="M7.99999 9C10.2091 9 12 7.20914 12 5C12 2.79086 10.2091 1 7.99999 1C5.79086 1 3.99999 2.79086 3.99999 5C3.99999 7.20914 5.79086 9 7.99999 9ZM7.99999 7.5C9.38071 7.5 10.5 6.38071 10.5 5C10.5 3.61929 9.38071 2.5 7.99999 2.5C6.61928 2.5 5.49999 3.61929 5.49999 5C5.49999 6.38071 6.61928 7.5 7.99999 7.5Z" fill="#364141"/>
<path fill-rule="evenodd" clip-rule="evenodd" d="M7.98031 10.25H8.01968C9.53441 10.25 11.1642 10.25 12.9588 10.5332C14.6281 10.7966 15.5546 12.6367 14.5452 14.1034C13.4082 15.7555 11.2681 18 7.99999 18C4.73191 18 2.59179 15.7555 1.4548 14.1034C0.445424 12.6367 1.37194 10.7966 3.04124 10.5332C4.83575 10.25 6.46558 10.25 7.98031 10.25ZM7.99999 11.75C6.47033 11.75 4.94547 11.7512 3.27506 12.0149C2.60589 12.1205 2.3577 12.7695 2.69046 13.253C3.73547 14.7715 5.48361 16.5 7.99999 16.5C10.5164 16.5 12.2645 14.7715 13.3095 13.253C13.6423 12.7695 13.3941 12.1205 12.7249 12.0149C11.0545 11.7512 9.52966 11.75 7.99999 11.75Z" fill="#364141"/>
<path d="M16 10V5.81066L14.2803 7.53033L13.2197 6.46967L16.75 2.93934L20.2803 6.46967L19.2197 7.53033L17.5 5.81066V10H16Z" fill="#364141"/>
</svg>
