<svg width="21" height="18" viewBox="0 0 21 18" fill="none" xmlns="http://www.w3.org/2000/svg">
<path d="M7.99999 9C10.2091 9 12 7.20914 12 5C12 2.79086 10.2091 1 7.99999 1C5.79086 1 3.99999 2.79086 3.99999 5C3.99999 7.20914 5.79086 9 7.99999 9Z" fill="#364141"/>
<path d="M7.98031 10.25C6.46558 10.25 4.83575 10.25 3.04124 10.5332C1.37194 10.7966 0.445424 12.6367 1.4548 14.1034C2.59179 15.7555 4.73191 18 7.99999 18C11.2681 18 13.4082 15.7555 14.5452 14.1034C15.5546 12.6367 14.6281 10.7966 12.9588 10.5332C11.1642 10.25 9.53441 10.25 8.01968 10.25H7.98031Z" fill="#364141"/>
<path d="M16 10V5.81066L14.2803 7.53033L13.2197 6.46967L16.75 2.93934L20.2803 6.46967L19.2197 7.53033L17.5 5.81066V10H16Z" fill="#364141"/>
</svg>
