<svg width="18" height="18" viewBox="0 0 18 18" fill="none" xmlns="http://www.w3.org/2000/svg">
<path fill-rule="evenodd" clip-rule="evenodd" d="M9.50002 4.5C9.50002 6.433 7.93301 8 6.00001 8C4.06702 8 2.50001 6.433 2.50001 4.5C2.50001 2.567 4.06702 1 6.00001 1C7.93301 1 9.50002 2.567 9.50002 4.5ZM8.00001 4.5C8.00001 5.60457 7.10458 6.5 6.00001 6.5C4.89545 6.5 4.00001 5.60457 4.00001 4.5C4.00001 3.39543 4.89545 2.5 6.00001 2.5C7.10458 2.5 8.00001 3.39543 8.00001 4.5Z" fill="#364141"/>
<path fill-rule="evenodd" clip-rule="evenodd" d="M17 5C17 6.65685 15.6569 8 14 8C12.3432 8 11 6.65685 11 5C11 3.34315 12.3432 2 14 2C15.6569 2 17 3.34315 17 5ZM15.5 5C15.5 5.82843 14.8284 6.5 14 6.5C13.1716 6.5 12.5 5.82843 12.5 5C12.5 4.17157 13.1716 3.5 14 3.5C14.8284 3.5 15.5 4.17157 15.5 5Z" fill="#364141"/>
<path d="M13.6418 10.7662C14.2893 10.7849 14.9477 10.8255 15.6335 10.9131C15.9819 10.9576 16.2024 11.1581 16.2933 11.3701C16.3797 11.5715 16.3684 11.8202 16.16 12.0579C15.4729 12.8417 14.5416 13.5661 13.3767 13.7602C12.9681 13.8283 12.6921 14.2147 12.7602 14.6233C12.8283 15.0319 13.2147 15.3079 13.6233 15.2398C15.2634 14.9665 16.4814 13.9667 17.2879 13.0468C17.8848 12.366 17.9815 11.5006 17.6718 10.7786C17.3666 10.0673 16.6867 9.53542 15.8236 9.42517C14.825 9.29764 13.8847 9.26296 12.9944 9.25352C13.4688 9.61688 13.7043 10.1922 13.6418 10.7662Z" fill="#364141"/>
<path fill-rule="evenodd" clip-rule="evenodd" d="M5.98298 9.25C4.80043 9.25 3.52847 9.24999 2.1443 9.42931C1.28899 9.54011 0.614043 10.0644 0.30564 10.7689C-0.00671035 11.4825 0.0773659 12.3398 0.647795 13.0273C1.69329 14.2875 3.45642 15.75 6.00001 15.75C8.54362 15.75 10.3067 14.2875 11.3522 13.0273C11.9227 12.3398 12.0067 11.4825 11.6944 10.7689C11.386 10.0644 10.711 9.54011 9.85573 9.42931C8.47156 9.24999 7.19961 9.25 6.01706 9.25H5.98298ZM2.33701 10.9169C3.61845 10.7509 4.80373 10.75 6.00001 10.75C7.1963 10.75 8.38158 10.7509 9.66302 10.9169C10.0084 10.9616 10.2278 11.1591 10.3203 11.3704C10.4088 11.5728 10.4004 11.8254 10.1978 12.0696C9.29487 13.1579 7.91409 14.25 6.00001 14.25C4.08594 14.25 2.70516 13.1579 1.80222 12.0696C1.59962 11.8254 1.59118 11.5728 1.67975 11.3704C1.77226 11.1591 1.99165 10.9616 2.33701 10.9169Z" fill="#364141"/>
</svg>
