<svg width="18" height="18" viewBox="0 0 18 18" fill="none" xmlns="http://www.w3.org/2000/svg">
<path d="M8.04629 6.72948C7.7182 6.57829 7.36125 6.5 7 6.5V5C7.5147 5 8.02396 5.09933 8.5 5.2919C8.55854 5.31558 8.61658 5.34067 8.67407 5.36716C9.19901 5.60906 9.66529 5.96186 10.0408 6.40125C10.4163 6.84064 10.6922 7.3562 10.8493 7.91242C11.0065 8.46864 11.0412 9.05231 10.9511 9.62324C10.8611 10.1942 10.6484 10.7388 10.3276 11.2197C10.0069 11.7005 9.58576 12.1061 9.09322 12.4086C8.60069 12.711 8.04845 12.9032 7.47454 12.9718C7.41169 12.9793 7.34874 12.9853 7.28576 12.9898C6.77355 13.0265 6.25844 12.9642 5.76873 12.8058L6.23046 11.3786C6.57408 11.4897 6.93799 11.5252 7.29659 11.4823C7.65528 11.4395 8.00043 11.3194 8.30826 11.1304C8.6161 10.9413 8.87931 10.6878 9.07977 10.3873C9.28023 10.0868 9.41318 9.74636 9.46947 9.38953C9.52575 9.03269 9.50404 8.6679 9.40582 8.32026C9.30759 7.97262 9.1352 7.6504 8.9005 7.37578C8.6658 7.10116 8.37438 6.88066 8.04629 6.72948Z" fill="#364141"/>
<path d="M4.62134 9.7694C4.7431 10.1458 4.95247 10.488 5.23223 10.7678L4.17157 11.8284C3.8074 11.4642 3.51752 11.0336 3.31732 10.5614C3.27152 10.4533 3.23041 10.3431 3.19414 10.231C3.15788 10.1189 3.12667 10.0055 3.10053 9.89116C2.98628 9.39122 2.96899 8.87286 3.05082 8.36439L4.53182 8.60239C4.46899 8.99286 4.49962 9.3931 4.62134 9.7694Z" fill="#364141"/>
<path d="M4.92776 7.6015C5.16364 7.25197 5.48411 6.96779 5.85933 6.77539L5.86024 6.77493L5.17639 5.43988C5.0343 5.51266 4.89712 5.59367 4.76546 5.68234C4.47193 5.88004 4.20592 6.11584 3.97442 6.38353C3.8706 6.50359 3.77371 6.63007 3.68441 6.7624L4.92776 7.6015Z" fill="#364141"/>
<path fill-rule="evenodd" clip-rule="evenodd" d="M14 5.97159V3.5C14 2.67157 13.3284 2 12.5 2H1.5C0.671573 2 0 2.67157 0 3.5V14.5C0 15.3284 0.671573 16 1.5 16H12.5C13.3284 16 14 15.3284 14 14.5V12.0455L17.3291 13.256C17.6552 13.3746 18 13.1331 18 12.7861V5.26875C18 4.9239 17.6591 4.68258 17.3339 4.79716L14 5.97159ZM12.5 3.5H1.5L1.5 14.5H12.5V3.5ZM14 7.56194V10.4494L16.5 11.3584V6.68126L14 7.56194Z" fill="#364141"/>
</svg>
