<svg width="18" height="18" viewBox="0 0 18 18" fill="none" xmlns="http://www.w3.org/2000/svg">
<path fill-rule="evenodd" clip-rule="evenodd" d="M14 12.0455V14.5C14 15.3284 13.3284 16 12.5 16H1.5C0.671573 16 0 15.3284 0 14.5V3.5C0 2.67157 0.671573 2 1.5 2H12.5C13.3284 2 14 2.67157 14 3.5V5.97159L17.3339 4.79716C17.6591 4.68258 18 4.9239 18 5.26875V12.7861C18 13.1331 17.6552 13.3746 17.3291 13.256L14 12.0455ZM1.5 3.5H12.5V14.5H1.5L1.5 3.5ZM14 10.4494L16.5 11.3584V6.68126L14 7.56194V10.4494Z" fill="#364141"/>
</svg>
