<svg width="18" height="18" viewBox="0 0 18 18" fill="none" xmlns="http://www.w3.org/2000/svg">
<path fill-rule="evenodd" clip-rule="evenodd" d="M0 3.5C0 2.67157 0.671573 2 1.5 2H12.5C13.3284 2 14 2.67157 14 3.5V5.97159L17.3339 4.79716C17.6591 4.68258 18 4.9239 18 5.26875V12.7861C18 13.1331 17.6552 13.3746 17.3291 13.256L14 12.0455V14.5C14 15.3284 13.3284 16 12.5 16H1.5C0.671573 16 0 15.3284 0 14.5V3.5ZM7 6.5C7.36125 6.5 7.7182 6.57829 8.04629 6.72948C8.37438 6.88066 8.6658 7.10116 8.9005 7.37578C9.1352 7.6504 9.3076 7.97262 9.40582 8.32026C9.50404 8.6679 9.52575 9.03269 9.46947 9.38953C9.41318 9.74636 9.28023 10.0868 9.07977 10.3873C8.87931 10.6878 8.6161 10.9413 8.30826 11.1304C8.00043 11.3194 7.65528 11.4395 7.29659 11.4823C6.93799 11.5252 6.57437 11.4898 6.23075 11.3787L5.76874 12.8058C6.25844 12.9642 6.77355 13.0265 7.28576 12.9898C7.34874 12.9853 7.41169 12.9793 7.47454 12.9718C8.04845 12.9032 8.60069 12.711 9.09322 12.4086C9.58576 12.1061 10.0069 11.7005 10.3276 11.2197C10.6484 10.7388 10.8611 10.1942 10.9511 9.62324C11.0412 9.05231 11.0065 8.46864 10.8493 7.91242C10.6922 7.3562 10.4163 6.84064 10.0408 6.40125C9.66529 5.96186 9.19901 5.60906 8.67407 5.36716C8.61658 5.34067 8.55854 5.31558 8.5 5.2919C8.02396 5.09933 7.5147 5 7 5L7 6.5ZM5.23223 10.7678C4.95247 10.488 4.7431 10.1458 4.62134 9.7694C4.49962 9.3931 4.46892 8.9933 4.53175 8.60283L3.05091 8.36382C2.96908 8.87229 2.98628 9.39122 3.10053 9.89116C3.12667 10.0055 3.15788 10.1189 3.19414 10.231C3.23041 10.3431 3.27152 10.4533 3.31732 10.5614C3.51752 11.0336 3.80712 11.4639 4.1713 11.8282L5.23223 10.7678ZM5.85933 6.77539C5.48411 6.96779 5.16364 7.25197 4.92776 7.6015L3.68441 6.7624C3.77372 6.63007 3.8706 6.50359 3.97442 6.38353C4.20592 6.11584 4.47193 5.88004 4.76547 5.68234C4.89712 5.59367 5.0343 5.51266 5.17639 5.43988L5.86024 6.77493L5.85933 6.77539Z" fill="#364141"/>
</svg>
