<svg width="18" height="18" viewBox="0 0 18 18" fill="none" xmlns="http://www.w3.org/2000/svg">
<path fill-rule="evenodd" clip-rule="evenodd" d="M11.2361 6C11.7111 5.46924 12 4.76835 12 4C12 2.34315 10.6568 1 8.99995 1C7.3431 1 5.99995 2.34315 5.99995 4C5.99995 4.76835 6.28881 5.46924 6.76385 6H5.14565C4.46922 6 3.87648 6.45273 3.6985 7.10532L1.1722 16.3684C1.08545 16.6865 1.32489 17 1.65458 17H16.3453C16.675 17 16.9145 16.6865 16.8277 16.3684L14.3014 7.10532C14.1234 6.45273 13.5307 6 12.8543 6H11.2361ZM10.5 4C10.5 4.82843 9.82838 5.5 8.99995 5.5C8.17153 5.5 7.49995 4.82843 7.49995 4C7.49995 3.17157 8.17153 2.5 8.99995 2.5C9.82838 2.5 10.5 3.17157 10.5 4Z" fill="#364141"/>
</svg>
