<svg width="18" height="18" viewBox="0 0 18 18" fill="none" xmlns="http://www.w3.org/2000/svg">
<path d="M8.98509 2C12.3148 2 15.41 3.00453 17.9853 4.72741L17.1541 5.9763C14.8165 4.41198 12.007 3.5 8.98509 3.5C5.96322 3.5 3.15371 4.41198 0.816091 5.9763L-0.0151367 4.72741C2.56014 3.00453 5.65535 2 8.98509 2Z" fill="#364141"/>
<path d="M8.99992 16C9.55221 16 9.99992 15.5523 9.99992 15C9.99992 14.4477 9.55221 14 8.99992 14C8.44764 14 7.99992 14.4477 7.99992 15C7.99992 15.5523 8.44764 16 8.99992 16Z" fill="#364141"/>
<path d="M15.7956 8.05633C13.851 6.75734 11.5138 6 8.99978 6C6.48575 6 4.1486 6.75732 2.20403 8.05628L3.03616 9.30448C4.74263 8.16459 6.79359 7.5 8.99978 7.5C11.206 7.5 13.257 8.16461 14.9635 9.30454L15.7956 8.05633Z" fill="#364141"/>
<path d="M8.99987 10C10.687 10 12.2395 10.5763 13.4714 11.5427L12.6362 12.7956C11.6453 11.9858 10.3793 11.5 8.99987 11.5C7.62041 11.5 6.3544 11.9858 5.36358 12.7956L4.52837 11.5427C5.7602 10.5763 7.31273 10 8.99987 10Z" fill="#364141"/>
</svg>
