<svg width="18" height="18" viewBox="0 0 18 18" fill="none" xmlns="http://www.w3.org/2000/svg">
<path d="M15.7928 16.2072L1.29284 1.70718L2.70706 0.292969L4.70469 2.2906C6.02543 1.93795 7.41239 1.75008 8.84325 1.75008C12.1751 1.75008 15.269 2.76875 17.8429 4.51464L16.746 6.18867C14.4833 4.64769 11.7642 3.75008 8.84325 3.75008C8.00368 3.75008 7.18078 3.82423 6.3806 3.96651L8.18998 5.77589C8.45772 5.75877 8.72775 5.75008 8.99981 5.75008C11.5652 5.75008 13.9501 6.52288 15.9343 7.84837L14.8248 9.51265C13.4816 8.61536 11.9198 8.01958 10.2362 7.8221L17.2071 14.793L15.7928 16.2072Z" fill="#364141"/>
<path d="M10.25 15C10.25 15.6904 9.69031 16.25 8.99995 16.25C8.3096 16.25 7.74995 15.6904 7.74995 15C7.74995 14.3097 8.3096 13.75 8.99995 13.75C9.69031 13.75 10.25 14.3097 10.25 15Z" fill="#364141"/>
<path d="M4.38943 11.3342C5.35914 10.5774 6.51973 10.0538 7.7869 9.84771L9.73843 11.7992C9.49691 11.7668 9.25042 11.7501 9.00002 11.7501C7.67182 11.7501 6.45359 12.2209 5.5031 13.0047L4.38943 11.3342Z" fill="#364141"/>
<path d="M6.09599 8.15677L4.51711 6.5779C3.64906 6.91148 2.82765 7.33912 2.06536 7.84832L3.17488 9.51259C4.06247 8.9197 5.04548 8.45845 6.09599 8.15677Z" fill="#364141"/>
<path d="M-0.157227 4.5152C0.288386 4.21291 0.749582 3.93241 1.2249 3.67522L2.69392 5.16982C2.08394 5.46792 1.49792 5.809 0.939693 6.18923L-0.157227 4.5152Z" fill="#364141"/>
</svg>
