<svg width="18" height="18" viewBox="0 0 18 18" fill="none" xmlns="http://www.w3.org/2000/svg">
<path d="M8.84325 3.75C5.92195 3.75 3.20253 4.64783 0.939693 6.18916L-0.157227 4.51513C2.41688 2.7689 5.51102 1.75 8.84325 1.75C12.1751 1.75 15.269 2.76868 17.8429 4.51457L16.746 6.18859C14.4833 4.64762 11.7642 3.75 8.84325 3.75Z" fill="#364141"/>
<path d="M8.99993 16.25C9.69029 16.25 10.2499 15.6904 10.2499 15C10.2499 14.3096 9.69029 13.75 8.99993 13.75C8.30958 13.75 7.74993 14.3096 7.74993 15C7.74993 15.6904 8.30958 16.25 8.99993 16.25Z" fill="#364141"/>
<path d="M15.9343 7.8483C13.9501 6.5228 11.5652 5.75 8.99981 5.75C6.43447 5.75 4.04962 6.52278 2.06536 7.84824L3.17488 9.51252C4.84166 8.39913 6.84493 7.75 8.99981 7.75C11.1547 7.75 13.158 8.39915 14.8248 9.51258L15.9343 7.8483Z" fill="#364141"/>
<path d="M8.99989 9.75C10.7383 9.75 12.3386 10.3415 13.6105 11.3341L12.4968 13.0046C11.5463 12.2208 10.3281 11.75 8.99989 11.75C7.6717 11.75 6.45347 12.2208 5.50297 13.0046L4.38931 11.3341C5.66119 10.3415 7.26147 9.75 8.99989 9.75Z" fill="#364141"/>
</svg>
