<svg width="18" height="18" viewBox="0 0 18 18" fill="none" xmlns="http://www.w3.org/2000/svg">
<path d="M15.9696 16.0304L1.46959 1.53039L2.53025 0.469727L4.64772 2.58719C6.0283 2.20453 7.48283 2.00006 8.98509 2.00006C12.3148 2.00006 15.41 3.00459 17.9853 4.72746L17.1541 5.97636C14.8165 4.41204 12.007 3.50006 8.98509 3.50006C7.92256 3.50006 6.88629 3.61281 5.88755 3.82702L8.09359 6.03307C8.3928 6.01119 8.69499 6.00006 8.99978 6.00006C11.5138 6.00006 13.851 6.7574 15.7956 8.05639L14.9635 9.3046C13.4065 8.2645 11.5626 7.62012 9.57575 7.51522L17.0303 14.9697L15.9696 16.0304Z" fill="#364141"/>
<path d="M9.99992 15C9.99992 15.5523 9.55221 16 8.99992 16C8.44764 16 7.99992 15.5523 7.99992 15C7.99992 14.4477 8.44764 14 8.99992 14C9.55221 14 9.99992 14.4477 9.99992 15Z" fill="#364141"/>
<path d="M4.52849 11.5428C5.5143 10.7694 6.70552 10.2458 8.00674 10.0676L9.45717 11.518C9.30634 11.5061 9.15387 11.5001 8.99999 11.5001C7.62053 11.5001 6.35453 11.9859 5.3637 12.7957L4.52849 11.5428Z" fill="#364141"/>
<path d="M5.89456 7.95535L4.71101 6.7718C3.82178 7.1042 2.98153 7.53697 2.20403 8.05633L3.03616 9.30454C3.90754 8.72248 4.86873 8.26434 5.89456 7.95535Z" fill="#364141"/>
<path d="M-0.0151367 4.72746C0.526052 4.36541 1.0902 4.03507 1.67467 3.73912L2.7961 4.8624C2.10543 5.18334 1.44375 5.55633 0.816091 5.97636L-0.0151367 4.72746Z" fill="#364141"/>
</svg>
