<svg width="18" height="18" viewBox="0 0 18 18" fill="none" xmlns="http://www.w3.org/2000/svg">
<path d="M12.375 5.625H10.5V4.375H13.625V7.5H12.375V5.625Z" fill="#364141"/>
<path d="M7.5 5.625H5.625V7.5H4.375V4.375H7.5V5.625Z" fill="#364141"/>
<path d="M12.375 12.375H10.5V13.625H13.625V10.5H12.375V12.375Z" fill="#364141"/>
<path d="M7.5 12.375H5.625V10.5H4.375V13.625H7.5V12.375Z" fill="#364141"/>
<path fill-rule="evenodd" clip-rule="evenodd" d="M2.5 1C1.67157 1 1 1.67157 1 2.5V15.5C1 16.3284 1.67157 17 2.5 17H15.5C16.3284 17 17 16.3284 17 15.5V2.5C17 1.67157 16.3284 1 15.5 1H2.5ZM15.5 2.5H2.5V15.5H15.5V2.5Z" fill="#364141"/>
</svg>
