<svg width="18" height="18" viewBox="0 0 18 18" fill="none" xmlns="http://www.w3.org/2000/svg">
<path fill-rule="evenodd" clip-rule="evenodd" d="M16 2.625C16 4.07475 14.8247 5.25 13.375 5.25C11.9253 5.25 10.75 4.07475 10.75 2.625C10.75 1.17525 11.9253 0 13.375 0C14.8247 0 16 1.17525 16 2.625ZM14.5 2.625C14.5 3.24632 13.9963 3.75 13.375 3.75C12.7537 3.75 12.25 3.24632 12.25 2.625C12.25 2.00368 12.7537 1.5 13.375 1.5C13.9963 1.5 14.5 2.00368 14.5 2.625Z" fill="#364141"/>
<path fill-rule="evenodd" clip-rule="evenodd" d="M9.5 5.7998C9.5 7.04245 8.49264 8.0498 7.25 8.0498C6.00736 8.0498 5 7.04245 5 5.7998C5 4.55716 6.00736 3.5498 7.25 3.5498C8.49264 3.5498 9.5 4.55716 9.5 5.7998ZM8 5.7998C8 6.21402 7.66421 6.5498 7.25 6.5498C6.83579 6.5498 6.5 6.21402 6.5 5.7998C6.5 5.38559 6.83579 5.0498 7.25 5.0498C7.66421 5.0498 8 5.38559 8 5.7998Z" fill="#364141"/>
<path d="M2.5 10.5C3.32843 10.5 4 9.82843 4 9C4 8.17157 3.32843 7.5 2.5 7.5C1.67157 7.5 1 8.17157 1 9C1 9.82843 1.67157 10.5 2.5 10.5Z" fill="#364141"/>
<path fill-rule="evenodd" clip-rule="evenodd" d="M7.25 14.5C8.49264 14.5 9.5 13.4926 9.5 12.25C9.5 11.0074 8.49264 10 7.25 10C6.00736 10 5 11.0074 5 12.25C5 13.4926 6.00736 14.5 7.25 14.5ZM7.25 13C7.66421 13 8 12.6642 8 12.25C8 11.8358 7.66421 11.5 7.25 11.5C6.83579 11.5 6.5 11.8358 6.5 12.25C6.5 12.6642 6.83579 13 7.25 13Z" fill="#364141"/>
<path fill-rule="evenodd" clip-rule="evenodd" d="M13.375 11.6299C14.8247 11.6299 16 10.4546 16 9.00488C16 7.55514 14.8247 6.37988 13.375 6.37988C11.9253 6.37988 10.75 7.55514 10.75 9.00488C10.75 10.4546 11.9253 11.6299 13.375 11.6299ZM13.375 10.1299C13.9963 10.1299 14.5 9.6262 14.5 9.00488C14.5 8.38356 13.9963 7.87988 13.375 7.87988C12.7537 7.87988 12.25 8.38356 12.25 9.00488C12.25 9.6262 12.7537 10.1299 13.375 10.1299Z" fill="#364141"/>
<path fill-rule="evenodd" clip-rule="evenodd" d="M16 15.375C16 16.8247 14.8247 18 13.375 18C11.9253 18 10.75 16.8247 10.75 15.375C10.75 13.9253 11.9253 12.75 13.375 12.75C14.8247 12.75 16 13.9253 16 15.375ZM14.5 15.375C14.5 15.9963 13.9963 16.5 13.375 16.5C12.7537 16.5 12.25 15.9963 12.25 15.375C12.25 14.7537 12.7537 14.25 13.375 14.25C13.9963 14.25 14.5 14.7537 14.5 15.375Z" fill="#364141"/>
</svg>
