<svg width="18" height="18" viewBox="0 0 18 18" fill="none" xmlns="http://www.w3.org/2000/svg">
<path d="M13.375 5.25C14.8247 5.25 16 4.07475 16 2.625C16 1.17525 14.8247 0 13.375 0C11.9253 0 10.75 1.17525 10.75 2.625C10.75 4.07475 11.9253 5.25 13.375 5.25Z" fill="#364141"/>
<path d="M7.25 8.0498C8.49264 8.0498 9.5 7.04245 9.5 5.7998C9.5 4.55716 8.49264 3.5498 7.25 3.5498C6.00736 3.5498 5 4.55716 5 5.7998C5 7.04245 6.00736 8.0498 7.25 8.0498Z" fill="#364141"/>
<path d="M2.5 10.5C3.32843 10.5 4 9.82843 4 9C4 8.17157 3.32843 7.5 2.5 7.5C1.67157 7.5 1 8.17157 1 9C1 9.82843 1.67157 10.5 2.5 10.5Z" fill="#364141"/>
<path d="M9.5 12.25C9.5 13.4926 8.49264 14.5 7.25 14.5C6.00736 14.5 5 13.4926 5 12.25C5 11.0074 6.00736 10 7.25 10C8.49264 10 9.5 11.0074 9.5 12.25Z" fill="#364141"/>
<path d="M16 9.00488C16 10.4546 14.8247 11.6299 13.375 11.6299C11.9253 11.6299 10.75 10.4546 10.75 9.00488C10.75 7.55514 11.9253 6.37988 13.375 6.37988C14.8247 6.37988 16 7.55514 16 9.00488Z" fill="#364141"/>
<path d="M13.375 18C14.8247 18 16 16.8247 16 15.375C16 13.9253 14.8247 12.75 13.375 12.75C11.9253 12.75 10.75 13.9253 10.75 15.375C10.75 16.8247 11.9253 18 13.375 18Z" fill="#364141"/>
</svg>
