<svg width="18" height="18" viewBox="0 0 18 18" fill="none" xmlns="http://www.w3.org/2000/svg">
<path fill-rule="evenodd" clip-rule="evenodd" d="M3 6C3 3.23858 5.23858 1 8 1H16.5C17.3284 1 18 1.67157 18 2.5V10C18 12.7614 15.7614 15 13 15H4.5C3.67157 15 3 14.3284 3 13.5V6ZM11.25 4.75H9.75V7.25H7.25V8.75H9.75V11.25H11.25V8.75H13.75V7.25H11.25V4.75Z" fill="#364141"/>
<path d="M1.5 5.42928C0.574319 6.33675 0 7.6013 0 9V16C0 17.1046 0.89543 18 2 18H10C11.3987 18 12.6633 17.4257 13.5707 16.5H3C2.17157 16.5 1.5 15.8284 1.5 15V5.42928Z" fill="#364141"/>
</svg>
