<svg width="18" height="18" viewBox="0 0 18 18" fill="none" xmlns="http://www.w3.org/2000/svg">
<path d="M11.25 4.75H9.75V7.25H7.25V8.75H9.75V11.25H11.25V8.75H13.75V7.25H11.25V4.75Z" fill="#364141"/>
<path fill-rule="evenodd" clip-rule="evenodd" d="M8 1C5.23858 1 3 3.23858 3 6V13.5C3 14.3284 3.67157 15 4.5 15H13C15.7614 15 18 12.7614 18 10V2.5C18 1.67157 17.3284 1 16.5 1H8ZM16.5 2.5H8C6.067 2.5 4.5 4.067 4.5 6V13.5H13C14.933 13.5 16.5 11.933 16.5 10V2.5Z" fill="#364141"/>
<path d="M1.5 5.42928C0.574319 6.33675 0 7.6013 0 9V16C0 17.1046 0.89543 18 2 18H10C11.3987 18 12.6633 17.4257 13.5707 16.5H3C2.17157 16.5 1.5 15.8284 1.5 15V5.42928Z" fill="#364141"/>
</svg>
