<svg width="18" height="18" viewBox="0 0 18 18" fill="none" xmlns="http://www.w3.org/2000/svg">
<path fill-rule="evenodd" clip-rule="evenodd" d="M3 6C3 3.23858 5.23858 1 8 1H16.5C17.3284 1 18 1.67157 18 2.5V10C18 12.7614 15.7614 15 13 15H4.5C3.67157 15 3 14.3284 3 13.5V6ZM8 2.5H16.5V10C16.5 11.933 14.933 13.5 13 13.5H4.5V6C4.5 4.067 6.067 2.5 8 2.5Z" fill="#364141"/>
<path d="M0 9C0 7.6013 0.574319 6.33675 1.5 5.42928V15C1.5 15.8284 2.17157 16.5 3 16.5H13.5707C12.6633 17.4257 11.3987 18 10 18H2C0.89543 18 0 17.1046 0 16V9Z" fill="#364141"/>
</svg>
