<svg width="18" height="18" viewBox="0 0 18 18" fill="none" xmlns="http://www.w3.org/2000/svg">
<path fill-rule="evenodd" clip-rule="evenodd" d="M1 2C1 1.17157 1.67157 0.5 2.5 0.5H4C4.82843 0.5 5.5 1.17157 5.5 2V16C5.5 16.8284 4.82843 17.5 4 17.5H2.5C1.67157 17.5 1 16.8284 1 16V2ZM2.5 2H4V5.75H2.5V2ZM2.5 7.25L2.5 16H4V7.25H2.5Z" fill="#364141"/>
<path fill-rule="evenodd" clip-rule="evenodd" d="M6.75 2C6.75 1.17157 7.42157 0.5 8.25 0.5H9.75C10.5784 0.5 11.25 1.17157 11.25 2V16C11.25 16.8284 10.5784 17.5 9.75 17.5H8.25C7.42157 17.5 6.75 16.8284 6.75 16V2ZM8.25 2H9.75V10.75H8.25V2ZM8.25 12.25V16H9.75V12.25H8.25Z" fill="#364141"/>
<path fill-rule="evenodd" clip-rule="evenodd" d="M14 0.5C13.1716 0.5 12.5 1.17157 12.5 2V16C12.5 16.8284 13.1716 17.5 14 17.5H15.5C16.3284 17.5 17 16.8284 17 16V2C17 1.17157 16.3284 0.5 15.5 0.5H14ZM15.5 2H14V5.75H15.5V2ZM14 16V7.25H15.5V16H14Z" fill="#364141"/>
</svg>
