<svg width="18" height="18" viewBox="0 0 18 18" fill="none" xmlns="http://www.w3.org/2000/svg">
<path d="M2.5 0.5C1.67157 0.5 1 1.17157 1 2V5.75H5V2C5 1.17157 4.32843 0.5 3.5 0.5H2.5Z" fill="#364141"/>
<path d="M5 7.25H1V16C1 16.8284 1.67157 17.5 2.5 17.5H3.5C4.32843 17.5 5 16.8284 5 16V7.25Z" fill="#364141"/>
<path d="M8.5 0.5C7.67157 0.5 7 1.17157 7 2V10.75H11V2C11 1.17157 10.3284 0.5 9.5 0.5H8.5Z" fill="#364141"/>
<path d="M11 12.25H7V16C7 16.8284 7.67157 17.5 8.5 17.5H9.5C10.3284 17.5 11 16.8284 11 16V12.25Z" fill="#364141"/>
<path d="M13 2C13 1.17157 13.6716 0.5 14.5 0.5H15.5C16.3284 0.5 17 1.17157 17 2V5.75H13V2Z" fill="#364141"/>
<path d="M13 7.25V16C13 16.8284 13.6716 17.5 14.5 17.5H15.5C16.3284 17.5 17 16.8284 17 16V7.25H13Z" fill="#364141"/>
</svg>
