<svg width="18" height="18" viewBox="0 0 18 18" fill="none" xmlns="http://www.w3.org/2000/svg">
<path fill-rule="evenodd" clip-rule="evenodd" d="M10.5778 6.57159C11.7182 5.99469 12.5 4.81192 12.5 3.44653C12.5 1.51354 10.933 -0.0534668 9 -0.0534668C7.067 -0.0534668 5.5 1.51354 5.5 3.44653C5.5 4.81192 6.28184 5.99469 7.42224 6.57159H10.5778ZM10.1665 5.07159C10.6732 4.70718 11 4.11405 11 3.44653C11 2.34196 10.1046 1.44653 9 1.44653C7.89543 1.44653 7 2.34196 7 3.44653C7 4.11405 7.3268 4.70718 7.83349 5.07159H10.1665Z" fill="#364141"/>
<path d="M7.5 7.5C7.5 8.32843 8.17157 9 9 9C9.82843 9 10.5 8.32843 10.5 7.5H7.5Z" fill="#364141"/>
<path d="M15.5 3.5H13.9986C13.9871 2.97852 13.9083 2.47521 13.7711 2H16C16.5523 2 17 2.44772 17 3V9.92596C17 11.859 15.433 13.426 13.5 13.426H6.33333L1.39529 16.9523C1.22982 17.0705 1 16.9522 1 16.7489V5.5C1 3.65926 2.421 2.15041 4.22586 2.01058C4.0851 2.50178 4.0066 3.02287 4.0004 3.56291C3.13758 3.78479 2.5 4.56794 2.5 5.5V14.3202L5.85273 11.926H13.5C14.6046 11.926 15.5 11.0305 15.5 9.92596V3.5Z" fill="#364141"/>
</svg>
