<svg width="18" height="18" viewBox="0 0 18 18" fill="none" xmlns="http://www.w3.org/2000/svg">
<path d="M10.5778 6.57159C11.7182 5.99469 12.5 4.81192 12.5 3.44653C12.5 1.51354 10.933 -0.0534668 9 -0.0534668C7.067 -0.0534668 5.5 1.51354 5.5 3.44653C5.5 4.81192 6.28184 5.99469 7.42224 6.57159H10.5778Z" fill="#364141"/>
<path d="M7.5 7.5C7.5 8.32843 8.17157 9 9 9C9.82843 9 10.5 8.32843 10.5 7.5H7.5Z" fill="#364141"/>
<path d="M14 3.5C14 3.66875 13.9916 3.83555 13.9753 4H15V9.75C15 10.5784 14.3284 11.25 13.5 11.25H5.70059L3 13.1488V5.5C3 4.83477 3.43305 4.27067 4.03262 4.07425C4.01107 3.88582 4 3.6942 4 3.5C4 2.98129 4.07899 2.48104 4.22559 2.0106C2.42085 2.15057 1 3.65935 1 5.5V16.5186C1 16.7211 1.22815 16.8396 1.39379 16.7231L6.33333 13.25H13.5C15.433 13.25 17 11.683 17 9.75V3C17 2.44772 16.5523 2 16 2H13.7711C13.9198 2.47352 14 2.9774 14 3.5Z" fill="#364141"/>
</svg>
