<svg width="18" height="18" viewBox="0 0 18 18" fill="none" xmlns="http://www.w3.org/2000/svg">
<path fill-rule="evenodd" clip-rule="evenodd" d="M5 10H9.5C11.433 10 13 8.433 13 6.5V2C13 1.44772 12.5523 1 12 1H4.5C2.567 1 1 2.567 1 4.5V12.5C1 12.706 1.23519 12.8236 1.4 12.7L5 10ZM4.5 8.5L2.5 10V4.5C2.5 3.39543 3.39543 2.5 4.5 2.5H11.5V6.5C11.5 7.60457 10.6046 8.5 9.5 8.5H4.5Z" fill="#364141"/>
<path d="M9.50002 14C7.9145 14 6.5752 12.9458 6.14493 11.5H7.76755C8.11336 12.0978 8.75972 12.5 9.50001 12.5L13.5 12.5L15.5 14V8.99996C15.5 8.25968 15.0978 7.61333 14.5 7.26752V5.6449C15.9457 6.07517 17 7.41445 17 8.99996V16.5C17 16.706 16.7648 16.8236 16.6 16.7L13 14L9.50002 14Z" fill="#364141"/>
</svg>
