<svg width="18" height="18" viewBox="0 0 18 18" fill="none" xmlns="http://www.w3.org/2000/svg">
<path d="M8.25 10.5V5.81066L6.53033 7.53033L5.46967 6.46967L9 2.93934L12.5303 6.46967L11.4697 7.53033L9.75 5.81066V10.5H8.25Z" fill="#364141"/>
<path fill-rule="evenodd" clip-rule="evenodd" d="M6 13.5H14C16.2091 13.5 18 11.7091 18 9.5V1C18 0.447715 17.5523 0 17 0H4C1.79086 0 0 1.79086 0 4V17.5C0 17.706 0.235191 17.8236 0.4 17.7L6 13.5ZM5.5 12L1.5 15V4C1.5 2.61929 2.61929 1.5 4 1.5H16.5V9.5C16.5 10.8807 15.3807 12 14 12H5.5Z" fill="#364141"/>
</svg>
