<svg width="24" height="24" viewBox="0 0 24 24" fill="none" xmlns="http://www.w3.org/2000/svg">
<path d="M11.25 13.5V8.81066L9.53033 10.5303L8.46967 9.46967L12 5.93934L15.5303 9.46967L14.4697 10.5303L12.75 8.81066V13.5H11.25Z" fill="#364141"/>
<path fill-rule="evenodd" clip-rule="evenodd" d="M9 16.5H17C19.2091 16.5 21 14.7091 21 12.5V4C21 3.44772 20.5523 3 20 3H7C4.79086 3 3 4.79086 3 7V20.5C3 20.706 3.23519 20.8236 3.4 20.7L9 16.5ZM8.5 15L4.5 18V7C4.5 5.61929 5.61929 4.5 7 4.5H19.5V12.5C19.5 13.8807 18.3807 15 17 15H8.5Z" fill="#364141"/>
</svg>
