<svg width="24" height="24" viewBox="0 0 24 24" fill="none" xmlns="http://www.w3.org/2000/svg">
<path d="M18.6485 3.23546C18.7382 3.0431 19.0118 3.0431 19.1015 3.23546L19.4332 3.94605C19.458 3.99926 19.5008 4.04203 19.554 4.06687L20.2646 4.3985C20.457 4.48828 20.457 4.76181 20.2646 4.85159L19.554 5.18322C19.5008 5.20806 19.458 5.25083 19.4332 5.30404L19.1015 6.01463C19.0118 6.207 18.7382 6.207 18.6485 6.01463L18.3168 5.30404C18.292 5.25083 18.2492 5.20806 18.196 5.18322L17.4854 4.85159C17.293 4.76181 17.293 4.48828 17.4854 4.3985L18.196 4.06687C18.2492 4.04203 18.292 3.99926 18.3168 3.94605L18.6485 3.23546Z" fill="#364141"/>
<path d="M20.7025 15.6076L20.8629 16.0886C20.9416 16.3247 20.8347 16.5827 20.6121 16.6939L12.7094 20.6453C12.2537 20.8731 11.7283 20.9185 11.2403 20.7721L7 19.5V14L11.8321 13.2566C12.7955 13.1084 13.7254 13.6762 14.0336 14.6009L14.5 16L17.9776 14.4193C19.0585 13.9279 20.327 14.4811 20.7025 15.6076Z" fill="#364141"/>
<path d="M3 14V19.5H5V14H3Z" fill="#364141"/>
<path d="M15.6684 4.31277C15.3902 3.76648 14.6098 3.76648 14.3316 4.31277L13.2142 6.50761C13.1345 6.66416 13.0023 6.78777 12.8408 6.85687L10.6118 7.81046C10.0051 8.07 10.0051 8.93002 10.6118 9.18956L12.8408 10.1431C13.0023 10.2122 13.1345 10.3359 13.2142 10.4924L14.3316 12.6873C14.6098 13.2335 15.3902 13.2335 15.6684 12.6873L16.7858 10.4924C16.8655 10.3359 16.9977 10.2122 17.1592 10.1431L19.3882 9.18956C19.9949 8.93002 19.9949 8.07 19.3882 7.81046L17.1592 6.85687C16.9977 6.78777 16.8655 6.66416 16.7858 6.50761L15.6684 4.31277Z" fill="#364141"/>
</svg>
