<svg width="18" height="18" viewBox="0 0 18 18" fill="none" xmlns="http://www.w3.org/2000/svg">
<path d="M15.7265 0.235459C15.6368 0.043096 15.3632 0.0430956 15.2735 0.235458L14.902 1.03128C14.8772 1.08449 14.8344 1.12726 14.7812 1.15209L13.9854 1.5235C13.793 1.61328 13.793 1.88681 13.9854 1.97659L14.7812 2.348C14.8344 2.37283 14.8772 2.4156 14.902 2.46881L15.2735 3.26463C15.3632 3.457 15.6368 3.457 15.7265 3.26463L16.098 2.46881C16.1228 2.4156 16.1656 2.37283 16.2188 2.348L17.0146 1.97659C17.207 1.88681 17.207 1.61328 17.0146 1.5235L16.2188 1.15209C16.1656 1.12726 16.1228 1.08449 16.098 1.03128L15.7265 0.235459Z" fill="#364141"/>
<path fill-rule="evenodd" clip-rule="evenodd" d="M12.3924 1.26511C12.0225 0.533383 10.9775 0.533384 10.6076 1.26511L9.59537 3.26714C9.48964 3.47626 9.31381 3.64162 9.0986 3.73433L7.13184 4.58161C6.32604 4.92875 6.32604 6.07128 7.13185 6.41842L9.0986 7.2657C9.31381 7.35841 9.48964 7.52377 9.59537 7.7329L10.6076 9.73492C10.9775 10.4666 12.0225 10.4666 12.3924 9.73492L13.4046 7.7329C13.5104 7.52377 13.6862 7.35841 13.9014 7.2657L15.8682 6.41842C16.674 6.07128 16.674 4.92875 15.8682 4.58161L13.9014 3.73433C13.6862 3.64162 13.5104 3.47626 13.4046 3.26713L12.3924 1.26511ZM11.5 2.82447L10.934 3.94394C10.6697 4.46676 10.2301 4.88015 9.69207 5.11194L8.79124 5.50002L9.69207 5.88809C10.2301 6.11988 10.6697 6.53327 10.934 7.05609L11.5 8.17557L12.066 7.05609C12.3303 6.53327 12.7699 6.11988 13.3079 5.88809L14.2088 5.50002L13.3079 5.11194C12.7699 4.88015 12.3303 4.46676 12.066 3.94394L11.5 2.82447Z" fill="#364141"/>
<path fill-rule="evenodd" clip-rule="evenodd" d="M10.7117 11.5109L10.9896 12.4835L14.0658 11.2018C15.6187 10.5547 17.3834 11.4412 17.7914 13.0733L17.8712 13.3925C18.0234 14.0013 17.7006 14.6286 17.1167 14.8586L9.93661 17.6871C9.34809 17.919 8.69763 17.9409 8.09486 17.7491L2.75 16.0484V10.3647L7.6154 9.55377C8.99501 9.32384 10.3274 10.166 10.7117 11.5109ZM7.862 11.0334C8.48909 10.9288 9.09475 11.3117 9.2694 11.923L9.5057 12.75H7V14.25H10.65L14.6427 12.5864C15.3486 12.2923 16.1507 12.6952 16.3362 13.4371L16.3628 13.5434L9.38683 16.2915C9.11932 16.3969 8.82365 16.4069 8.54967 16.3197L4.25 14.9516V11.6354L7.862 11.0334Z" fill="#364141"/>
<path d="M0 10.5V16H1.5V10.5H0Z" fill="#364141"/>
</svg>
