<svg width="24" height="24" viewBox="0 0 24 24" fill="none" xmlns="http://www.w3.org/2000/svg">
<path d="M18.7265 3.23546C18.6368 3.0431 18.3632 3.0431 18.2735 3.23546L17.902 4.03128C17.8772 4.08449 17.8344 4.12726 17.7812 4.15209L16.9854 4.5235C16.793 4.61328 16.793 4.88681 16.9854 4.97659L17.7812 5.348C17.8344 5.37283 17.8772 5.4156 17.902 5.46881L18.2735 6.26463C18.3632 6.457 18.6368 6.457 18.7265 6.26463L19.098 5.46881C19.1228 5.4156 19.1656 5.37283 19.2188 5.348L20.0146 4.97659C20.207 4.88681 20.207 4.61328 20.0146 4.5235L19.2188 4.15209C19.1656 4.12726 19.1228 4.08449 19.098 4.03128L18.7265 3.23546Z" fill="#364141"/>
<path fill-rule="evenodd" clip-rule="evenodd" d="M15.3924 4.26511C15.0225 3.53338 13.9775 3.53338 13.6076 4.26511L12.5954 6.26714C12.4896 6.47626 12.3138 6.64162 12.0986 6.73433L10.1318 7.58161C9.32604 7.92875 9.32604 9.07128 10.1318 9.41842L12.0986 10.2657C12.3138 10.3584 12.4896 10.5238 12.5954 10.7329L13.6076 12.7349C13.9775 13.4666 15.0225 13.4666 15.3924 12.7349L16.4046 10.7329C16.5104 10.5238 16.6862 10.3584 16.9014 10.2657L18.8682 9.41842C19.674 9.07128 19.674 7.92875 18.8682 7.58161L16.9014 6.73433C16.6862 6.64162 16.5104 6.47626 16.4046 6.26713L15.3924 4.26511ZM14.5 5.82447L13.934 6.94394C13.6697 7.46676 13.2301 7.88015 12.6921 8.11194L11.7912 8.50002L12.6921 8.88809C13.2301 9.11988 13.6697 9.53327 13.934 10.0561L14.5 11.1756L15.066 10.0561C15.3303 9.53327 15.7699 9.11988 16.3079 8.88809L17.2088 8.50002L16.3079 8.11194C15.7699 7.88015 15.3303 7.46676 15.066 6.94394L14.5 5.82447Z" fill="#364141"/>
<path fill-rule="evenodd" clip-rule="evenodd" d="M13.7117 14.5109L13.9896 15.4835L17.0658 14.2018C18.6187 13.5547 20.3834 14.4412 20.7914 16.0733L20.8712 16.3925C21.0234 17.0013 20.7006 17.6286 20.1167 17.8586L12.9366 20.6871C12.3481 20.919 11.6976 20.9409 11.0949 20.7491L5.75 19.0484V13.3647L10.6154 12.5538C11.995 12.3238 13.3274 13.166 13.7117 14.5109ZM10.862 14.0334C11.4891 13.9288 12.0947 14.3117 12.2694 14.923L12.5057 15.75H10V17.25H13.65L17.6427 15.5864C18.3486 15.2923 19.1507 15.6952 19.3362 16.4371L19.3628 16.5434L12.3868 19.2915C12.1193 19.3969 11.8237 19.4069 11.5497 19.3197L7.25 17.9516V14.6354L10.862 14.0334Z" fill="#364141"/>
<path d="M3 13.5V19H4.5V13.5H3Z" fill="#364141"/>
</svg>
