<svg width="18" height="18" viewBox="0 0 18 18" fill="none" xmlns="http://www.w3.org/2000/svg">
<path d="M15.6485 0.235459C15.7382 0.0430958 16.0118 0.0430958 16.1015 0.235459L16.4332 0.946053C16.458 0.999263 16.5008 1.04203 16.554 1.06687L17.2646 1.3985C17.457 1.48828 17.457 1.76181 17.2646 1.85159L16.554 2.18322C16.5008 2.20806 16.458 2.25083 16.4332 2.30404L16.1015 3.01463C16.0118 3.207 15.7382 3.207 15.6485 3.01463L15.3168 2.30404C15.292 2.25083 15.2492 2.20806 15.196 2.18322L14.4854 1.85159C14.293 1.76181 14.293 1.48828 14.4854 1.3985L15.196 1.06687C15.2492 1.04203 15.292 0.999263 15.3168 0.946053L15.6485 0.235459Z" fill="#364141"/>
<path d="M17.7025 12.6076L17.8629 13.0886C17.9416 13.3247 17.8347 13.5827 17.6121 13.6939L9.70942 17.6453C9.25374 17.8731 8.72828 17.9185 8.2403 17.7721L4 16.5V11L8.83215 10.2566C9.7955 10.1084 10.7254 10.6762 11.0336 11.6009L11.5 13L14.9776 11.4193C16.0585 10.9279 17.327 11.4811 17.7025 12.6076Z" fill="#364141"/>
<path d="M0 11V16.5H2V11H0Z" fill="#364141"/>
<path d="M12.6684 1.31277C12.3902 0.766476 11.6098 0.766476 11.3316 1.31277L10.2142 3.50761C10.1345 3.66416 10.0023 3.78777 9.84082 3.85687L7.61181 4.81046C7.00514 5.07 7.00514 5.93002 7.61181 6.18956L9.84082 7.14315C10.0023 7.21225 10.1345 7.33586 10.2142 7.49241L11.3316 9.68725C11.6098 10.2335 12.3902 10.2335 12.6684 9.68725L13.7858 7.49241C13.8655 7.33586 13.9977 7.21225 14.1592 7.14315L16.3882 6.18956C16.9949 5.93002 16.9949 5.07 16.3882 4.81046L14.1592 3.85687C13.9977 3.78777 13.8655 3.66416 13.7858 3.50761L12.6684 1.31277Z" fill="#364141"/>
</svg>
