<svg width="18" height="18" viewBox="0 0 18 18" fill="none" xmlns="http://www.w3.org/2000/svg">
<path fill-rule="evenodd" clip-rule="evenodd" d="M17.0303 0.969653C15.909 -0.151666 14.091 -0.15167 12.9697 0.969651L6.54289 7.39643C6.35536 7.58397 6.25 7.83832 6.25 8.10354V11.75H9.89645C10.1617 11.75 10.416 11.6446 10.6036 11.4571L17.0303 5.03031C18.1516 3.90899 18.1516 2.09097 17.0303 0.969653ZM14.0303 2.03031C14.5659 1.49478 15.4341 1.49478 15.9697 2.03031C16.5052 2.56585 16.5052 3.43412 15.9697 3.96965L9.68934 10.25H7.75V8.31064L14.0303 2.03031Z" fill="#364141"/>
<path d="M6.25 2.49998H8.5L10 0.999983H6.25C3.3505 0.999983 1 3.35049 1 6.24998V15.25C1 16.2165 1.7835 17 2.75 17H11.75C14.6495 17 17 14.6495 17 11.75V7.99998L15.5 9.49998V11.75C15.5 13.8211 13.8211 15.5 11.75 15.5H2.75C2.61193 15.5 2.5 15.3881 2.5 15.25V6.24998C2.5 4.17892 4.17893 2.49998 6.25 2.49998Z" fill="#364141"/>
</svg>
