<svg width="18" height="18" viewBox="0 0 18 18" fill="none" xmlns="http://www.w3.org/2000/svg">
<path d="M6.5 3H8L10 1H6.5C3.46243 1 1 3.46243 1 6.5V15C1 16.1046 1.89543 17 3 17H11.5C14.5376 17 17 14.5376 17 11.5V8L15 10V11.5C15 13.433 13.433 15 11.5 15H3V6.5C3 4.567 4.567 3 6.5 3Z" fill="#364141"/>
<path d="M7 11V8.10355C7 8.03725 7.02634 7.97366 7.07322 7.92678L13.25 1.75C14.0784 0.921574 15.4216 0.921573 16.25 1.75C17.0784 2.57843 17.0784 3.92157 16.25 4.75L10.0732 10.9268C10.0263 10.9737 9.96275 11 9.89645 11H7Z" fill="#364141"/>
</svg>
