<svg width="18" height="18" viewBox="0 0 18 18" fill="none" xmlns="http://www.w3.org/2000/svg">
<path d="M8.28561 6.79999H13V8.29999H4.71439L8.46445 4.47495L9.53555 5.52505L8.28561 6.79999Z" fill="#364141"/>
<path d="M5 9.70001V11.2H9.71439L8.46445 12.475L9.53555 13.5251L13.2856 9.70001H5Z" fill="#364141"/>
<path fill-rule="evenodd" clip-rule="evenodd" d="M1 6C1 3.23858 3.23858 1 6 1H15.5C16.3284 1 17 1.67157 17 2.5V12C17 14.7614 14.7614 17 12 17H2.5C1.67157 17 1 16.3284 1 15.5V6ZM6 2.5H15.5V12C15.5 13.933 13.933 15.5 12 15.5H2.5V6C2.5 4.067 4.067 2.5 6 2.5Z" fill="#364141"/>
</svg>
