<svg width="18" height="18" viewBox="0 0 18 18" fill="none" xmlns="http://www.w3.org/2000/svg">
<path fill-rule="evenodd" clip-rule="evenodd" d="M1 6C1 2.68629 3.68629 0 7 0H16C16.5523 0 17 0.447715 17 1V8C17 11.3137 14.3137 14 11 14H3.25311C3.04802 14 2.97581 14.2719 3.15388 14.3736L5.37063 15.6404C5.62493 15.7857 5.59891 16.1604 5.32697 16.2692L1.47999 17.808C1.25008 17.9 1 17.7307 1 17.483V6ZM5.5 8C6.05228 8 6.5 7.55228 6.5 7C6.5 6.44772 6.05228 6 5.5 6C4.94772 6 4.5 6.44772 4.5 7C4.5 7.55228 4.94772 8 5.5 8ZM9 8C9.55228 8 10 7.55228 10 7C10 6.44772 9.55228 6 9 6C8.44772 6 8 6.44772 8 7C8 7.55228 8.44772 8 9 8ZM13.5 7C13.5 7.55228 13.0523 8 12.5 8C11.9477 8 11.5 7.55228 11.5 7C11.5 6.44772 11.9477 6 12.5 6C13.0523 6 13.5 6.44772 13.5 7Z" fill="#364141"/>
</svg>
