<svg width="18" height="18" viewBox="0 0 18 18" fill="none" xmlns="http://www.w3.org/2000/svg">
<path d="M9 8C9.55229 8 10 7.55228 10 7C10 6.44772 9.55229 6 9 6C8.44772 6 8 6.44772 8 7C8 7.55228 8.44772 8 9 8Z" fill="#364141"/>
<path d="M6.5 7C6.5 7.55228 6.05228 8 5.5 8C4.94772 8 4.5 7.55228 4.5 7C4.5 6.44772 4.94772 6 5.5 6C6.05228 6 6.5 6.44772 6.5 7Z" fill="#364141"/>
<path d="M12.5 8C13.0523 8 13.5 7.55228 13.5 7C13.5 6.44772 13.0523 6 12.5 6C11.9477 6 11.5 6.44772 11.5 7C11.5 7.55228 11.9477 8 12.5 8Z" fill="#364141"/>
<path fill-rule="evenodd" clip-rule="evenodd" d="M7 0C3.68629 0 1 2.68629 1 6V17.483C1 17.7307 1.25008 17.9 1.47999 17.808L5.32697 16.2692C5.59891 16.1604 5.62493 15.7857 5.37063 15.6404L3.15388 14.3736C2.97581 14.2719 3.04802 14 3.25311 14H11C14.3137 14 17 11.3137 17 8V1C17 0.447715 16.5523 0 16 0H7ZM15.5 1.5H7C4.51472 1.5 2.5 3.51472 2.5 6V12.5H11C13.4853 12.5 15.5 10.4853 15.5 8V1.5Z" fill="#364141"/>
</svg>
