<svg width="18" height="18" viewBox="0 0 18 18" fill="none" xmlns="http://www.w3.org/2000/svg">
<path d="M10.5059 3.43146L5.1934 7.03028C4.98777 7.16957 5.08909 7.49102 5.33742 7.48723L8.14286 7.44444L7.11621 10.2836C7.03411 10.5106 7.28966 10.7106 7.49033 10.5764L12.8158 7.01334C13.0212 6.87591 12.9239 6.55556 12.6768 6.55556H9.85714L10.8813 3.72346C10.9636 3.49572 10.7064 3.29564 10.5059 3.43146Z" fill="#364141"/>
<path fill-rule="evenodd" clip-rule="evenodd" d="M7 0C3.68629 0 1 2.68629 1 6V17.483C1 17.7307 1.25008 17.9 1.47999 17.808L5.32697 16.2692C5.59891 16.1604 5.62493 15.7857 5.37063 15.6404L3.15388 14.3736C2.97581 14.2719 3.04802 14 3.25311 14H11C14.3137 14 17 11.3137 17 8V1C17 0.447715 16.5523 0 16 0H7ZM15.5 1.5H7C4.51472 1.5 2.5 3.51472 2.5 6V12.5H11C13.4853 12.5 15.5 10.4853 15.5 8V1.5Z" fill="#364141"/>
</svg>
