<svg width="18" height="18" viewBox="0 0 18 18" fill="none" xmlns="http://www.w3.org/2000/svg">
<path fill-rule="evenodd" clip-rule="evenodd" d="M1 6C1 2.68629 3.68629 0 7 0H16C16.5523 0 17 0.447715 17 1V8C17 11.3137 14.3137 14 11 14H3.25311C3.04802 14 2.97581 14.2719 3.15388 14.3736L5.37063 15.6404C5.62493 15.7857 5.59891 16.1604 5.32697 16.2692L1.47999 17.808C1.25008 17.9 1 17.7307 1 17.483V6ZM5.1934 7.03028L10.5059 3.43146C10.7064 3.29564 10.9636 3.49572 10.8813 3.72346L9.85714 6.55556H12.6768C12.9239 6.55556 13.0212 6.87591 12.8158 7.01334L7.49033 10.5764C7.28966 10.7106 7.03411 10.5106 7.11621 10.2836L8.14286 7.44444L5.33742 7.48723C5.08909 7.49102 4.98777 7.16957 5.1934 7.03028Z" fill="#364141"/>
</svg>
