<svg width="24" height="24" viewBox="0 0 24 24" fill="none" xmlns="http://www.w3.org/2000/svg">
<path fill-rule="evenodd" clip-rule="evenodd" d="M11 4C8.23858 4 6 6.23858 6 9V16.5C6 17.3284 6.67157 18 7.5 18H16C18.7614 18 21 15.7614 21 13V5.5C21 4.67157 20.3284 4 19.5 4H11ZM7.5 14.3638C9.20075 13.6223 11.2691 13.1875 13.5 13.1875C15.629 13.1875 17.61 13.5835 19.2647 14.2641C18.7578 15.5724 17.4872 16.5 16 16.5H7.5V14.3638ZM16.14 9.25C16.14 10.6997 14.9647 11.875 13.515 11.875C12.0653 11.875 10.89 10.6997 10.89 9.25C10.89 7.80025 12.0653 6.625 13.515 6.625C14.9647 6.625 16.14 7.80025 16.14 9.25Z" fill="#364141"/>
<path d="M4.5 8.42926C3.57432 9.33672 3 10.6013 3 12V19C3 20.1045 3.89543 21 5 21H13C14.3987 21 15.6633 20.4257 16.5707 19.5H6C5.17157 19.5 4.5 18.8284 4.5 18V8.42926Z" fill="#364141"/>
</svg>
