<svg width="24" height="24" viewBox="0 0 24 24" fill="none" xmlns="http://www.w3.org/2000/svg">
<path fill-rule="evenodd" clip-rule="evenodd" d="M13.3438 12.3125C14.9143 12.3125 16.1875 11.0393 16.1875 9.46875C16.1875 7.89819 14.9143 6.625 13.3438 6.625C11.7732 6.625 10.5 7.89819 10.5 9.46875C10.5 11.0393 11.7732 12.3125 13.3438 12.3125ZM13.3438 10.8125C14.0859 10.8125 14.6875 10.2109 14.6875 9.46875C14.6875 8.72662 14.0859 8.125 13.3438 8.125C12.6016 8.125 12 8.72662 12 9.46875C12 10.2109 12.6016 10.8125 13.3438 10.8125Z" fill="#364141"/>
<path fill-rule="evenodd" clip-rule="evenodd" d="M6 9C6 6.23858 8.23858 4 11 4H19.5C20.3284 4 21 4.67157 21 5.5V13C21 15.7614 18.7614 18 16 18H7.5C6.67157 18 6 17.3284 6 16.5V9ZM11 5.5H19.5V13C19.5 13.3034 19.4614 13.5978 19.3888 13.8785C17.7095 13.1662 15.6825 12.75 13.5 12.75C11.2691 12.75 9.20075 13.1848 7.5 13.9263V9C7.5 7.067 9.067 5.5 11 5.5ZM7.5 15.5862V16.5H16C17.0907 16.5 18.0648 16.0011 18.7067 15.2191C17.2511 14.6183 15.4634 14.25 13.5 14.25C11.1632 14.25 9.07529 14.7717 7.5 15.5862Z" fill="#364141"/>
<path d="M3 12C3 10.6013 3.57432 9.33675 4.5 8.42928V18C4.5 18.8284 5.17157 19.5 6 19.5H16.5707C15.6633 20.4257 14.3987 21 13 21H5C3.89543 21 3 20.1046 3 19V12Z" fill="#364141"/>
</svg>
