<svg width="18" height="18" viewBox="0 0 18 18" fill="none" xmlns="http://www.w3.org/2000/svg">
<path fill-rule="evenodd" clip-rule="evenodd" d="M10.3438 9.3125C11.9143 9.3125 13.1875 8.03931 13.1875 6.46875C13.1875 4.89819 11.9143 3.625 10.3438 3.625C8.77319 3.625 7.5 4.89819 7.5 6.46875C7.5 8.03931 8.77319 9.3125 10.3438 9.3125ZM10.3438 7.8125C11.0859 7.8125 11.6875 7.21088 11.6875 6.46875C11.6875 5.72662 11.0859 5.125 10.3438 5.125C9.60162 5.125 9 5.72662 9 6.46875C9 7.21088 9.60162 7.8125 10.3438 7.8125Z" fill="#364141"/>
<path fill-rule="evenodd" clip-rule="evenodd" d="M3 6C3 3.23858 5.23858 1 8 1H16.5C17.3284 1 18 1.67157 18 2.5V10C18 12.7614 15.7614 15 13 15H4.5C3.67157 15 3 14.3284 3 13.5V6ZM8 2.5H16.5V10C16.5 10.3034 16.4614 10.5978 16.3888 10.8785C14.7095 10.1662 12.6825 9.75 10.5 9.75C8.26913 9.75 6.20075 10.1848 4.5 10.9263V6C4.5 4.067 6.067 2.5 8 2.5ZM4.5 12.5862V13.5H13C14.0907 13.5 15.0648 13.0011 15.7067 12.2191C14.2511 11.6183 12.4634 11.25 10.5 11.25C8.16319 11.25 6.07529 11.7717 4.5 12.5862Z" fill="#364141"/>
<path d="M0 9C0 7.6013 0.574319 6.33675 1.5 5.42928V15C1.5 15.8284 2.17157 16.5 3 16.5H13.5707C12.6633 17.4257 11.3987 18 10 18H2C0.89543 18 0 17.1046 0 16V9Z" fill="#364141"/>
</svg>
