<svg width="18" height="18" viewBox="0 0 18 18" fill="none" xmlns="http://www.w3.org/2000/svg">
<path fill-rule="evenodd" clip-rule="evenodd" d="M8 1C5.23858 1 3 3.23858 3 6V13.5C3 14.3284 3.67157 15 4.5 15H13C15.7614 15 18 12.7614 18 10V2.5C18 1.67157 17.3284 1 16.5 1H8ZM4.5 11.3638C6.20075 10.6223 8.26913 10.1875 10.5 10.1875C12.629 10.1875 14.61 10.5835 16.2647 11.2641C15.7578 12.5724 14.4872 13.5 13 13.5H4.5V11.3638ZM13.14 6.25C13.14 7.69975 11.9647 8.875 10.515 8.875C9.06525 8.875 7.89 7.69975 7.89 6.25C7.89 4.80025 9.06525 3.625 10.515 3.625C11.9647 3.625 13.14 4.80025 13.14 6.25Z" fill="#364141"/>
<path d="M1.5 5.42926C0.574319 6.33672 0 7.60128 0 8.99998V16C0 17.1045 0.89543 18 2 18H10C11.3987 18 12.6633 17.4257 13.5707 16.5H3C2.17157 16.5 1.5 15.8284 1.5 15V5.42926Z" fill="#364141"/>
</svg>
