<svg width="18" height="18" viewBox="0 0 18 18" fill="none" xmlns="http://www.w3.org/2000/svg">
<path fill-rule="evenodd" clip-rule="evenodd" d="M1 6C1 3.23858 3.23858 1 6 1H15.5C16.3284 1 17 1.67157 17 2.5V12C17 12.4547 16.9393 12.8953 16.8255 13.314C16.2485 15.438 14.3067 17 12 17H2.5C1.67157 17 1 16.3284 1 15.5V6ZM2.5 12.6945V15.5H12C13.7042 15.5 15.124 14.2819 15.4362 12.6689C13.5763 11.9288 11.3682 11.5 9 11.5C6.60459 11.5 4.37312 11.9387 2.5 12.6945ZM9 10C10.6569 10 12 8.65685 12 7C12 5.34315 10.6569 4 9 4C7.34315 4 6 5.34315 6 7C6 8.65685 7.34315 10 9 10Z" fill="#364141"/>
</svg>
