<svg width="18" height="18" viewBox="0 0 18 18" fill="none" xmlns="http://www.w3.org/2000/svg">
<path fill-rule="evenodd" clip-rule="evenodd" d="M12.25 7.25C12.25 9.04493 10.7949 10.5 9 10.5C7.20507 10.5 5.75 9.04493 5.75 7.25C5.75 5.45507 7.20507 4 9 4C10.7949 4 12.25 5.45507 12.25 7.25ZM10.75 7.25C10.75 8.2165 9.9665 9 9 9C8.0335 9 7.25 8.2165 7.25 7.25C7.25 6.2835 8.0335 5.5 9 5.5C9.9665 5.5 10.75 6.2835 10.75 7.25Z" fill="#364141"/>
<path fill-rule="evenodd" clip-rule="evenodd" d="M1 15.5C1 16.3284 1.67157 17 2.5 17H12C13.9266 17 15.5987 15.9103 16.4336 14.3137C16.6645 13.8721 16.8314 13.3918 16.9219 12.8851L16.9249 12.8681C16.9743 12.5861 17 12.2961 17 12V2.5C17 1.67157 16.3284 1 15.5 1H6C3.23858 1 1 3.23858 1 6V15.5ZM15.5 2.5H6C4.067 2.5 2.5 4.067 2.5 6V12.1945C4.37312 11.4387 6.60459 11 9 11C11.3932 11 13.6228 11.4379 15.4948 12.1924C15.4983 12.1287 15.5 12.0646 15.5 12V2.5ZM12 15.5C13.3375 15.5 14.4997 14.7498 15.0889 13.6473C13.3862 12.9348 11.2938 12.5 9 12.5C6.51802 12.5 4.27184 13.009 2.5 13.8282V15.5H12Z" fill="#364141"/>
</svg>
